Cafeteria-Regular.ufo
<glyph name="exclam" format="1">
  <advance width="173"/>
  <unicode hex="0021"/>
  <outline>
    <contour>
      <point x="124" y="699" type="curve"/>
      <point x="118" y="595"/>
      <point x="121" y="258"/>
      <point x="116" y="183" type="curve"/>
      <point x="100" y="190"/>
      <point x="77" y="195"/>
      <point x="55" y="197" type="curve"/>
      <point x="54" y="293"/>
      <point x="47" y="536"/>
      <point x="37" y="669" type="curve"/>
      <point x="57" y="676"/>
      <point x="93" y="685"/>
    </contour>
    <contour>
      <point x="139" y="44" type="curve" smooth="yes"/>
      <point x="139" y="18"/>
      <point x="122" y="-6"/>
      <point x="91" y="-6" type="curve" smooth="yes"/>
      <point x="63" y="-6"/>
      <point x="37" y="15"/>
      <point x="37" y="45" type="curve" smooth="yes"/>
      <point x="37" y="75"/>
      <point x="60" y="94"/>
      <point x="90" y="94" type="curve" smooth="yes"/>
      <point x="118" y="94"/>
      <point x="139" y="73"/>
    </contour>
  </outline>
</glyph>
<glyph name="quotedbl" format="1">
  <advance width="300"/>
  <unicode hex="0022"/>
  <outline>
    <contour>
      <point x="261" y="578" type="curve" smooth="yes"/>
      <point x="260" y="515"/>
      <point x="253" y="466"/>
      <point x="250" y="413" type="curve"/>
      <point x="234" y="419"/>
      <point x="219" y="420"/>
      <point x="205" y="422" type="curve"/>
      <point x="196" y="479"/>
      <point x="188" y="504"/>
      <point x="177" y="544" type="curve"/>
      <point x="182" y="585"/>
      <point x="178" y="635"/>
      <point x="177" y="669" type="curve"/>
      <point x="204" y="673"/>
      <point x="230" y="678"/>
      <point x="261" y="687" type="curve"/>
      <point x="260" y="660"/>
      <point x="262" y="613"/>
    </contour>
    <contour>
      <point x="120" y="598" type="curve" smooth="yes"/>
      <point x="119" y="526"/>
      <point x="116" y="466"/>
      <point x="109" y="413" type="curve"/>
      <point x="92" y="419"/>
      <point x="74" y="421"/>
      <point x="64" y="422" type="curve"/>
      <point x="57" y="470"/>
      <point x="44" y="508"/>
      <point x="37" y="564" type="curve"/>
      <point x="41" y="598"/>
      <point x="38" y="636"/>
      <point x="37" y="667" type="curve"/>
      <point x="62" y="671"/>
      <point x="92" y="677"/>
      <point x="120" y="687" type="curve"/>
      <point x="123" y="658"/>
      <point x="121" y="633"/>
    </contour>
  </outline>
</glyph>
<glyph name="numbersign" format="1">
  <advance width="456"/>
  <unicode hex="0023"/>
  <outline>
    <contour>
      <point x="441" y="430" type="curve"/>
      <point x="436" y="417"/>
      <point x="424" y="380"/>
      <point x="421" y="366" type="curve"/>
      <point x="404" y="370"/>
      <point x="372" y="374"/>
      <point x="336" y="381" type="curve"/>
      <point x="329" y="338"/>
      <point x="322" y="294"/>
      <point x="315" y="251" type="curve"/>
      <point x="357" y="241"/>
      <point x="392" y="231"/>
      <point x="405" y="229" type="curve"/>
      <point x="398" y="213"/>
      <point x="385" y="173"/>
      <point x="382" y="161" type="curve"/>
      <point x="372" y="164"/>
      <point x="341" y="170"/>
      <point x="305" y="180" type="curve"/>
      <point x="293" y="100"/>
      <point x="281" y="31"/>
      <point x="277" y="-6" type="curve"/>
      <point x="260" y="-3"/>
      <point x="230" y="-4"/>
      <point x="210" y="-4" type="curve"/>
      <point x="219" y="45"/>
      <point x="230" y="120"/>
      <point x="242" y="197" type="curve"/>
      <point x="213" y="206"/>
      <point x="185" y="214"/>
      <point x="156" y="222" type="curve"/>
      <point x="147" y="135"/>
      <point x="137" y="61"/>
      <point x="135" y="27" type="curve"/>
      <point x="119" y="31"/>
      <point x="93" y="32"/>
      <point x="76" y="32" type="curve"/>
      <point x="80" y="65"/>
      <point x="86" y="147"/>
      <point x="93" y="239" type="curve"/>
      <point x="57" y="249"/>
      <point x="29" y="259"/>
      <point x="20" y="261" type="curve"/>
      <point x="23" y="272"/>
      <point x="28" y="310"/>
      <point x="28" y="324" type="curve"/>
      <point x="38" y="320"/>
      <point x="66" y="314"/>
      <point x="98" y="305" type="curve"/>
      <point x="101" y="344"/>
      <point x="104" y="381"/>
      <point x="107" y="419" type="curve"/>
      <point x="76" y="425"/>
      <point x="49" y="432"/>
      <point x="33" y="434" type="curve"/>
      <point x="36" y="445"/>
      <point x="39" y="472"/>
      <point x="39" y="485" type="curve"/>
      <point x="52" y="482"/>
      <point x="79" y="479"/>
      <point x="110" y="475" type="curve"/>
      <point x="117" y="567"/>
      <point x="123" y="649"/>
      <point x="125" y="684" type="curve"/>
      <point x="149" y="679"/>
      <point x="184" y="677"/>
      <point x="204" y="675" type="curve"/>
      <point x="199" y="642"/>
      <point x="191" y="559"/>
      <point x="180" y="465" type="curve"/>
      <point x="212" y="461"/>
      <point x="245" y="456"/>
      <point x="278" y="452" type="curve"/>
      <point x="288" y="523"/>
      <point x="297" y="585"/>
      <point x="301" y="621" type="curve"/>
      <point x="316" y="617"/>
      <point x="355" y="615"/>
      <point x="371" y="615" type="curve"/>
      <point x="364" y="583"/>
      <point x="356" y="518"/>
      <point x="343" y="444" type="curve"/>
      <point x="386" y="439"/>
      <point x="422" y="432"/>
    </contour>
    <contour>
      <point x="271" y="391" type="curve"/>
      <point x="239" y="398"/>
      <point x="208" y="404"/>
      <point x="175" y="409" type="curve"/>
      <point x="171" y="368"/>
      <point x="166" y="328"/>
      <point x="162" y="289" type="curve"/>
      <point x="192" y="281"/>
      <point x="221" y="273"/>
      <point x="251" y="266" type="curve"/>
      <point x="258" y="309"/>
      <point x="265" y="350"/>
    </contour>
  </outline>
</glyph>
<glyph name="dollar" format="1">
  <advance width="289"/>
  <unicode hex="0024"/>
  <outline>
    <contour>
      <point x="258" y="166" type="curve" smooth="yes"/>
      <point x="258" y="91"/>
      <point x="227" y="40"/>
      <point x="161" y="9" type="curve"/>
      <point x="167" y="-95" type="line"/>
      <point x="102" y="-105" type="line"/>
      <point x="97" y="-13" type="line"/>
      <point x="79" y="-17"/>
      <point x="58" y="-20"/>
      <point x="36" y="-23" type="curve"/>
      <point x="38" y="4"/>
      <point x="37" y="27"/>
      <point x="35" y="55" type="curve"/>
      <point x="128" y="55"/>
      <point x="186" y="97"/>
      <point x="186" y="151" type="curve" smooth="yes"/>
      <point x="186" y="209"/>
      <point x="146" y="264"/>
      <point x="106" y="322" type="curve" smooth="yes"/>
      <point x="64" y="381"/>
      <point x="21" y="443"/>
      <point x="21" y="512" type="curve" smooth="yes"/>
      <point x="21" y="572"/>
      <point x="60" y="620"/>
      <point x="119" y="649" type="curve"/>
      <point x="114" y="757" type="line"/>
      <point x="191" y="758" type="line"/>
      <point x="192" y="671" type="line"/>
      <point x="212" y="675"/>
      <point x="232" y="676"/>
      <point x="253" y="675" type="curve"/>
      <point x="252" y="657"/>
      <point x="249" y="624"/>
      <point x="251" y="604" type="curve"/>
      <point x="160" y="602"/>
      <point x="98" y="577"/>
      <point x="98" y="523" type="curve" smooth="yes"/>
      <point x="98" y="473"/>
      <point x="134" y="420"/>
      <point x="172" y="364" type="curve" smooth="yes"/>
      <point x="214" y="302"/>
      <point x="258" y="236"/>
    </contour>
  </outline>
</glyph>
<glyph name="percent" format="1">
  <advance width="680"/>
  <unicode hex="0025"/>
  <outline>
    <contour>
      <point x="654" y="210" type="curve" smooth="yes"/>
      <point x="654" y="55"/>
      <point x="578" y="-3"/>
      <point x="518" y="-3" type="curve" smooth="yes"/>
      <point x="442" y="-3"/>
      <point x="386" y="58"/>
      <point x="386" y="187" type="curve" smooth="yes"/>
      <point x="386" y="284"/>
      <point x="440" y="412"/>
      <point x="529" y="412" type="curve" smooth="yes"/>
      <point x="608" y="412"/>
      <point x="654" y="349"/>
    </contour>
    <contour>
      <point x="464" y="633" type="curve"/>
      <point x="436" y="558"/>
      <point x="266" y="45"/>
      <point x="248" y="-18" type="curve"/>
      <point x="238" y="-12"/>
      <point x="203" y="0"/>
      <point x="185" y="4" type="curve"/>
      <point x="217" y="88"/>
      <point x="346" y="475"/>
      <point x="379" y="584" type="curve"/>
      <point x="354" y="579"/>
      <point x="314" y="570"/>
      <point x="282" y="562" type="curve"/>
      <point x="285" y="547"/>
      <point x="286" y="530"/>
      <point x="286" y="513" type="curve" smooth="yes"/>
      <point x="286" y="357"/>
      <point x="210" y="268"/>
      <point x="150" y="268" type="curve" smooth="yes"/>
      <point x="67" y="268"/>
      <point x="18" y="323"/>
      <point x="18" y="488" type="curve" smooth="yes"/>
      <point x="18" y="563"/>
      <point x="52" y="683"/>
      <point x="156" y="683" type="curve" smooth="yes"/>
      <point x="210" y="683"/>
      <point x="245" y="658"/>
      <point x="265" y="617" type="curve"/>
      <point x="316" y="630"/>
      <point x="377" y="647"/>
      <point x="430" y="664" type="curve"/>
      <point x="439" y="654"/>
      <point x="452" y="642"/>
    </contour>
    <contour>
      <point x="578" y="206" type="curve" smooth="yes"/>
      <point x="578" y="316"/>
      <point x="558" y="346"/>
      <point x="527" y="346" type="curve" smooth="yes"/>
      <point x="482" y="346"/>
      <point x="461" y="266"/>
      <point x="461" y="191" type="curve" smooth="yes"/>
      <point x="461" y="109"/>
      <point x="475" y="62"/>
      <point x="510" y="62" type="curve" smooth="yes"/>
      <point x="558" y="62"/>
      <point x="578" y="102"/>
    </contour>
    <contour>
      <point x="215" y="497" type="curve" smooth="yes"/>
      <point x="215" y="585"/>
      <point x="199" y="613"/>
      <point x="148" y="613" type="curve" smooth="yes"/>
      <point x="114" y="613"/>
      <point x="90" y="576"/>
      <point x="90" y="492" type="curve" smooth="yes"/>
      <point x="90" y="364"/>
      <point x="109" y="335"/>
      <point x="141" y="335" type="curve" smooth="yes"/>
      <point x="186" y="335"/>
      <point x="215" y="412"/>
    </contour>
  </outline>
</glyph>
<glyph name="ampersand" format="1">
  <advance width="449"/>
  <unicode hex="0026"/>
  <outline>
    <contour>
      <point x="423" y="314" type="curve"/>
      <point x="401" y="240"/>
      <point x="377" y="172"/>
      <point x="344" y="117" type="curve"/>
      <point x="364" y="83"/>
      <point x="385" y="47"/>
      <point x="405" y="11" type="curve"/>
      <point x="388" y="0"/>
      <point x="362" y="-18"/>
      <point x="346" y="-35" type="curve"/>
      <point x="331" y="-7"/>
      <point x="312" y="21"/>
      <point x="294" y="52" type="curve"/>
      <point x="257" y="16"/>
      <point x="210" y="-5"/>
      <point x="152" y="-5" type="curve" smooth="yes"/>
      <point x="78" y="-5"/>
      <point x="24" y="107"/>
      <point x="24" y="201" type="curve" smooth="yes"/>
      <point x="24" y="272"/>
      <point x="72" y="323"/>
      <point x="123" y="369" type="curve"/>
      <point x="102" y="425"/>
      <point x="90" y="483"/>
      <point x="90" y="541" type="curve" smooth="yes"/>
      <point x="90" y="620"/>
      <point x="162" y="688"/>
      <point x="240" y="688" type="curve" smooth="yes"/>
      <point x="298" y="688"/>
      <point x="334" y="624"/>
      <point x="334" y="565" type="curve" smooth="yes"/>
      <point x="334" y="473"/>
      <point x="272" y="406"/>
      <point x="214" y="351" type="curve"/>
      <point x="238" y="298"/>
      <point x="269" y="242"/>
      <point x="306" y="184" type="curve"/>
      <point x="329" y="232"/>
      <point x="347" y="286"/>
      <point x="360" y="336" type="curve"/>
      <point x="377" y="330"/>
      <point x="403" y="320"/>
    </contour>
    <contour>
      <point x="260" y="556" type="curve" smooth="yes"/>
      <point x="260" y="582"/>
      <point x="245" y="618"/>
      <point x="218" y="618" type="curve" smooth="yes"/>
      <point x="191" y="618"/>
      <point x="166" y="581"/>
      <point x="166" y="554" type="curve" smooth="yes"/>
      <point x="166" y="511"/>
      <point x="174" y="468"/>
      <point x="187" y="426" type="curve"/>
      <point x="228" y="463"/>
      <point x="260" y="503"/>
    </contour>
    <contour>
      <point x="259" y="112" type="curve"/>
      <point x="223" y="171"/>
      <point x="184" y="233"/>
      <point x="154" y="296" type="curve"/>
      <point x="124" y="269"/>
      <point x="102" y="241"/>
      <point x="102" y="215" type="curve" smooth="yes"/>
      <point x="102" y="152"/>
      <point x="120" y="66"/>
      <point x="184" y="66" type="curve" smooth="yes"/>
      <point x="211" y="66"/>
      <point x="236" y="84"/>
    </contour>
  </outline>
</glyph>
<glyph name="quotesingle" format="1">
  <advance width="165"/>
  <unicode hex="0027"/>
  <outline>
    <contour>
      <point x="121" y="598" type="curve" smooth="yes"/>
      <point x="119" y="535"/>
      <point x="111" y="464"/>
      <point x="110" y="413" type="curve"/>
      <point x="91" y="418"/>
      <point x="81" y="420"/>
      <point x="65" y="422" type="curve"/>
      <point x="58" y="467"/>
      <point x="48" y="510"/>
      <point x="37" y="564" type="curve"/>
      <point x="37" y="608"/>
      <point x="40" y="631"/>
      <point x="37" y="667" type="curve"/>
      <point x="68" y="667"/>
      <point x="89" y="671"/>
      <point x="121" y="677" type="curve"/>
      <point x="122" y="652"/>
      <point x="122" y="633"/>
    </contour>
  </outline>
</glyph>
<glyph name="parenleft" format="1">
  <advance width="268"/>
  <unicode hex="0028"/>
  <outline>
    <contour>
      <point x="266" y="-130" type="curve"/>
      <point x="252" y="-140"/>
      <point x="223" y="-162"/>
      <point x="213" y="-170" type="curve"/>
      <point x="97" y="20"/>
      <point x="34" y="203"/>
      <point x="34" y="373" type="curve" smooth="yes"/>
      <point x="34" y="520"/>
      <point x="94" y="662"/>
      <point x="218" y="760" type="curve"/>
      <point x="229" y="749"/>
      <point x="244" y="735"/>
      <point x="258" y="725" type="curve"/>
      <point x="161" y="619"/>
      <point x="114" y="508"/>
      <point x="114" y="382" type="curve" smooth="yes"/>
      <point x="114" y="236"/>
      <point x="166" y="71"/>
    </contour>
  </outline>
</glyph>
<glyph name="parenright" format="1">
  <advance width="268"/>
  <unicode hex="0029"/>
  <outline>
    <contour>
      <point x="234" y="358" type="curve" smooth="yes"/>
      <point x="234" y="207"/>
      <point x="185" y="28"/>
      <point x="66" y="-171" type="curve"/>
      <point x="49" y="-158"/>
      <point x="24" y="-145"/>
      <point x="10" y="-138" type="curve"/>
      <point x="99" y="25"/>
      <point x="158" y="191"/>
      <point x="157" y="344" type="curve" smooth="yes"/>
      <point x="157" y="482"/>
      <point x="108" y="610"/>
      <point x="-11" y="714" type="curve"/>
      <point x="7" y="724"/>
      <point x="25" y="737"/>
      <point x="41" y="753" type="curve"/>
      <point x="161" y="667"/>
      <point x="234" y="531"/>
    </contour>
  </outline>
</glyph>
<glyph name="asterisk" format="1">
  <advance width="379"/>
  <unicode hex="002A"/>
  <outline>
    <contour>
      <point x="283" y="646" type="line"/>
      <point x="226" y="515" type="line"/>
      <point x="196" y="537" type="line"/>
      <point x="208" y="650" type="line"/>
    </contour>
    <contour>
      <point x="357" y="488" type="line"/>
      <point x="336" y="414" type="line"/>
      <point x="235" y="470" type="line"/>
      <point x="246" y="530" type="line"/>
    </contour>
    <contour>
      <point x="176" y="546" type="line"/>
      <point x="144" y="503" type="line"/>
      <point x="30" y="596" type="line"/>
      <point x="74" y="663" type="line"/>
    </contour>
    <contour>
      <point x="255" y="335" type="line"/>
      <point x="162" y="343" type="line"/>
      <point x="170" y="460" type="line"/>
      <point x="208" y="476" type="line"/>
    </contour>
    <contour>
      <point x="156" y="486" type="line"/>
      <point x="152" y="450" type="line"/>
      <point x="42" y="401" type="line"/>
      <point x="30" y="466" type="line"/>
    </contour>
  </outline>
</glyph>
<glyph name="plus" format="1">
  <advance width="358"/>
  <unicode hex="002B"/>
  <outline>
    <contour>
      <point x="340" y="356" type="curve"/>
      <point x="335" y="331"/>
      <point x="337" y="298"/>
      <point x="337" y="269" type="curve"/>
      <point x="327" y="270"/>
      <point x="277" y="273"/>
      <point x="218" y="274" type="curve"/>
      <point x="219" y="214"/>
      <point x="219" y="160"/>
      <point x="220" y="150" type="curve"/>
      <point x="191" y="150"/>
      <point x="158" y="152"/>
      <point x="133" y="147" type="curve"/>
      <point x="135" y="160"/>
      <point x="137" y="218"/>
      <point x="138" y="278" type="curve"/>
      <point x="84" y="278"/>
      <point x="34" y="273"/>
      <point x="18" y="274" type="curve"/>
      <point x="18" y="293"/>
      <point x="15" y="324"/>
      <point x="13" y="352" type="curve"/>
      <point x="28" y="351"/>
      <point x="84" y="351"/>
      <point x="142" y="351" type="curve"/>
      <point x="142" y="408"/>
      <point x="138" y="459"/>
      <point x="137" y="474" type="curve"/>
      <point x="165" y="472"/>
      <point x="196" y="469"/>
      <point x="215" y="469" type="curve"/>
      <point x="215" y="453"/>
      <point x="216" y="405"/>
      <point x="216" y="352" type="curve"/>
      <point x="275" y="353"/>
      <point x="327" y="355"/>
    </contour>
  </outline>
</glyph>
<glyph name="comma" format="1">
  <advance width="157"/>
  <unicode hex="002C"/>
  <outline>
    <contour>
      <point x="123" y="4" type="curve" smooth="yes"/>
      <point x="123" y="-52"/>
      <point x="105" y="-105"/>
      <point x="69" y="-137" type="curve"/>
      <point x="25" y="-115" type="line"/>
      <point x="41" y="-95"/>
      <point x="51" y="-48"/>
      <point x="51" y="-11" type="curve" smooth="yes"/>
      <point x="51" y="16"/>
      <point x="46" y="46"/>
      <point x="36" y="67" type="curve"/>
      <point x="58" y="68"/>
      <point x="81" y="74"/>
      <point x="111" y="80" type="curve"/>
      <point x="119" y="56"/>
      <point x="123" y="30"/>
    </contour>
  </outline>
</glyph>
<glyph name="hyphen" format="1">
  <advance width="228"/>
  <unicode hex="002D"/>
  <unicode hex="2010"/>
  <unicode hex="2011"/>
  <outline>
    <contour>
      <point x="200" y="280" type="curve"/>
      <point x="195" y="255"/>
      <point x="197" y="222"/>
      <point x="197" y="193" type="curve"/>
      <point x="174" y="196"/>
      <point x="70" y="197"/>
      <point x="28" y="198" type="curve"/>
      <point x="28" y="217"/>
      <point x="25" y="248"/>
      <point x="23" y="276" type="curve"/>
      <point x="61" y="273"/>
      <point x="170" y="276"/>
    </contour>
  </outline>
</glyph>
<glyph name="period" format="1">
  <advance width="157"/>
  <unicode hex="002E"/>
  <outline>
    <contour>
      <point x="129" y="44" type="curve" smooth="yes"/>
      <point x="129" y="18"/>
      <point x="112" y="-14"/>
      <point x="81" y="-6" type="curve" smooth="yes"/>
      <point x="52" y="1"/>
      <point x="27" y="20"/>
      <point x="27" y="45" type="curve" smooth="yes"/>
      <point x="27" y="75"/>
      <point x="50" y="91"/>
      <point x="80" y="94" type="curve" smooth="yes"/>
      <point x="108" y="97"/>
      <point x="129" y="73"/>
    </contour>
  </outline>
</glyph>
<glyph name="slash" format="1">
  <advance width="322"/>
  <unicode hex="002F"/>
  <outline>
    <contour>
      <point x="304" y="656" type="curve"/>
      <point x="248" y="499"/>
      <point x="146" y="170"/>
      <point x="93" y="-14" type="curve"/>
      <point x="69" y="-5"/>
      <point x="37" y="2"/>
      <point x="18" y="5" type="curve"/>
      <point x="76" y="178"/>
      <point x="186" y="524"/>
      <point x="224" y="675" type="curve"/>
      <point x="247" y="666"/>
      <point x="278" y="660"/>
    </contour>
  </outline>
</glyph>
<glyph name="zero" format="1">
  <advance width="398"/>
  <unicode hex="0030"/>
  <outline>
    <contour>
      <point x="361" y="362" type="curve" smooth="yes"/>
      <point x="361" y="56"/>
      <point x="266" y="-10"/>
      <point x="196" y="-10" type="curve" smooth="yes"/>
      <point x="99" y="-10"/>
      <point x="35" y="101"/>
      <point x="35" y="373" type="curve" smooth="yes"/>
      <point x="35" y="561"/>
      <point x="81" y="683"/>
      <point x="203" y="683" type="curve" smooth="yes"/>
      <point x="337" y="683"/>
      <point x="361" y="558"/>
    </contour>
    <contour>
      <point x="280" y="355" type="curve" smooth="yes"/>
      <point x="280" y="535"/>
      <point x="245" y="609"/>
      <point x="194" y="609" type="curve" smooth="yes"/>
      <point x="145" y="609"/>
      <point x="116" y="534"/>
      <point x="116" y="379" type="curve" smooth="yes"/>
      <point x="116" y="176"/>
      <point x="143" y="68"/>
      <point x="202" y="68" type="curve" smooth="yes"/>
      <point x="254" y="68"/>
      <point x="280" y="193"/>
    </contour>
  </outline>
</glyph>
<glyph name="one" format="1">
  <advance width="225"/>
  <unicode hex="0031"/>
  <outline>
    <contour>
      <point x="181" y="678" type="curve"/>
      <point x="180" y="666"/>
      <point x="167" y="565"/>
      <point x="167" y="493" type="curve" smooth="yes"/>
      <point x="167" y="351"/>
      <point x="164" y="122"/>
      <point x="168" y="0" type="curve"/>
      <point x="146" y="3"/>
      <point x="95" y="3"/>
      <point x="73" y="5" type="curve"/>
      <point x="86" y="85"/>
      <point x="90" y="148"/>
      <point x="92" y="240" type="curve" smooth="yes"/>
      <point x="96" y="399"/>
      <point x="93" y="586"/>
      <point x="91" y="617" type="curve"/>
      <point x="71" y="612"/>
      <point x="26" y="609"/>
      <point x="14" y="606" type="curve"/>
      <point x="14" y="619"/>
      <point x="11" y="669"/>
      <point x="9" y="677" type="curve"/>
      <point x="26" y="678"/>
      <point x="112" y="687"/>
      <point x="134" y="691" type="curve"/>
      <point x="141" y="689"/>
      <point x="168" y="681"/>
    </contour>
  </outline>
</glyph>
<glyph name="two" format="1">
  <advance width="339"/>
  <unicode hex="0032"/>
  <outline>
    <contour>
      <point x="306" y="77" type="curve"/>
      <point x="301" y="58"/>
      <point x="296" y="18"/>
      <point x="293" y="-5" type="curve"/>
      <point x="275" y="-1"/>
      <point x="207" y="2"/>
      <point x="152" y="0" type="curve" smooth="yes"/>
      <point x="105" y="-2"/>
      <point x="60" y="-7"/>
      <point x="40" y="-10" type="curve"/>
      <point x="38" y="3"/>
      <point x="25" y="31"/>
      <point x="21" y="40" type="curve"/>
      <point x="168" y="279"/>
      <point x="197" y="410"/>
      <point x="197" y="512" type="curve" smooth="yes"/>
      <point x="197" y="593"/>
      <point x="175" y="612"/>
      <point x="115" y="612" type="curve" smooth="yes"/>
      <point x="105" y="612"/>
      <point x="63" y="598"/>
      <point x="48" y="587" type="curve"/>
      <point x="41" y="605"/>
      <point x="30" y="625"/>
      <point x="14" y="646" type="curve"/>
      <point x="42" y="665"/>
      <point x="85" y="683"/>
      <point x="144" y="683" type="curve" smooth="yes"/>
      <point x="249" y="683"/>
      <point x="280" y="644"/>
      <point x="280" y="541" type="curve" smooth="yes"/>
      <point x="280" y="436"/>
      <point x="249" y="296"/>
      <point x="129" y="75" type="curve"/>
      <point x="142" y="77"/>
      <point x="169" y="77"/>
      <point x="169" y="77" type="curve"/>
      <point x="193" y="75"/>
      <point x="263" y="76"/>
    </contour>
  </outline>
</glyph>
<glyph name="three" format="1">
  <advance width="344"/>
  <unicode hex="0033"/>
  <outline>
    <contour>
      <point x="317" y="289" type="curve" smooth="yes"/>
      <point x="317" y="137"/>
      <point x="223" y="-10"/>
      <point x="123" y="-10" type="curve" smooth="yes"/>
      <point x="103" y="-10"/>
      <point x="58" y="1"/>
      <point x="19" y="13" type="curve"/>
      <point x="25" y="29"/>
      <point x="37" y="73"/>
      <point x="39" y="84" type="curve"/>
      <point x="63" y="71"/>
      <point x="91" y="65"/>
      <point x="118" y="65" type="curve" smooth="yes"/>
      <point x="181" y="65"/>
      <point x="239" y="153"/>
      <point x="239" y="277" type="curve" smooth="yes"/>
      <point x="239" y="340"/>
      <point x="158" y="363"/>
      <point x="98" y="365" type="curve"/>
      <point x="93" y="380"/>
      <point x="81" y="406"/>
      <point x="77" y="413" type="curve"/>
      <point x="135" y="490"/>
      <point x="189" y="557"/>
      <point x="209" y="611" type="curve"/>
      <point x="181" y="611"/>
      <point x="60" y="606"/>
      <point x="40" y="600" type="curve"/>
      <point x="38" y="622"/>
      <point x="32" y="650"/>
      <point x="28" y="670" type="curve"/>
      <point x="50" y="675"/>
      <point x="200" y="683"/>
      <point x="266" y="685" type="curve"/>
      <point x="279" y="671"/>
      <point x="292" y="658"/>
      <point x="305" y="649" type="curve"/>
      <point x="276" y="557"/>
      <point x="241" y="513"/>
      <point x="175" y="423" type="curve"/>
      <point x="243" y="409"/>
      <point x="317" y="373"/>
    </contour>
  </outline>
</glyph>
<glyph name="four" format="1">
  <advance width="362"/>
  <unicode hex="0034"/>
  <outline>
    <contour>
      <point x="342" y="148" type="curve"/>
      <point x="332" y="149"/>
      <point x="307" y="149"/>
      <point x="297" y="150" type="curve"/>
      <point x="295" y="112"/>
      <point x="292" y="56"/>
      <point x="295" y="-11" type="curve"/>
      <point x="275" y="-8"/>
      <point x="229" y="-4"/>
      <point x="212" y="-4" type="curve"/>
      <point x="216" y="25"/>
      <point x="221" y="126"/>
      <point x="220" y="150" type="curve"/>
      <point x="33" y="153" type="line"/>
      <point x="24" y="177"/>
      <point x="16" y="190"/>
      <point x="10" y="207" type="curve"/>
      <point x="35" y="261"/>
      <point x="117" y="537"/>
      <point x="169" y="691" type="curve"/>
      <point x="179" y="686"/>
      <point x="217" y="675"/>
      <point x="240" y="673" type="curve"/>
      <point x="194" y="512"/>
      <point x="124" y="287"/>
      <point x="94" y="217" type="curve"/>
      <point x="115" y="217"/>
      <point x="206" y="215"/>
      <point x="220" y="215" type="curve"/>
      <point x="218" y="238"/>
      <point x="218" y="295"/>
      <point x="219" y="313" type="curve" smooth="yes"/>
      <point x="223" y="355"/>
      <point x="227" y="436"/>
      <point x="235" y="486" type="curve"/>
      <point x="235" y="486"/>
      <point x="269" y="488"/>
      <point x="291" y="493" type="curve"/>
      <point x="291" y="459"/>
      <point x="293" y="410"/>
      <point x="293" y="364" type="curve" smooth="yes"/>
      <point x="293" y="333"/>
      <point x="292" y="253"/>
      <point x="288" y="224" type="curve"/>
      <point x="301" y="224"/>
      <point x="325" y="222"/>
      <point x="341" y="220" type="curve"/>
      <point x="341" y="202"/>
      <point x="340" y="175"/>
    </contour>
  </outline>
</glyph>
<glyph name="five" format="1">
  <advance width="327"/>
  <unicode hex="0035"/>
  <outline>
    <contour>
      <point x="289" y="233" type="curve" smooth="yes"/>
      <point x="289" y="99"/>
      <point x="218" y="35"/>
      <point x="73" y="-24" type="curve"/>
      <point x="65" y="-11"/>
      <point x="45" y="19"/>
      <point x="38" y="29" type="curve"/>
      <point x="148" y="84"/>
      <point x="208" y="136"/>
      <point x="208" y="216" type="curve" smooth="yes"/>
      <point x="208" y="314"/>
      <point x="127" y="379"/>
      <point x="40" y="373" type="curve"/>
      <point x="44" y="435"/>
      <point x="48" y="490"/>
      <point x="51" y="559" type="curve" smooth="yes"/>
      <point x="53" y="610"/>
      <point x="54" y="656"/>
      <point x="54" y="690" type="curve"/>
      <point x="98" y="685"/>
      <point x="228" y="680"/>
      <point x="283" y="680" type="curve"/>
      <point x="277" y="656"/>
      <point x="276" y="626"/>
      <point x="273" y="597" type="curve"/>
      <point x="231" y="601"/>
      <point x="164" y="609"/>
      <point x="130" y="615" type="curve"/>
      <point x="130" y="574"/>
      <point x="122" y="481"/>
      <point x="117" y="439" type="curve"/>
      <point x="225" y="418"/>
      <point x="289" y="352"/>
    </contour>
  </outline>
</glyph>
<glyph name="six" format="1">
  <advance width="370"/>
  <unicode hex="0036"/>
  <outline>
    <contour>
      <point x="342" y="226" type="curve" smooth="yes"/>
      <point x="342" y="90"/>
      <point x="249" y="-10"/>
      <point x="172" y="-10" type="curve" smooth="yes"/>
      <point x="83" y="-10"/>
      <point x="25" y="61"/>
      <point x="25" y="309" type="curve" smooth="yes"/>
      <point x="25" y="433"/>
      <point x="114" y="597"/>
      <point x="211" y="690" type="curve"/>
      <point x="229" y="673"/>
      <point x="248" y="660"/>
      <point x="273" y="646" type="curve"/>
      <point x="188" y="567"/>
      <point x="129" y="463"/>
      <point x="112" y="364" type="curve"/>
      <point x="140" y="388"/>
      <point x="189" y="410"/>
      <point x="233" y="410" type="curve" smooth="yes"/>
      <point x="304" y="410"/>
      <point x="342" y="354"/>
    </contour>
    <contour>
      <point x="263" y="228" type="curve" smooth="yes"/>
      <point x="263" y="311"/>
      <point x="246" y="337"/>
      <point x="212" y="337" type="curve" smooth="yes"/>
      <point x="176" y="337"/>
      <point x="132" y="316"/>
      <point x="106" y="296" type="curve"/>
      <point x="107" y="115"/>
      <point x="130" y="66"/>
      <point x="187" y="66" type="curve" smooth="yes"/>
      <point x="217" y="66"/>
      <point x="263" y="130"/>
    </contour>
  </outline>
</glyph>
<glyph name="seven" format="1">
  <advance width="330"/>
  <unicode hex="0037"/>
  <outline>
    <contour>
      <point x="308" y="668" type="curve"/>
      <point x="276" y="570"/>
      <point x="161" y="89"/>
      <point x="150" y="-14" type="curve"/>
      <point x="131" y="-8"/>
      <point x="89" y="-1"/>
      <point x="72" y="1" type="curve"/>
      <point x="83" y="95"/>
      <point x="198" y="537"/>
      <point x="219" y="596" type="curve"/>
      <point x="189" y="596"/>
      <point x="68" y="605"/>
      <point x="26" y="603" type="curve"/>
      <point x="26" y="631"/>
      <point x="29" y="668"/>
      <point x="26" y="681" type="curve"/>
      <point x="76" y="677"/>
      <point x="236" y="664"/>
    </contour>
  </outline>
</glyph>
<glyph name="eight" format="1">
  <advance width="363"/>
  <unicode hex="0038"/>
  <outline>
    <contour>
      <point x="338" y="236" type="curve" smooth="yes"/>
      <point x="338" y="112"/>
      <point x="259" y="-10"/>
      <point x="172" y="-10" type="curve" smooth="yes"/>
      <point x="89" y="-10"/>
      <point x="25" y="78"/>
      <point x="25" y="201" type="curve" smooth="yes"/>
      <point x="25" y="261"/>
      <point x="56" y="320"/>
      <point x="100" y="362" type="curve"/>
      <point x="60" y="397"/>
      <point x="29" y="444"/>
      <point x="29" y="509" type="curve" smooth="yes"/>
      <point x="29" y="653"/>
      <point x="138" y="683"/>
      <point x="181" y="683" type="curve" smooth="yes"/>
      <point x="256" y="683"/>
      <point x="332" y="639"/>
      <point x="332" y="506" type="curve" smooth="yes"/>
      <point x="332" y="447"/>
      <point x="296" y="384"/>
      <point x="260" y="347" type="curve"/>
      <point x="304" y="319"/>
      <point x="338" y="287"/>
    </contour>
    <contour>
      <point x="257" y="502" type="curve" smooth="yes"/>
      <point x="257" y="553"/>
      <point x="237" y="617"/>
      <point x="175" y="617" type="curve" smooth="yes"/>
      <point x="147" y="617"/>
      <point x="101" y="589"/>
      <point x="101" y="512" type="curve" smooth="yes"/>
      <point x="101" y="452"/>
      <point x="148" y="418"/>
      <point x="200" y="386" type="curve"/>
      <point x="228" y="413"/>
      <point x="257" y="461"/>
    </contour>
    <contour>
      <point x="264" y="223" type="curve" smooth="yes"/>
      <point x="264" y="260"/>
      <point x="212" y="284"/>
      <point x="156" y="320" type="curve"/>
      <point x="133" y="293"/>
      <point x="102" y="250"/>
      <point x="102" y="212" type="curve" smooth="yes"/>
      <point x="102" y="86"/>
      <point x="142" y="67"/>
      <point x="177" y="67" type="curve" smooth="yes"/>
      <point x="206" y="67"/>
      <point x="264" y="114"/>
    </contour>
  </outline>
</glyph>
<glyph name="nine" format="1">
  <advance width="342"/>
  <unicode hex="0039"/>
  <outline>
    <contour>
      <point x="312" y="462" type="curve" smooth="yes"/>
      <point x="312" y="215"/>
      <point x="214" y="75"/>
      <point x="144" y="-25" type="curve"/>
      <point x="121" y="-12"/>
      <point x="99" y="4"/>
      <point x="77" y="16" type="curve"/>
      <point x="132" y="81"/>
      <point x="177" y="150"/>
      <point x="204" y="238" type="curve"/>
      <point x="57" y="293"/>
      <point x="15" y="385"/>
      <point x="15" y="479" type="curve" smooth="yes"/>
      <point x="15" y="607"/>
      <point x="93" y="683"/>
      <point x="173" y="683" type="curve" smooth="yes"/>
      <point x="264" y="683"/>
      <point x="312" y="606"/>
    </contour>
    <contour>
      <point x="233" y="454" type="curve" smooth="yes"/>
      <point x="233" y="544"/>
      <point x="212" y="607"/>
      <point x="165" y="607" type="curve" smooth="yes"/>
      <point x="130" y="607"/>
      <point x="94" y="563"/>
      <point x="94" y="476" type="curve" smooth="yes"/>
      <point x="94" y="399"/>
      <point x="150" y="335"/>
      <point x="222" y="314" type="curve"/>
      <point x="229" y="356"/>
      <point x="233" y="402"/>
    </contour>
  </outline>
</glyph>
<glyph name="colon" format="1">
  <advance width="157"/>
  <unicode hex="003A"/>
  <outline>
    <contour>
      <point x="129" y="410" type="curve" smooth="yes"/>
      <point x="129" y="383"/>
      <point x="112" y="359"/>
      <point x="81" y="359" type="curve" smooth="yes"/>
      <point x="52" y="359"/>
      <point x="27" y="381"/>
      <point x="27" y="410" type="curve" smooth="yes"/>
      <point x="27" y="441"/>
      <point x="50" y="459"/>
      <point x="80" y="459" type="curve" smooth="yes"/>
      <point x="108" y="459"/>
      <point x="129" y="438"/>
    </contour>
    <contour>
      <point x="129" y="44" type="curve" smooth="yes"/>
      <point x="129" y="18"/>
      <point x="112" y="-6"/>
      <point x="81" y="-6" type="curve" smooth="yes"/>
      <point x="52" y="-6"/>
      <point x="27" y="15"/>
      <point x="27" y="45" type="curve" smooth="yes"/>
      <point x="27" y="75"/>
      <point x="50" y="94"/>
      <point x="80" y="94" type="curve" smooth="yes"/>
      <point x="108" y="94"/>
      <point x="129" y="73"/>
    </contour>
  </outline>
</glyph>
<glyph name="semicolon" format="1">
  <advance width="157"/>
  <unicode hex="003B"/>
  <outline>
    <contour>
      <point x="129" y="410" type="curve" smooth="yes"/>
      <point x="129" y="383"/>
      <point x="112" y="359"/>
      <point x="81" y="359" type="curve" smooth="yes"/>
      <point x="52" y="359"/>
      <point x="27" y="381"/>
      <point x="27" y="410" type="curve" smooth="yes"/>
      <point x="27" y="441"/>
      <point x="50" y="459"/>
      <point x="80" y="459" type="curve" smooth="yes"/>
      <point x="108" y="459"/>
      <point x="129" y="438"/>
    </contour>
    <contour>
      <point x="123" y="4" type="curve" smooth="yes"/>
      <point x="123" y="-52"/>
      <point x="105" y="-105"/>
      <point x="69" y="-137" type="curve"/>
      <point x="25" y="-115" type="line"/>
      <point x="41" y="-95"/>
      <point x="51" y="-48"/>
      <point x="51" y="-11" type="curve" smooth="yes"/>
      <point x="51" y="16"/>
      <point x="46" y="46"/>
      <point x="36" y="67" type="curve"/>
      <point x="58" y="68"/>
      <point x="81" y="74"/>
      <point x="111" y="80" type="curve"/>
      <point x="119" y="56"/>
      <point x="123" y="30"/>
    </contour>
  </outline>
</glyph>
<glyph name="less" format="1">
  <advance width="258"/>
  <unicode hex="003C"/>
  <outline>
    <contour>
      <point x="230" y="127" type="curve"/>
      <point x="214" y="118"/>
      <point x="187" y="96"/>
      <point x="174" y="83" type="curve"/>
      <point x="153" y="115"/>
      <point x="39" y="267"/>
      <point x="19" y="287" type="curve"/>
      <point x="19" y="349" type="line"/>
      <point x="53" y="393"/>
      <point x="140" y="525"/>
      <point x="151" y="546" type="curve"/>
      <point x="162" y="535"/>
      <point x="195" y="516"/>
      <point x="211" y="508" type="curve"/>
      <point x="193" y="482"/>
      <point x="116" y="355"/>
      <point x="96" y="316" type="curve"/>
      <point x="117" y="283"/>
      <point x="213" y="147"/>
    </contour>
  </outline>
</glyph>
<glyph name="equal" format="1">
  <advance width="298"/>
  <unicode hex="003D"/>
  <outline>
    <contour>
      <point x="281" y="431" type="curve"/>
      <point x="279" y="403"/>
      <point x="276" y="372"/>
      <point x="276" y="353" type="curve"/>
      <point x="234" y="352"/>
      <point x="40" y="351"/>
      <point x="17" y="348" type="curve"/>
      <point x="17" y="377"/>
      <point x="19" y="410"/>
      <point x="14" y="435" type="curve"/>
      <point x="44" y="431"/>
      <point x="243" y="428"/>
    </contour>
    <contour>
      <point x="280" y="281" type="curve"/>
      <point x="275" y="256"/>
      <point x="277" y="223"/>
      <point x="277" y="194" type="curve"/>
      <point x="254" y="197"/>
      <point x="60" y="198"/>
      <point x="18" y="199" type="curve"/>
      <point x="18" y="218"/>
      <point x="15" y="249"/>
      <point x="13" y="277" type="curve"/>
      <point x="51" y="274"/>
      <point x="250" y="277"/>
    </contour>
  </outline>
</glyph>
<glyph name="greater" format="1">
  <advance width="258"/>
  <unicode hex="003E"/>
  <outline>
    <contour>
      <point x="239" y="283" type="line"/>
      <point x="205" y="239"/>
      <point x="118" y="107"/>
      <point x="107" y="86" type="curve"/>
      <point x="96" y="97"/>
      <point x="63" y="116"/>
      <point x="47" y="124" type="curve"/>
      <point x="65" y="150"/>
      <point x="142" y="277"/>
      <point x="162" y="316" type="curve"/>
      <point x="141" y="349"/>
      <point x="45" y="485"/>
      <point x="28" y="505" type="curve"/>
      <point x="44" y="514"/>
      <point x="71" y="536"/>
      <point x="84" y="549" type="curve"/>
      <point x="105" y="517"/>
      <point x="219" y="365"/>
      <point x="239" y="345" type="curve"/>
    </contour>
  </outline>
</glyph>
<glyph name="question" format="1">
  <advance width="272"/>
  <unicode hex="003F"/>
  <outline>
    <contour>
      <point x="238" y="518" type="curve" smooth="yes"/>
      <point x="238" y="453"/>
      <point x="201" y="363"/>
      <point x="134" y="240" type="curve"/>
      <point x="165" y="155" type="line"/>
      <point x="104" y="129" type="line"/>
      <point x="62" y="249" type="line"/>
      <point x="122" y="348"/>
      <point x="158" y="434"/>
      <point x="158" y="489" type="curve" smooth="yes"/>
      <point x="158" y="551"/>
      <point x="113" y="579"/>
      <point x="28" y="596" type="curve"/>
      <point x="36" y="613"/>
      <point x="49" y="652"/>
      <point x="56" y="670" type="curve"/>
      <point x="181" y="643"/>
      <point x="238" y="599"/>
    </contour>
    <contour>
      <point x="173" y="43" type="curve" smooth="yes"/>
      <point x="173" y="18"/>
      <point x="158" y="-5"/>
      <point x="127" y="-5" type="curve" smooth="yes"/>
      <point x="98" y="-5"/>
      <point x="74" y="15"/>
      <point x="74" y="44" type="curve" smooth="yes"/>
      <point x="74" y="73"/>
      <point x="96" y="92"/>
      <point x="125" y="92" type="curve" smooth="yes"/>
      <point x="153" y="92"/>
      <point x="173" y="71"/>
    </contour>
  </outline>
</glyph>
<glyph name="at" format="1">
  <advance width="583"/>
  <unicode hex="0040"/>
  <outline>
    <contour>
      <point x="553" y="322" type="curve" smooth="yes"/>
      <point x="553" y="151"/>
      <point x="465" y="130"/>
      <point x="433" y="130" type="curve" smooth="yes"/>
      <point x="382" y="130"/>
      <point x="335" y="156"/>
      <point x="329" y="216" type="curve"/>
      <point x="316" y="199"/>
      <point x="279" y="173"/>
      <point x="247" y="173" type="curve" smooth="yes"/>
      <point x="223" y="173"/>
      <point x="186" y="209"/>
      <point x="186" y="269" type="curve" smooth="yes"/>
      <point x="186" y="299"/>
      <point x="199" y="334"/>
      <point x="229" y="349" type="curve" smooth="yes"/>
      <point x="274" y="372"/>
      <point x="313" y="382"/>
      <point x="331" y="388" type="curve"/>
      <point x="330" y="422"/>
      <point x="327" y="435"/>
      <point x="312" y="443" type="curve" smooth="yes"/>
      <point x="296" y="452"/>
      <point x="270" y="455"/>
      <point x="244" y="455" type="curve"/>
      <point x="244" y="455"/>
      <point x="247" y="491"/>
      <point x="247" y="505" type="curve"/>
      <point x="282" y="501"/>
      <point x="332" y="491"/>
      <point x="351" y="480" type="curve" smooth="yes"/>
      <point x="371" y="468"/>
      <point x="379" y="436"/>
      <point x="379" y="417" type="curve" smooth="yes"/>
      <point x="379" y="413"/>
      <point x="379" y="311"/>
      <point x="379" y="243" type="curve" smooth="yes"/>
      <point x="379" y="198"/>
      <point x="397" y="177"/>
      <point x="430" y="177" type="curve" smooth="yes"/>
      <point x="458" y="177"/>
      <point x="501" y="195"/>
      <point x="501" y="324" type="curve" smooth="yes"/>
      <point x="501" y="477"/>
      <point x="399" y="622"/>
      <point x="289" y="622" type="curve" smooth="yes"/>
      <point x="169" y="622"/>
      <point x="85" y="495"/>
      <point x="85" y="356" type="curve" smooth="yes"/>
      <point x="85" y="217"/>
      <point x="160" y="33"/>
      <point x="275" y="33" type="curve" smooth="yes"/>
      <point x="322" y="33"/>
      <point x="363" y="48"/>
      <point x="388" y="64" type="curve"/>
      <point x="412" y="25" type="line"/>
      <point x="383" y="6"/>
      <point x="325" y="-15"/>
      <point x="262" y="-15" type="curve" smooth="yes"/>
      <point x="127" y="-15"/>
      <point x="30" y="195"/>
      <point x="30" y="349" type="curve" smooth="yes"/>
      <point x="30" y="495"/>
      <point x="123" y="670"/>
      <point x="278" y="670" type="curve" smooth="yes"/>
      <point x="425" y="670"/>
      <point x="553" y="512"/>
    </contour>
    <contour>
      <point x="330" y="345" type="curve"/>
      <point x="326" y="341"/>
      <point x="286" y="329"/>
      <point x="272" y="322" type="curve" smooth="yes"/>
      <point x="261" y="316"/>
      <point x="239" y="299"/>
      <point x="239" y="280" type="curve" smooth="yes"/>
      <point x="239" y="243"/>
      <point x="248" y="227"/>
      <point x="267" y="226" type="curve" smooth="yes"/>
      <point x="291" y="224"/>
      <point x="323" y="258"/>
      <point x="326" y="263" type="curve"/>
      <point x="328" y="270"/>
      <point x="331" y="339"/>
    </contour>
  </outline>
</glyph>
<glyph name="B" format="1">
  <advance width="366"/>
  <unicode hex="0042"/>
  <outline>
    <contour>
      <point x="346" y="208" type="curve" smooth="yes"/>
      <point x="346" y="108"/>
      <point x="272" y="3"/>
      <point x="131" y="3" type="curve" smooth="yes"/>
      <point x="110" y="3"/>
      <point x="73" y="5"/>
      <point x="49" y="5" type="curve"/>
      <point x="55" y="73"/>
      <point x="52" y="342"/>
      <point x="51" y="376" type="curve" smooth="yes"/>
      <point x="50" y="411"/>
      <point x="51" y="467"/>
      <point x="49" y="524" type="curve" smooth="yes"/>
      <point x="47" y="579"/>
      <point x="47" y="647"/>
      <point x="45" y="664" type="curve"/>
      <point x="57" y="664"/>
      <point x="77" y="666"/>
      <point x="118" y="666" type="curve" smooth="yes"/>
      <point x="233" y="666"/>
      <point x="328" y="591"/>
      <point x="328" y="506" type="curve" smooth="yes"/>
      <point x="328" y="404"/>
      <point x="292" y="371"/>
      <point x="255" y="347" type="curve"/>
      <point x="306" y="315"/>
      <point x="346" y="280"/>
    </contour>
    <contour>
      <point x="253" y="481" type="curve" smooth="yes"/>
      <point x="253" y="546"/>
      <point x="203" y="587"/>
      <point x="129" y="591" type="curve"/>
      <point x="128" y="578"/>
      <point x="127" y="416"/>
      <point x="127" y="377" type="curve"/>
      <point x="133" y="376"/>
      <point x="139" y="375"/>
      <point x="145" y="375" type="curve" smooth="yes"/>
      <point x="198" y="375"/>
      <point x="253" y="406"/>
    </contour>
    <contour>
      <point x="262" y="197" type="curve" smooth="yes"/>
      <point x="262" y="265"/>
      <point x="215" y="311"/>
      <point x="131" y="311" type="curve"/>
      <point x="129" y="285"/>
      <point x="129" y="236"/>
      <point x="129" y="183" type="curve" smooth="yes"/>
      <point x="129" y="141"/>
      <point x="127" y="112"/>
      <point x="129" y="75" type="curve"/>
      <point x="141" y="71"/>
      <point x="154" y="71"/>
      <point x="167" y="71" type="curve" smooth="yes"/>
      <point x="218" y="71"/>
      <point x="262" y="133"/>
    </contour>
  </outline>
</glyph>
<glyph name="C" format="1">
  <advance width="353"/>
  <unicode hex="0043"/>
  <outline>
    <contour>
      <point x="328" y="67" type="curve"/>
      <point x="323" y="49"/>
      <point x="320" y="23"/>
      <point x="318" y="-7" type="curve"/>
      <point x="81" y="32"/>
      <point x="32" y="137"/>
      <point x="32" y="344" type="curve" smooth="yes"/>
      <point x="32" y="515"/>
      <point x="113" y="670"/>
      <point x="268" y="671" type="curve" smooth="yes"/>
      <point x="284" y="671"/>
      <point x="302" y="670"/>
      <point x="320" y="668" type="curve"/>
      <point x="318" y="651"/>
      <point x="320" y="626"/>
      <point x="322" y="604" type="curve"/>
      <point x="317" y="604"/>
      <point x="313" y="604"/>
      <point x="308" y="604" type="curve" smooth="yes"/>
      <point x="209" y="604"/>
      <point x="118" y="548"/>
      <point x="118" y="342" type="curve" smooth="yes"/>
      <point x="118" y="163"/>
      <point x="162" y="88"/>
    </contour>
  </outline>
</glyph>
<glyph name="D" format="1">
  <advance width="420"/>
  <unicode hex="0044"/>
  <outline>
    <contour>
      <point x="388" y="383" type="curve" smooth="yes"/>
      <point x="388" y="143"/>
      <point x="267" y="-2"/>
      <point x="140" y="-2" type="curve" smooth="yes"/>
      <point x="104" y="-2"/>
      <point x="67" y="7"/>
      <point x="44" y="15" type="curve"/>
      <point x="50" y="49"/>
      <point x="51" y="339"/>
      <point x="51" y="397" type="curve" smooth="yes"/>
      <point x="51" y="503"/>
      <point x="48" y="633"/>
      <point x="45" y="667" type="curve"/>
      <point x="71" y="675"/>
      <point x="106" y="675"/>
      <point x="133" y="675" type="curve" smooth="yes"/>
      <point x="288" y="675"/>
      <point x="388" y="596"/>
    </contour>
    <contour>
      <point x="305" y="379" type="curve" smooth="yes"/>
      <point x="305" y="579"/>
      <point x="229" y="602"/>
      <point x="129" y="604" type="curve"/>
      <point x="129" y="436"/>
      <point x="127" y="200"/>
      <point x="131" y="74" type="curve"/>
      <point x="138" y="72"/>
      <point x="145" y="71"/>
      <point x="152" y="71" type="curve" smooth="yes"/>
      <point x="252" y="71"/>
      <point x="305" y="222"/>
    </contour>
  </outline>
</glyph>
<glyph name="E" format="1">
  <advance width="357"/>
  <unicode hex="0045"/>
  <outline>
    <contour>
      <point x="329" y="72" type="curve"/>
      <point x="328" y="61"/>
      <point x="321" y="19"/>
      <point x="317" y="-6" type="curve"/>
      <point x="307" y="-4"/>
      <point x="254" y="-3"/>
      <point x="214" y="-2" type="curve" smooth="yes"/>
      <point x="147" y="1"/>
      <point x="74" y="3"/>
      <point x="41" y="4" type="curve"/>
      <point x="42" y="44"/>
      <point x="50" y="183"/>
      <point x="52" y="298" type="curve" smooth="yes"/>
      <point x="55" y="441"/>
      <point x="51" y="611"/>
      <point x="50" y="661" type="curve"/>
      <point x="71" y="663"/>
      <point x="135" y="666"/>
      <point x="158" y="666" type="curve" smooth="yes"/>
      <point x="191" y="666"/>
      <point x="302" y="662"/>
      <point x="323" y="662" type="curve"/>
      <point x="319" y="646"/>
      <point x="314" y="604"/>
      <point x="312" y="582" type="curve"/>
      <point x="294" y="585"/>
      <point x="226" y="590"/>
      <point x="190" y="593" type="curve" smooth="yes"/>
      <point x="168" y="595"/>
      <point x="145" y="594"/>
      <point x="133" y="593" type="curve"/>
      <point x="131" y="520"/>
      <point x="133" y="465"/>
      <point x="133" y="393" type="curve"/>
      <point x="150" y="392"/>
      <point x="173" y="392"/>
      <point x="192" y="392" type="curve" smooth="yes"/>
      <point x="209" y="392"/>
      <point x="278" y="399"/>
      <point x="295" y="399" type="curve"/>
      <point x="295" y="384"/>
      <point x="293" y="341"/>
      <point x="293" y="318" type="curve"/>
      <point x="269" y="317"/>
      <point x="222" y="318"/>
      <point x="199" y="320" type="curve" smooth="yes"/>
      <point x="180" y="321"/>
      <point x="145" y="320"/>
      <point x="134" y="323" type="curve"/>
      <point x="130" y="259"/>
      <point x="134" y="150"/>
      <point x="134" y="80" type="curve"/>
      <point x="151" y="75"/>
      <point x="184" y="76"/>
      <point x="191" y="76" type="curve" smooth="yes"/>
      <point x="209" y="75"/>
      <point x="301" y="71"/>
    </contour>
  </outline>
</glyph>
<glyph name="F" format="1">
  <advance width="305"/>
  <unicode hex="0046"/>
  <outline>
    <contour>
      <point x="275" y="589" type="curve"/>
      <point x="234" y="589"/>
      <point x="163" y="592"/>
      <point x="129" y="592" type="curve"/>
      <point x="129" y="576"/>
      <point x="132" y="541"/>
      <point x="133" y="509" type="curve" smooth="yes"/>
      <point x="134" y="454"/>
      <point x="133" y="399"/>
      <point x="133" y="367" type="curve"/>
      <point x="153" y="366"/>
      <point x="193" y="369"/>
      <point x="219" y="369" type="curve" smooth="yes"/>
      <point x="238" y="369"/>
      <point x="268" y="368"/>
      <point x="268" y="368" type="curve"/>
      <point x="268" y="368"/>
      <point x="260" y="321"/>
      <point x="259" y="296" type="curve"/>
      <point x="250" y="297"/>
      <point x="231" y="298"/>
      <point x="214" y="299" type="curve" smooth="yes"/>
      <point x="188" y="301"/>
      <point x="154" y="301"/>
      <point x="135" y="303" type="curve"/>
      <point x="135" y="277"/>
      <point x="134" y="255"/>
      <point x="134" y="219" type="curve" smooth="yes"/>
      <point x="134" y="133"/>
      <point x="128" y="57"/>
      <point x="130" y="-1" type="curve"/>
      <point x="116" y="3"/>
      <point x="64" y="11"/>
      <point x="40" y="13" type="curve"/>
      <point x="43" y="103"/>
      <point x="52" y="303"/>
      <point x="52" y="490" type="curve" smooth="yes"/>
      <point x="52" y="557"/>
      <point x="50" y="586"/>
      <point x="48" y="662" type="curve"/>
      <point x="102" y="662"/>
      <point x="237" y="661"/>
      <point x="274" y="663" type="curve"/>
      <point x="274" y="644"/>
      <point x="273" y="615"/>
    </contour>
  </outline>
</glyph>
<glyph name="G" format="1">
  <advance width="406"/>
  <unicode hex="0047"/>
  <outline>
    <contour>
      <point x="367" y="365" type="curve"/>
      <point x="365" y="323"/>
      <point x="356" y="145"/>
      <point x="356" y="22" type="curve"/>
      <point x="327" y="2"/>
      <point x="274" y="-6"/>
      <point x="252" y="-6" type="curve" smooth="yes"/>
      <point x="127" y="-6"/>
      <point x="32" y="104"/>
      <point x="32" y="340" type="curve" smooth="yes"/>
      <point x="32" y="623"/>
      <point x="196" y="660"/>
      <point x="351" y="660" type="curve"/>
      <point x="352" y="640"/>
      <point x="357" y="615"/>
      <point x="365" y="585" type="curve"/>
      <point x="355" y="586"/>
      <point x="345" y="586"/>
      <point x="334" y="586" type="curve" smooth="yes"/>
      <point x="241" y="586"/>
      <point x="112" y="556"/>
      <point x="112" y="339" type="curve" smooth="yes"/>
      <point x="112" y="175"/>
      <point x="158" y="74"/>
      <point x="261" y="74" type="curve" smooth="yes"/>
      <point x="271" y="74"/>
      <point x="279" y="74"/>
      <point x="284" y="76" type="curve"/>
      <point x="282" y="152"/>
      <point x="281" y="266"/>
      <point x="277" y="294" type="curve"/>
      <point x="258" y="294"/>
      <point x="224" y="298"/>
      <point x="208" y="302" type="curve"/>
      <point x="210" y="328"/>
      <point x="214" y="360"/>
      <point x="210" y="379" type="curve"/>
      <point x="248" y="375"/>
      <point x="327" y="367"/>
    </contour>
  </outline>
</glyph>
<glyph name="H" format="1">
  <advance width="410"/>
  <unicode hex="0048"/>
  <outline>
    <contour>
      <point x="360" y="21" type="line"/>
      <point x="340" y="20"/>
      <point x="296" y="20"/>
      <point x="273" y="16" type="curve"/>
      <point x="277" y="36"/>
      <point x="277" y="72"/>
      <point x="278" y="108" type="curve" smooth="yes"/>
      <point x="281" y="176"/>
      <point x="282" y="233"/>
      <point x="281" y="283" type="curve"/>
      <point x="267" y="283"/>
      <point x="151" y="282"/>
      <point x="131" y="285" type="curve"/>
      <point x="133" y="273"/>
      <point x="132" y="70"/>
      <point x="128" y="-9" type="curve"/>
      <point x="114" y="-2"/>
      <point x="63" y="5"/>
      <point x="43" y="11" type="curve"/>
      <point x="46" y="61"/>
      <point x="50" y="140"/>
      <point x="50" y="191" type="curve" smooth="yes"/>
      <point x="50" y="331"/>
      <point x="51" y="453"/>
      <point x="48" y="550" type="curve" smooth="yes"/>
      <point x="46" y="595"/>
      <point x="47" y="653"/>
      <point x="43" y="666" type="curve"/>
      <point x="61" y="664"/>
      <point x="122" y="664"/>
      <point x="141" y="666" type="curve"/>
      <point x="136" y="649"/>
      <point x="131" y="404"/>
      <point x="133" y="350" type="curve"/>
      <point x="150" y="347"/>
      <point x="267" y="349"/>
      <point x="281" y="354" type="curve"/>
      <point x="281" y="356"/>
      <point x="281" y="378"/>
      <point x="281" y="395" type="curve" smooth="yes"/>
      <point x="280" y="474"/>
      <point x="279" y="580"/>
      <point x="279" y="597" type="curve" smooth="yes"/>
      <point x="279" y="616"/>
      <point x="278" y="644"/>
      <point x="275" y="655" type="curve"/>
      <point x="287" y="656"/>
      <point x="345" y="659"/>
      <point x="360" y="661" type="curve"/>
    </contour>
  </outline>
</glyph>
<glyph name="I" format="1">
  <advance width="180"/>
  <unicode hex="0049"/>
  <outline>
    <contour>
      <point x="136" y="661" type="curve"/>
      <point x="134" y="599"/>
      <point x="125" y="228"/>
      <point x="127" y="-15" type="curve"/>
      <point x="99" y="-7"/>
      <point x="72" y="-8"/>
      <point x="52" y="-8" type="curve"/>
      <point x="52" y="88"/>
      <point x="51" y="502"/>
      <point x="47" y="672" type="curve"/>
      <point x="72" y="666"/>
      <point x="107" y="662"/>
    </contour>
  </outline>
</glyph>
<glyph name="J" format="1">
  <advance width="182"/>
  <unicode hex="004A"/>
  <outline>
    <contour>
      <point x="133" y="119" type="curve" smooth="yes"/>
      <point x="133" y="-63"/>
      <point x="108" y="-131"/>
      <point x="-7" y="-185" type="curve"/>
      <point x="-10" y="-170"/>
      <point x="-25" y="-134"/>
      <point x="-33" y="-118" type="curve"/>
      <point x="47" y="-84"/>
      <point x="55" y="-18"/>
      <point x="55" y="121" type="curve" smooth="yes"/>
      <point x="55" y="201"/>
      <point x="55" y="265"/>
      <point x="53" y="357" type="curve" smooth="yes"/>
      <point x="51" y="481"/>
      <point x="45" y="625"/>
      <point x="44" y="674" type="curve"/>
      <point x="67" y="669"/>
      <point x="106" y="665"/>
      <point x="129" y="664" type="curve"/>
      <point x="128" y="624"/>
      <point x="132" y="502"/>
      <point x="132" y="404" type="curve" smooth="yes"/>
      <point x="132" y="240"/>
      <point x="133" y="166"/>
    </contour>
  </outline>
</glyph>
<glyph name="K" format="1">
  <advance width="406"/>
  <unicode hex="004B"/>
  <outline>
    <contour>
      <point x="391" y="40" type="curve"/>
      <point x="369" y="26"/>
      <point x="341" y="10"/>
      <point x="315" y="-8" type="curve"/>
      <point x="286" y="64"/>
      <point x="218" y="222"/>
      <point x="173" y="318" type="curve"/>
      <point x="158" y="293"/>
      <point x="144" y="271"/>
      <point x="132" y="250" type="curve"/>
      <point x="132" y="154"/>
      <point x="133" y="64"/>
      <point x="134" y="4" type="curve"/>
      <point x="110" y="3"/>
      <point x="74" y="-1"/>
      <point x="45" y="-3" type="curve"/>
      <point x="47" y="59"/>
      <point x="56" y="430"/>
      <point x="54" y="673" type="curve"/>
      <point x="80" y="673"/>
      <point x="109" y="678"/>
      <point x="135" y="680" type="curve"/>
      <point x="135" y="633"/>
      <point x="134" y="513"/>
      <point x="133" y="382" type="curve"/>
      <point x="199" y="491"/>
      <point x="270" y="619"/>
      <point x="305" y="686" type="curve"/>
      <point x="325" y="670"/>
      <point x="345" y="660"/>
      <point x="373" y="644" type="curve"/>
      <point x="345" y="601"/>
      <point x="285" y="502"/>
      <point x="226" y="406" type="curve"/>
      <point x="263" y="315"/>
      <point x="331" y="164"/>
    </contour>
  </outline>
</glyph>
<glyph name="L" format="1">
  <advance width="343"/>
  <unicode hex="004C"/>
  <outline>
    <contour>
      <point x="334" y="72" type="curve"/>
      <point x="330" y="50"/>
      <point x="326" y="22"/>
      <point x="320" y="-8" type="curve"/>
      <point x="308" y="-6"/>
      <point x="265" y="-4"/>
      <point x="230" y="-2" type="curve" smooth="yes"/>
      <point x="166" y="2"/>
      <point x="69" y="3"/>
      <point x="46" y="5" type="curve"/>
      <point x="52" y="73"/>
      <point x="59" y="312"/>
      <point x="52" y="508" type="curve" smooth="yes"/>
      <point x="50" y="568"/>
      <point x="52" y="634"/>
      <point x="49" y="662" type="curve"/>
      <point x="73" y="662"/>
      <point x="115" y="670"/>
      <point x="136" y="673" type="curve"/>
      <point x="138" y="614"/>
      <point x="135" y="136"/>
      <point x="135" y="69" type="curve"/>
      <point x="161" y="71"/>
      <point x="290" y="68"/>
    </contour>
  </outline>
</glyph>
<glyph name="M" format="1">
  <advance width="483"/>
  <unicode hex="004D"/>
  <outline>
    <contour>
      <point x="440" y="-27" type="line"/>
      <point x="422" y="-26"/>
      <point x="377" y="-21"/>
      <point x="359" y="-18" type="curve"/>
      <point x="359" y="59"/>
      <point x="358" y="423"/>
      <point x="355" y="490" type="curve"/>
      <point x="338" y="444"/>
      <point x="293" y="343"/>
      <point x="262" y="268" type="curve"/>
      <point x="246" y="272"/>
      <point x="226" y="279"/>
      <point x="210" y="281" type="curve"/>
      <point x="175" y="374"/>
      <point x="154" y="427"/>
      <point x="130" y="478" type="curve"/>
      <point x="126" y="402"/>
      <point x="120" y="121"/>
      <point x="122" y="16" type="curve"/>
      <point x="98" y="15"/>
      <point x="64" y="9"/>
      <point x="43" y="4" type="curve"/>
      <point x="43" y="52"/>
      <point x="53" y="315"/>
      <point x="58" y="537" type="curve" smooth="yes"/>
      <point x="59" y="588"/>
      <point x="59" y="645"/>
      <point x="60" y="668" type="curve"/>
      <point x="77" y="668"/>
      <point x="117" y="670"/>
      <point x="131" y="671" type="curve"/>
      <point x="134" y="662"/>
      <point x="148" y="629"/>
      <point x="157" y="605" type="curve" smooth="yes"/>
      <point x="189" y="522"/>
      <point x="217" y="455"/>
      <point x="244" y="390" type="curve"/>
      <point x="270" y="450"/>
      <point x="293" y="510"/>
      <point x="316" y="569" type="curve" smooth="yes"/>
      <point x="330" y="604"/>
      <point x="342" y="645"/>
      <point x="347" y="660" type="curve"/>
      <point x="369" y="664"/>
      <point x="397" y="669"/>
      <point x="420" y="676" type="curve"/>
    </contour>
  </outline>
</glyph>
<glyph name="N" format="1">
  <advance width="416"/>
  <unicode hex="004E"/>
  <outline>
    <contour>
      <point x="366" y="2" type="line"/>
      <point x="344" y="4"/>
      <point x="318" y="5"/>
      <point x="297" y="7" type="curve"/>
      <point x="281" y="69"/>
      <point x="149" y="394"/>
      <point x="123" y="452" type="curve"/>
      <point x="119" y="404"/>
      <point x="123" y="335"/>
      <point x="123" y="273" type="curve" smooth="yes"/>
      <point x="122" y="165"/>
      <point x="125" y="6"/>
      <point x="125" y="6" type="curve"/>
      <point x="114" y="9"/>
      <point x="66" y="13"/>
      <point x="38" y="15" type="curve"/>
      <point x="41" y="55"/>
      <point x="52" y="229"/>
      <point x="53" y="366" type="curve" smooth="yes"/>
      <point x="54" y="484"/>
      <point x="48" y="631"/>
      <point x="47" y="669" type="curve"/>
      <point x="61" y="668"/>
      <point x="109" y="671"/>
      <point x="116" y="673" type="curve"/>
      <point x="120" y="650"/>
      <point x="250" y="329"/>
      <point x="295" y="237" type="curve"/>
      <point x="295" y="237"/>
      <point x="298" y="445"/>
      <point x="293" y="571" type="curve" smooth="yes"/>
      <point x="292" y="606"/>
      <point x="289" y="647"/>
      <point x="287" y="660" type="curve"/>
      <point x="312" y="660"/>
      <point x="347" y="665"/>
      <point x="366" y="670" type="curve"/>
    </contour>
  </outline>
</glyph>
<glyph name="O" format="1">
  <advance width="426"/>
  <unicode hex="004F"/>
  <outline>
    <contour>
      <point x="394" y="347" type="curve" smooth="yes"/>
      <point x="394" y="86"/>
      <point x="280" y="-6"/>
      <point x="198" y="-6" type="curve" smooth="yes"/>
      <point x="114" y="-6"/>
      <point x="32" y="109"/>
      <point x="32" y="345" type="curve" smooth="yes"/>
      <point x="32" y="556"/>
      <point x="69" y="670"/>
      <point x="201" y="670" type="curve" smooth="yes"/>
      <point x="302" y="670"/>
      <point x="394" y="593"/>
    </contour>
    <contour>
      <point x="311" y="344" type="curve" smooth="yes"/>
      <point x="311" y="566"/>
      <point x="248" y="594"/>
      <point x="189" y="594" type="curve" smooth="yes"/>
      <point x="131" y="594"/>
      <point x="116" y="483"/>
      <point x="116" y="351" type="curve" smooth="yes"/>
      <point x="116" y="167"/>
      <point x="150" y="72"/>
      <point x="211" y="72" type="curve" smooth="yes"/>
      <point x="259" y="72"/>
      <point x="311" y="198"/>
    </contour>
  </outline>
</glyph>
<glyph name="P" format="1">
  <advance width="371"/>
  <unicode hex="0050"/>
  <outline>
    <contour>
      <point x="356" y="478" type="curve" smooth="yes"/>
      <point x="356" y="390"/>
      <point x="257" y="275"/>
      <point x="134" y="273" type="curve"/>
      <point x="134" y="193"/>
      <point x="134" y="75"/>
      <point x="139" y="21" type="curve"/>
      <point x="107" y="12"/>
      <point x="52" y="-2"/>
      <point x="52" y="-2" type="curve"/>
      <point x="53" y="56"/>
      <point x="55" y="248"/>
      <point x="52" y="427" type="curve" smooth="yes"/>
      <point x="50" y="518"/>
      <point x="43" y="640"/>
      <point x="38" y="660" type="curve"/>
      <point x="60" y="666"/>
      <point x="90" y="670"/>
      <point x="117" y="670" type="curve" smooth="yes"/>
      <point x="233" y="670"/>
      <point x="356" y="635"/>
    </contour>
    <contour>
      <point x="276" y="485" type="curve" smooth="yes"/>
      <point x="276" y="574"/>
      <point x="206" y="595"/>
      <point x="128" y="595" type="curve"/>
      <point x="128" y="565"/>
      <point x="130" y="514"/>
      <point x="132" y="468" type="curve" smooth="yes"/>
      <point x="133" y="432"/>
      <point x="135" y="376"/>
      <point x="135" y="346" type="curve"/>
      <point x="208" y="346"/>
      <point x="276" y="424"/>
    </contour>
  </outline>
</glyph>
<glyph name="Q" format="1">
  <advance width="426"/>
  <unicode hex="0051"/>
  <outline>
    <contour>
      <point x="394" y="367" type="curve" smooth="yes"/>
      <point x="394" y="219"/>
      <point x="353" y="72"/>
      <point x="286" y="19" type="curve"/>
      <point x="309" y="-22"/>
      <point x="337" y="-66"/>
      <point x="369" y="-106" type="curve"/>
      <point x="348" y="-118"/>
      <point x="322" y="-137"/>
      <point x="294" y="-158" type="curve"/>
      <point x="267" y="-104"/>
      <point x="234" y="-44"/>
      <point x="207" y="1" type="curve"/>
      <point x="88" y="23"/>
      <point x="32" y="196"/>
      <point x="32" y="375" type="curve" smooth="yes"/>
      <point x="32" y="546"/>
      <point x="95" y="670"/>
      <point x="222" y="670" type="curve" smooth="yes"/>
      <point x="305" y="670"/>
      <point x="394" y="617"/>
    </contour>
    <contour>
      <point x="311" y="364" type="curve" smooth="yes"/>
      <point x="311" y="540"/>
      <point x="268" y="594"/>
      <point x="209" y="594" type="curve" smooth="yes"/>
      <point x="139" y="594"/>
      <point x="116" y="507"/>
      <point x="116" y="381" type="curve" smooth="yes"/>
      <point x="116" y="197"/>
      <point x="160" y="72"/>
      <point x="221" y="72" type="curve" smooth="yes"/>
      <point x="260" y="72"/>
      <point x="311" y="133"/>
    </contour>
  </outline>
</glyph>
<glyph name="R" format="1">
  <advance width="387"/>
  <unicode hex="0052"/>
  <outline>
    <contour>
      <point x="372" y="27" type="curve"/>
      <point x="354" y="21"/>
      <point x="317" y="2"/>
      <point x="297" y="-5" type="curve"/>
      <point x="266" y="76"/>
      <point x="199" y="218"/>
      <point x="161" y="291" type="curve"/>
      <point x="161" y="291"/>
      <point x="142" y="286"/>
      <point x="126" y="284" type="curve"/>
      <point x="126" y="284"/>
      <point x="126" y="255"/>
      <point x="127" y="200" type="curve" smooth="yes"/>
      <point x="129" y="127"/>
      <point x="131" y="48"/>
      <point x="135" y="13" type="curve"/>
      <point x="115" y="11"/>
      <point x="53" y="1"/>
      <point x="44" y="1" type="curve"/>
      <point x="50" y="51"/>
      <point x="50" y="152"/>
      <point x="50" y="196" type="curve" smooth="yes"/>
      <point x="50" y="220"/>
      <point x="52" y="403"/>
      <point x="52" y="495" type="curve" smooth="yes"/>
      <point x="52" y="582"/>
      <point x="53" y="683"/>
      <point x="53" y="683" type="curve"/>
      <point x="80" y="686"/>
      <point x="94" y="686"/>
      <point x="119" y="686" type="curve" smooth="yes"/>
      <point x="274" y="686"/>
      <point x="333" y="617"/>
      <point x="333" y="527" type="curve" smooth="yes"/>
      <point x="333" y="439"/>
      <point x="297" y="349"/>
      <point x="237" y="319" type="curve"/>
      <point x="260" y="255"/>
      <point x="311" y="165"/>
    </contour>
    <contour>
      <point x="250" y="514" type="curve" smooth="yes"/>
      <point x="250" y="597"/>
      <point x="207" y="619"/>
      <point x="122" y="616" type="curve"/>
      <point x="123" y="568"/>
      <point x="128" y="366"/>
      <point x="127" y="351" type="curve"/>
      <point x="137" y="351"/>
      <point x="163" y="358"/>
      <point x="180" y="365" type="curve" smooth="yes"/>
      <point x="224" y="384"/>
      <point x="250" y="427"/>
    </contour>
  </outline>
</glyph>
<glyph name="S" format="1">
  <advance width="299"/>
  <unicode hex="0053"/>
  <outline>
    <contour>
      <point x="261" y="168" type="curve" smooth="yes"/>
      <point x="261" y="55"/>
      <point x="202" y="-3"/>
      <point x="39" y="-23" type="curve"/>
      <point x="41" y="8"/>
      <point x="40" y="30"/>
      <point x="38" y="61" type="curve"/>
      <point x="129" y="61"/>
      <point x="183" y="101"/>
      <point x="183" y="153" type="curve" smooth="yes"/>
      <point x="183" y="210"/>
      <point x="145" y="265"/>
      <point x="106" y="321" type="curve" smooth="yes"/>
      <point x="65" y="381"/>
      <point x="24" y="441"/>
      <point x="24" y="511" type="curve" smooth="yes"/>
      <point x="24" y="629"/>
      <point x="129" y="679"/>
      <point x="257" y="675" type="curve"/>
      <point x="255" y="654"/>
      <point x="253" y="622"/>
      <point x="255" y="600" type="curve"/>
      <point x="164" y="597"/>
      <point x="107" y="574"/>
      <point x="107" y="522" type="curve" smooth="yes"/>
      <point x="107" y="472"/>
      <point x="142" y="421"/>
      <point x="178" y="366" type="curve" smooth="yes"/>
      <point x="220" y="304"/>
      <point x="261" y="238"/>
    </contour>
  </outline>
</glyph>
<glyph name="T" format="1">
  <advance width="334"/>
  <unicode hex="0054"/>
  <outline>
    <contour>
      <point x="326" y="660" type="curve"/>
      <point x="324" y="651"/>
      <point x="317" y="592"/>
      <point x="316" y="574" type="curve"/>
      <point x="308" y="574"/>
      <point x="206" y="585"/>
      <point x="196" y="586" type="curve"/>
      <point x="197" y="571"/>
      <point x="207" y="330"/>
      <point x="209" y="164" type="curve" smooth="yes"/>
      <point x="210" y="100"/>
      <point x="211" y="54"/>
      <point x="209" y="-1" type="curve"/>
      <point x="183" y="-1"/>
      <point x="142" y="7"/>
      <point x="118" y="7" type="curve"/>
      <point x="122" y="55"/>
      <point x="126" y="163"/>
      <point x="128" y="263" type="curve" smooth="yes"/>
      <point x="131" y="393"/>
      <point x="127" y="525"/>
      <point x="127" y="596" type="curve"/>
      <point x="120" y="594"/>
      <point x="93" y="593"/>
      <point x="72" y="593" type="curve" smooth="yes"/>
      <point x="47" y="593"/>
      <point x="18" y="594"/>
      <point x="8" y="594" type="curve"/>
      <point x="11" y="604"/>
      <point x="18" y="664"/>
      <point x="18" y="673" type="curve"/>
      <point x="29" y="671"/>
      <point x="50" y="670"/>
      <point x="70" y="669" type="curve" smooth="yes"/>
      <point x="171" y="664"/>
      <point x="305" y="660"/>
    </contour>
  </outline>
</glyph>
<glyph name="U" format="1">
  <advance width="408"/>
  <unicode hex="0055"/>
  <outline>
    <contour>
      <point x="358" y="444" type="curve" smooth="yes"/>
      <point x="358" y="331"/>
      <point x="357" y="172"/>
      <point x="357" y="155" type="curve" smooth="yes"/>
      <point x="357" y="0"/>
      <point x="264" y="-6"/>
      <point x="209" y="-6" type="curve" smooth="yes"/>
      <point x="171" y="-6"/>
      <point x="122" y="5"/>
      <point x="99" y="31" type="curve" smooth="yes"/>
      <point x="69" y="64"/>
      <point x="53" y="95"/>
      <point x="53" y="145" type="curve" smooth="yes"/>
      <point x="53" y="170"/>
      <point x="54" y="368"/>
      <point x="50" y="510" type="curve" smooth="yes"/>
      <point x="48" y="570"/>
      <point x="46" y="623"/>
      <point x="45" y="665" type="curve"/>
      <point x="75" y="662"/>
      <point x="108" y="668"/>
      <point x="132" y="671" type="curve"/>
      <point x="129" y="600"/>
      <point x="134" y="172"/>
      <point x="134" y="146" type="curve" smooth="yes"/>
      <point x="134" y="99"/>
      <point x="166" y="69"/>
      <point x="215" y="69" type="curve" smooth="yes"/>
      <point x="265" y="69"/>
      <point x="277" y="84"/>
      <point x="277" y="117" type="curve" smooth="yes"/>
      <point x="277" y="141"/>
      <point x="280" y="329"/>
      <point x="277" y="464" type="curve" smooth="yes"/>
      <point x="275" y="541"/>
      <point x="276" y="626"/>
      <point x="270" y="662" type="curve"/>
      <point x="300" y="662"/>
      <point x="336" y="664"/>
      <point x="357" y="668" type="curve"/>
      <point x="363" y="583"/>
      <point x="358" y="531"/>
    </contour>
  </outline>
</glyph>
<glyph name="V" format="1">
  <advance width="350"/>
  <unicode hex="0056"/>
  <outline>
    <contour>
      <point x="338" y="658" type="curve"/>
      <point x="322" y="548"/>
      <point x="236" y="132"/>
      <point x="214" y="-6" type="curve"/>
      <point x="195" y="-9"/>
      <point x="159" y="-11"/>
      <point x="145" y="-12" type="curve"/>
      <point x="112" y="166"/>
      <point x="28" y="591"/>
      <point x="12" y="665" type="curve"/>
      <point x="34" y="667"/>
      <point x="88" y="683"/>
      <point x="106" y="692" type="curve"/>
      <point x="110" y="640"/>
      <point x="167" y="255"/>
      <point x="179" y="177" type="curve"/>
      <point x="191" y="239"/>
      <point x="252" y="629"/>
      <point x="253" y="677" type="curve"/>
      <point x="277" y="669"/>
      <point x="316" y="660"/>
    </contour>
  </outline>
</glyph>
<glyph name="W" format="1">
  <advance width="595"/>
  <unicode hex="0057"/>
  <outline>
    <contour>
      <point x="583" y="653" type="curve"/>
      <point x="550" y="478"/>
      <point x="496" y="126"/>
      <point x="471" y="-12" type="curve"/>
      <point x="457" y="-15"/>
      <point x="405" y="-18"/>
      <point x="386" y="-19" type="curve"/>
      <point x="372" y="71"/>
      <point x="328" y="312"/>
      <point x="305" y="479" type="curve"/>
      <point x="285" y="330"/>
      <point x="235" y="94"/>
      <point x="216" y="-8" type="curve"/>
      <point x="193" y="-2"/>
      <point x="142" y="2"/>
      <point x="123" y="2" type="curve"/>
      <point x="106" y="101"/>
      <point x="30" y="554"/>
      <point x="12" y="655" type="curve"/>
      <point x="33" y="660"/>
      <point x="70" y="669"/>
      <point x="100" y="684" type="curve"/>
      <point x="110" y="615"/>
      <point x="163" y="229"/>
      <point x="176" y="126" type="curve"/>
      <point x="187" y="213"/>
      <point x="264" y="610"/>
      <point x="271" y="667" type="curve"/>
      <point x="291" y="664"/>
      <point x="325" y="662"/>
      <point x="346" y="664" type="curve"/>
      <point x="357" y="588"/>
      <point x="422" y="247"/>
      <point x="435" y="144" type="curve"/>
      <point x="451" y="262"/>
      <point x="489" y="559"/>
      <point x="502" y="673" type="curve"/>
      <point x="528" y="664"/>
      <point x="556" y="657"/>
    </contour>
  </outline>
</glyph>
<glyph name="X" format="1">
  <advance width="373"/>
  <unicode hex="0058"/>
  <outline>
    <contour>
      <point x="366" y="26" type="curve"/>
      <point x="341" y="18"/>
      <point x="310" y="3"/>
      <point x="285" y="-9" type="curve"/>
      <point x="263" y="61"/>
      <point x="199" y="233"/>
      <point x="183" y="290" type="curve"/>
      <point x="162" y="212"/>
      <point x="101" y="24"/>
      <point x="91" y="-13" type="curve"/>
      <point x="70" y="-9"/>
      <point x="26" y="2"/>
      <point x="7" y="6" type="curve"/>
      <point x="31" y="64"/>
      <point x="111" y="284"/>
      <point x="138" y="369" type="curve"/>
      <point x="122" y="418"/>
      <point x="44" y="630"/>
      <point x="31" y="657" type="curve"/>
      <point x="53" y="659"/>
      <point x="101" y="673"/>
      <point x="120" y="679" type="curve"/>
      <point x="124" y="655"/>
      <point x="177" y="491"/>
      <point x="190" y="444" type="curve"/>
      <point x="201" y="485"/>
      <point x="253" y="640"/>
      <point x="258" y="666" type="curve"/>
      <point x="278" y="658"/>
      <point x="313" y="645"/>
      <point x="338" y="635" type="curve"/>
      <point x="312" y="568"/>
      <point x="249" y="410"/>
      <point x="234" y="361" type="curve"/>
      <point x="245" y="327"/>
      <point x="312" y="160"/>
    </contour>
  </outline>
</glyph>
<glyph name="Y" format="1">
  <advance width="349"/>
  <unicode hex="0059"/>
  <outline>
    <contour>
      <point x="338" y="644" type="curve"/>
      <point x="302" y="552"/>
      <point x="245" y="389"/>
      <point x="223" y="326" type="curve"/>
      <point x="224" y="287"/>
      <point x="230" y="64"/>
      <point x="227" y="4" type="curve"/>
      <point x="207" y="5"/>
      <point x="160" y="6"/>
      <point x="136" y="6" type="curve"/>
      <point x="142" y="59"/>
      <point x="146" y="216"/>
      <point x="148" y="309" type="curve"/>
      <point x="118" y="391"/>
      <point x="36" y="579"/>
      <point x="7" y="641" type="curve"/>
      <point x="35" y="646"/>
      <point x="71" y="660"/>
      <point x="94" y="672" type="curve"/>
      <point x="103" y="633"/>
      <point x="152" y="488"/>
      <point x="185" y="419" type="curve"/>
      <point x="214" y="508"/>
      <point x="239" y="594"/>
      <point x="253" y="676" type="curve"/>
      <point x="282" y="662"/>
      <point x="310" y="652"/>
    </contour>
  </outline>
</glyph>
<glyph name="Z" format="1">
  <advance width="338"/>
  <unicode hex="005A"/>
  <outline>
    <contour>
      <point x="317" y="73" type="curve"/>
      <point x="312" y="42"/>
      <point x="311" y="13"/>
      <point x="309" y="-5" type="curve"/>
      <point x="249" y="-2"/>
      <point x="76" y="1"/>
      <point x="20" y="4" type="curve"/>
      <point x="64" y="136"/>
      <point x="178" y="478"/>
      <point x="205" y="591" type="curve"/>
      <point x="191" y="590"/>
      <point x="126" y="589"/>
      <point x="103" y="588" type="curve" smooth="yes"/>
      <point x="89" y="588"/>
      <point x="49" y="589"/>
      <point x="36" y="588" type="curve"/>
      <point x="42" y="615"/>
      <point x="43" y="644"/>
      <point x="45" y="670" type="curve"/>
      <point x="88" y="666"/>
      <point x="260" y="656"/>
      <point x="310" y="652" type="curve"/>
      <point x="301" y="620"/>
      <point x="139" y="128"/>
      <point x="125" y="74" type="curve"/>
      <point x="163" y="71"/>
      <point x="265" y="72"/>
    </contour>
  </outline>
</glyph>
<glyph name="bracketleft" format="1">
  <advance width="284"/>
  <unicode hex="005B"/>
  <outline>
    <contour>
      <point x="246" y="-68" type="curve"/>
      <point x="241" y="-89"/>
      <point x="238" y="-109"/>
      <point x="237" y="-127" type="curve"/>
      <point x="202" y="-124"/>
      <point x="106" y="-123"/>
      <point x="68" y="-124" type="curve"/>
      <point x="68" y="-33"/>
      <point x="58" y="549"/>
      <point x="55" y="692" type="curve"/>
      <point x="109" y="691"/>
      <point x="186" y="695"/>
      <point x="236" y="701" type="curve"/>
      <point x="235" y="679"/>
      <point x="236" y="655"/>
      <point x="239" y="640" type="curve"/>
      <point x="211" y="636"/>
      <point x="166" y="631"/>
      <point x="138" y="628" type="curve"/>
      <point x="136" y="545"/>
      <point x="142" y="12"/>
      <point x="145" y="-63" type="curve"/>
      <point x="172" y="-66"/>
      <point x="218" y="-70"/>
    </contour>
  </outline>
</glyph>
<glyph name="backslash" format="1">
  <advance width="322"/>
  <unicode hex="005C"/>
  <outline>
    <contour>
      <point x="300" y="5" type="curve"/>
      <point x="281" y="2"/>
      <point x="249" y="-5"/>
      <point x="225" y="-14" type="curve"/>
      <point x="172" y="170"/>
      <point x="70" y="499"/>
      <point x="14" y="656" type="curve"/>
      <point x="40" y="660"/>
      <point x="71" y="666"/>
      <point x="94" y="675" type="curve"/>
      <point x="132" y="524"/>
      <point x="242" y="178"/>
    </contour>
  </outline>
</glyph>
<glyph name="bracketright" format="1">
  <advance width="284"/>
  <unicode hex="005D"/>
  <outline>
    <contour>
      <point x="224" y="718" type="curve"/>
      <point x="220" y="583"/>
      <point x="211" y="34"/>
      <point x="211" y="-78" type="curve"/>
      <point x="164" y="-82"/>
      <point x="81" y="-92"/>
      <point x="48" y="-96" type="curve"/>
      <point x="47" y="-74"/>
      <point x="43" y="-58"/>
      <point x="39" y="-37" type="curve"/>
      <point x="68" y="-35"/>
      <point x="107" y="-26"/>
      <point x="134" y="-20" type="curve"/>
      <point x="137" y="52"/>
      <point x="145" y="609"/>
      <point x="144" y="657" type="curve"/>
      <point x="108" y="660"/>
      <point x="75" y="662"/>
      <point x="43" y="663" type="curve"/>
      <point x="44" y="687"/>
      <point x="45" y="706"/>
      <point x="43" y="727" type="curve"/>
      <point x="92" y="722"/>
      <point x="174" y="718"/>
    </contour>
  </outline>
</glyph>
<glyph name="asciicircum" format="1">
  <advance width="413"/>
  <unicode hex="005E"/>
  <outline>
    <contour>
      <point x="399" y="392" type="line"/>
      <point x="360" y="355" type="line"/>
      <point x="191" y="524" type="line"/>
      <point x="63" y="363" type="line"/>
      <point x="16" y="389" type="line"/>
      <point x="135" y="598" type="line"/>
      <point x="223" y="619" type="line"/>
    </contour>
  </outline>
</glyph>
<glyph name="grave" format="1">
  <advance width="280"/>
  <unicode hex="0060"/>
  <outline>
    <contour>
      <point x="212" y="534" type="line"/>
      <point x="183" y="498" type="line"/>
      <point x="51" y="585" type="line"/>
      <point x="95" y="646" type="line"/>
    </contour>
  </outline>
</glyph>
<glyph name="a" format="1">
  <advance width="334"/>
  <unicode hex="0061"/>
  <outline>
    <contour>
      <point x="301" y="-18" type="curve"/>
      <point x="279" y="-25"/>
      <point x="253" y="-24"/>
      <point x="232" y="-37" type="curve"/>
      <point x="228" y="-28"/>
      <point x="223" y="35"/>
      <point x="221" y="50" type="curve"/>
      <point x="203" y="26"/>
      <point x="150" y="-12"/>
      <point x="103" y="-12" type="curve" smooth="yes"/>
      <point x="69" y="-12"/>
      <point x="17" y="40"/>
      <point x="17" y="126" type="curve" smooth="yes"/>
      <point x="17" y="165"/>
      <point x="33" y="219"/>
      <point x="77" y="241" type="curve" smooth="yes"/>
      <point x="141" y="273"/>
      <point x="195" y="287"/>
      <point x="221" y="296" type="curve"/>
      <point x="219" y="345"/>
      <point x="214" y="366"/>
      <point x="196" y="375" type="curve" smooth="yes"/>
      <point x="173" y="387"/>
      <point x="137" y="392"/>
      <point x="99" y="392" type="curve"/>
      <point x="99" y="392"/>
      <point x="104" y="443"/>
      <point x="103" y="463" type="curve"/>
      <point x="154" y="457"/>
      <point x="226" y="443"/>
      <point x="253" y="427" type="curve" smooth="yes"/>
      <point x="281" y="410"/>
      <point x="292" y="365"/>
      <point x="292" y="338" type="curve" smooth="yes"/>
      <point x="292" y="331"/>
      <point x="293" y="186"/>
      <point x="293" y="88" type="curve" smooth="yes"/>
      <point x="293" y="47"/>
      <point x="296" y="-3"/>
    </contour>
    <contour>
      <point x="222" y="235" type="curve"/>
      <point x="216" y="229"/>
      <point x="159" y="212"/>
      <point x="140" y="202" type="curve" smooth="yes"/>
      <point x="123" y="193"/>
      <point x="95" y="169"/>
      <point x="95" y="142" type="curve" smooth="yes"/>
      <point x="95" y="89"/>
      <point x="107" y="65"/>
      <point x="134" y="65" type="curve" smooth="yes"/>
      <point x="169" y="65"/>
      <point x="212" y="110"/>
      <point x="217" y="117" type="curve"/>
      <point x="220" y="127"/>
      <point x="224" y="226"/>
    </contour>
  </outline>
</glyph>
<glyph name="b" format="1">
  <advance width="362"/>
  <unicode hex="0062"/>
  <outline>
    <contour>
      <point x="335" y="222" type="curve" smooth="yes"/>
      <point x="335" y="42"/>
      <point x="262" y="16"/>
      <point x="208" y="16" type="curve" smooth="yes"/>
      <point x="182" y="16"/>
      <point x="143" y="30"/>
      <point x="115" y="53" type="curve"/>
      <point x="114" y="42"/>
      <point x="119" y="2"/>
      <point x="119" y="2" type="curve"/>
      <point x="95" y="1"/>
      <point x="67" y="-6"/>
      <point x="41" y="-14" type="curve"/>
      <point x="42" y="16"/>
      <point x="42" y="241"/>
      <point x="42" y="251" type="curve" smooth="yes"/>
      <point x="42" y="277"/>
      <point x="40" y="524"/>
      <point x="40" y="548" type="curve" smooth="yes"/>
      <point x="40" y="556"/>
      <point x="37" y="651"/>
      <point x="35" y="660" type="curve"/>
      <point x="50" y="660"/>
      <point x="94" y="664"/>
      <point x="112" y="669" type="curve"/>
      <point x="109" y="620"/>
      <point x="108" y="435"/>
      <point x="110" y="408" type="curve"/>
      <point x="133" y="439"/>
      <point x="193" y="457"/>
      <point x="216" y="457" type="curve" smooth="yes"/>
      <point x="245" y="457"/>
      <point x="269" y="446"/>
      <point x="295" y="403" type="curve" smooth="yes"/>
      <point x="319" y="364"/>
      <point x="335" y="304"/>
    </contour>
    <contour>
      <point x="259" y="215" type="curve" smooth="yes"/>
      <point x="259" y="321"/>
      <point x="242" y="386"/>
      <point x="201" y="386" type="curve" smooth="yes"/>
      <point x="183" y="386"/>
      <point x="124" y="356"/>
      <point x="114" y="337" type="curve"/>
      <point x="113" y="306"/>
      <point x="113" y="166"/>
      <point x="114" y="133" type="curve"/>
      <point x="132" y="110"/>
      <point x="169" y="89"/>
      <point x="197" y="88" type="curve" smooth="yes"/>
      <point x="232" y="87"/>
      <point x="259" y="98"/>
    </contour>
  </outline>
</glyph>
<glyph name="c" format="1">
  <advance width="290"/>
  <unicode hex="0063"/>
  <outline>
    <contour>
      <point x="269" y="48" type="curve"/>
      <point x="264" y="31"/>
      <point x="255" y="-10"/>
      <point x="254" y="-25" type="curve"/>
      <point x="98" y="1"/>
      <point x="29" y="80"/>
      <point x="29" y="232" type="curve" smooth="yes"/>
      <point x="29" y="293"/>
      <point x="42" y="352"/>
      <point x="67" y="386" type="curve" smooth="yes"/>
      <point x="107" y="440"/>
      <point x="148" y="459"/>
      <point x="253" y="473" type="curve"/>
      <point x="261" y="406" type="line"/>
      <point x="240" y="405"/>
      <point x="206" y="398"/>
      <point x="199" y="396" type="curve" smooth="yes"/>
      <point x="142" y="378"/>
      <point x="105" y="336"/>
      <point x="105" y="242" type="curve" smooth="yes"/>
      <point x="105" y="163"/>
      <point x="125" y="84"/>
      <point x="215" y="60" type="curve" smooth="yes"/>
      <point x="230" y="56"/>
      <point x="252" y="48"/>
    </contour>
  </outline>
</glyph>
<glyph name="d" format="1">
  <advance width="365"/>
  <unicode hex="0064"/>
  <outline>
    <contour>
      <point x="325" y="98" type="curve"/>
      <point x="322" y="85"/>
      <point x="320" y="31"/>
      <point x="322" y="6" type="curve"/>
      <point x="302" y="4"/>
      <point x="290" y="-1"/>
      <point x="275" y="-7" type="curve"/>
      <point x="254" y="36" type="line"/>
      <point x="230" y="14"/>
      <point x="169" y="-4"/>
      <point x="137" y="-4" type="curve" smooth="yes"/>
      <point x="78" y="-4"/>
      <point x="30" y="77"/>
      <point x="30" y="201" type="curve" smooth="yes"/>
      <point x="30" y="285"/>
      <point x="49" y="348"/>
      <point x="61" y="371" type="curve" smooth="yes"/>
      <point x="69" y="387"/>
      <point x="119" y="449"/>
      <point x="160" y="449" type="curve" smooth="yes"/>
      <point x="188" y="449"/>
      <point x="229" y="433"/>
      <point x="252" y="418" type="curve"/>
      <point x="251" y="432"/>
      <point x="250" y="489"/>
      <point x="249" y="544" type="curve" smooth="yes"/>
      <point x="248" y="602"/>
      <point x="244" y="658"/>
      <point x="244" y="658" type="curve"/>
      <point x="244" y="658"/>
      <point x="313" y="664"/>
      <point x="324" y="666" type="curve"/>
      <point x="324" y="349" type="line" smooth="yes"/>
      <point x="324" y="331"/>
      <point x="325" y="134"/>
    </contour>
    <contour>
      <point x="252" y="97" type="curve"/>
      <point x="252" y="168"/>
      <point x="257" y="305"/>
      <point x="251" y="347" type="curve"/>
      <point x="237" y="359"/>
      <point x="197" y="376"/>
      <point x="173" y="376" type="curve" smooth="yes"/>
      <point x="132" y="376"/>
      <point x="108" y="357"/>
      <point x="108" y="243" type="curve" smooth="yes"/>
      <point x="108" y="130"/>
      <point x="127" y="66"/>
      <point x="174" y="66" type="curve" smooth="yes"/>
      <point x="197" y="66"/>
      <point x="228" y="77"/>
    </contour>
  </outline>
</glyph>
<glyph name="e" format="1">
  <advance width="338"/>
  <unicode hex="0065"/>
  <outline>
    <contour>
      <point x="316" y="47" type="curve"/>
      <point x="302" y="24"/>
      <point x="240" y="-1"/>
      <point x="197" y="-1" type="curve" smooth="yes"/>
      <point x="90" y="-1"/>
      <point x="25" y="81"/>
      <point x="25" y="222" type="curve" smooth="yes"/>
      <point x="25" y="400"/>
      <point x="95" y="453"/>
      <point x="183" y="453" type="curve" smooth="yes"/>
      <point x="265" y="453"/>
      <point x="300" y="351"/>
      <point x="305" y="224" type="curve"/>
      <point x="226" y="217"/>
      <point x="114" y="211"/>
      <point x="97" y="211" type="curve"/>
      <point x="100" y="138"/>
      <point x="124" y="71"/>
      <point x="198" y="71" type="curve" smooth="yes"/>
      <point x="219" y="71"/>
      <point x="265" y="80"/>
      <point x="293" y="95" type="curve"/>
      <point x="297" y="81"/>
      <point x="306" y="60"/>
    </contour>
    <contour>
      <point x="230" y="282" type="curve"/>
      <point x="222" y="349"/>
      <point x="207" y="389"/>
      <point x="166" y="389" type="curve" smooth="yes"/>
      <point x="134" y="389"/>
      <point x="91" y="355"/>
      <point x="96" y="275" type="curve"/>
      <point x="106" y="275"/>
      <point x="145" y="272"/>
      <point x="159" y="274" type="curve" smooth="yes"/>
      <point x="183" y="277"/>
      <point x="221" y="281"/>
    </contour>
  </outline>
</glyph>
<glyph name="g" format="1">
  <advance width="342"/>
  <unicode hex="0067"/>
  <outline>
    <contour>
      <point x="302" y="196" type="line" smooth="yes"/>
      <point x="302" y="124"/>
      <point x="299" y="32"/>
      <point x="293" y="-52" type="curve" smooth="yes"/>
      <point x="291" y="-79"/>
      <point x="277" y="-114"/>
      <point x="256" y="-132" type="curve" smooth="yes"/>
      <point x="227" y="-158"/>
      <point x="162" y="-201"/>
      <point x="151" y="-201" type="curve"/>
      <point x="145" y="-182"/>
      <point x="115" y="-136"/>
      <point x="115" y="-136" type="curve"/>
      <point x="157" y="-124"/>
      <point x="198" y="-93"/>
      <point x="216" y="-64" type="curve" smooth="yes"/>
      <point x="226" y="-48"/>
      <point x="230" y="-11"/>
      <point x="228" y="22" type="curve"/>
      <point x="206" y="0"/>
      <point x="159" y="-11"/>
      <point x="133" y="-13" type="curve" smooth="yes"/>
      <point x="104" y="-15"/>
      <point x="92" y="-6"/>
      <point x="67" y="32" type="curve" smooth="yes"/>
      <point x="40" y="71"/>
      <point x="28" y="124"/>
      <point x="28" y="199" type="curve" smooth="yes"/>
      <point x="28" y="323"/>
      <point x="55" y="440"/>
      <point x="132" y="440" type="curve" smooth="yes"/>
      <point x="158" y="440"/>
      <point x="207" y="427"/>
      <point x="228" y="421" type="curve"/>
      <point x="228" y="427"/>
      <point x="226" y="491"/>
      <point x="226" y="491" type="curve"/>
      <point x="241" y="489"/>
      <point x="291" y="483"/>
      <point x="302" y="484" type="curve"/>
    </contour>
    <contour>
      <point x="228" y="90" type="curve"/>
      <point x="228" y="90"/>
      <point x="227" y="183"/>
      <point x="227" y="234" type="curve" smooth="yes"/>
      <point x="227" y="278"/>
      <point x="228" y="347"/>
      <point x="228" y="347" type="curve"/>
      <point x="220" y="354"/>
      <point x="193" y="363"/>
      <point x="166" y="363" type="curve" smooth="yes"/>
      <point x="124" y="363"/>
      <point x="104" y="340"/>
      <point x="104" y="249" type="curve" smooth="yes"/>
      <point x="104" y="112"/>
      <point x="127" y="60"/>
      <point x="156" y="60" type="curve" smooth="yes"/>
      <point x="179" y="60"/>
      <point x="209" y="67"/>
    </contour>
  </outline>
</glyph>
<glyph name="h" format="1">
  <advance width="353"/>
  <unicode hex="0068"/>
  <outline>
    <contour>
      <point x="314" y="-17" type="curve"/>
      <point x="294" y="-11"/>
      <point x="244" y="-5"/>
      <point x="229" y="-1" type="curve"/>
      <point x="232" y="15"/>
      <point x="235" y="147"/>
      <point x="236" y="175" type="curve" smooth="yes"/>
      <point x="236" y="185"/>
      <point x="235" y="265"/>
      <point x="232" y="295" type="curve" smooth="yes"/>
      <point x="230" y="314"/>
      <point x="224" y="329"/>
      <point x="201" y="329" type="curve" smooth="yes"/>
      <point x="172" y="329"/>
      <point x="145" y="317"/>
      <point x="124" y="303" type="curve"/>
      <point x="122" y="243"/>
      <point x="118" y="13"/>
      <point x="126" y="-27" type="curve"/>
      <point x="94" y="-21"/>
      <point x="54" y="-15"/>
      <point x="46" y="-14" type="curve"/>
      <point x="47" y="-2"/>
      <point x="45" y="92"/>
      <point x="47" y="149" type="curve" smooth="yes"/>
      <point x="49" y="213"/>
      <point x="53" y="368"/>
      <point x="53" y="383" type="curve" smooth="yes"/>
      <point x="53" y="412"/>
      <point x="47" y="582"/>
      <point x="49" y="677" type="curve"/>
      <point x="58" y="676"/>
      <point x="114" y="674"/>
      <point x="126" y="673" type="curve"/>
      <point x="126" y="666"/>
      <point x="126" y="403"/>
      <point x="124" y="371" type="curve"/>
      <point x="153" y="386"/>
      <point x="196" y="404"/>
      <point x="236" y="404" type="curve" smooth="yes"/>
      <point x="248" y="404"/>
      <point x="268" y="398"/>
      <point x="282" y="389" type="curve" smooth="yes"/>
      <point x="293" y="382"/>
      <point x="311" y="355"/>
      <point x="311" y="311" type="curve" smooth="yes"/>
      <point x="311" y="303"/>
      <point x="310" y="120"/>
      <point x="309" y="85" type="curve" smooth="yes"/>
      <point x="308" y="64"/>
      <point x="310" y="26"/>
    </contour>
  </outline>
</glyph>
<glyph name="i" format="1">
  <advance width="161"/>
  <unicode hex="0069"/>
  <outline>
    <contour>
      <point x="135" y="600" type="curve" smooth="yes"/>
      <point x="135" y="576"/>
      <point x="110" y="553"/>
      <point x="84" y="553" type="curve" smooth="yes"/>
      <point x="58" y="553"/>
      <point x="35" y="574"/>
      <point x="35" y="599" type="curve" smooth="yes"/>
      <point x="35" y="620"/>
      <point x="59" y="644"/>
      <point x="84" y="644" type="curve" smooth="yes"/>
      <point x="112" y="644"/>
      <point x="135" y="628"/>
    </contour>
    <contour>
      <point x="125" y="5" type="curve"/>
      <point x="112" y="2"/>
      <point x="61" y="-10"/>
      <point x="42" y="-20" type="curve"/>
      <point x="44" y="25"/>
      <point x="41" y="237"/>
      <point x="41" y="226" type="curve" smooth="yes"/>
      <point x="41" y="216"/>
      <point x="42" y="429"/>
      <point x="42" y="448" type="curve"/>
      <point x="51" y="447"/>
      <point x="109" y="442"/>
      <point x="122" y="443" type="curve"/>
      <point x="119" y="432"/>
      <point x="117" y="395"/>
      <point x="116" y="383" type="curve" smooth="yes"/>
      <point x="114" y="364"/>
      <point x="114" y="286"/>
      <point x="114" y="264" type="curve" smooth="yes"/>
      <point x="114" y="240"/>
      <point x="116" y="116"/>
      <point x="117" y="98" type="curve" smooth="yes"/>
      <point x="118" y="77"/>
      <point x="121" y="29"/>
    </contour>
  </outline>
</glyph>
<glyph name="j" format="1">
  <advance width="159"/>
  <unicode hex="006A"/>
  <outline>
    <contour>
      <point x="129" y="644" type="curve" smooth="yes"/>
      <point x="129" y="621"/>
      <point x="106" y="598"/>
      <point x="81" y="598" type="curve" smooth="yes"/>
      <point x="54" y="598"/>
      <point x="32" y="618"/>
      <point x="32" y="643" type="curve" smooth="yes"/>
      <point x="32" y="663"/>
      <point x="55" y="687"/>
      <point x="81" y="687" type="curve" smooth="yes"/>
      <point x="107" y="687"/>
      <point x="129" y="671"/>
    </contour>
    <contour>
      <point x="125" y="474" type="curve"/>
      <point x="121" y="459"/>
      <point x="120" y="378"/>
      <point x="119" y="353" type="curve" smooth="yes"/>
      <point x="118" y="325"/>
      <point x="117" y="88"/>
      <point x="117" y="67" type="curve" smooth="yes"/>
      <point x="117" y="-85"/>
      <point x="65" y="-143"/>
      <point x="19" y="-179" type="curve"/>
      <point x="5" y="-162"/>
      <point x="-11" y="-146"/>
      <point x="-29" y="-133" type="curve"/>
      <point x="27" y="-89"/>
      <point x="51" y="-21"/>
      <point x="48" y="43" type="curve" smooth="yes"/>
      <point x="47" y="63"/>
      <point x="49" y="136"/>
      <point x="48" y="165" type="curve" smooth="yes"/>
      <point x="46" y="249"/>
      <point x="46" y="452"/>
      <point x="46" y="478" type="curve"/>
      <point x="62" y="475"/>
      <point x="116" y="473"/>
    </contour>
  </outline>
</glyph>
<glyph name="k" format="1">
  <advance width="341"/>
  <unicode hex="006B"/>
  <outline>
    <contour>
      <point x="339" y="25" type="curve"/>
      <point x="334" y="19"/>
      <point x="292" y="-15"/>
      <point x="281" y="-23" type="curve"/>
      <point x="268" y="-8"/>
      <point x="183" y="132"/>
      <point x="149" y="186" type="curve"/>
      <point x="140" y="177"/>
      <point x="121" y="157"/>
      <point x="113" y="148" type="curve"/>
      <point x="111" y="117"/>
      <point x="111" y="66"/>
      <point x="110" y="45" type="curve" smooth="yes"/>
      <point x="110" y="34"/>
      <point x="111" y="13"/>
      <point x="111" y="-3" type="curve"/>
      <point x="82" y="-3"/>
      <point x="60" y="-3"/>
      <point x="40" y="-5" type="curve"/>
      <point x="40" y="29"/>
      <point x="41" y="227"/>
      <point x="41" y="261" type="curve" smooth="yes"/>
      <point x="41" y="267"/>
      <point x="43" y="489"/>
      <point x="45" y="505" type="curve" smooth="yes"/>
      <point x="46" y="512"/>
      <point x="49" y="690"/>
      <point x="49" y="709" type="curve"/>
      <point x="59" y="705"/>
      <point x="98" y="697"/>
      <point x="115" y="693" type="curve"/>
      <point x="115" y="667"/>
      <point x="113" y="349"/>
      <point x="113" y="326" type="curve" smooth="yes"/>
      <point x="113" y="319"/>
      <point x="113" y="280"/>
      <point x="114" y="241" type="curve"/>
      <point x="149" y="289"/>
      <point x="203" y="370"/>
      <point x="214" y="389" type="curve" smooth="yes"/>
      <point x="220" y="398"/>
      <point x="246" y="446"/>
      <point x="250" y="456" type="curve"/>
      <point x="258" y="451"/>
      <point x="309" y="417"/>
      <point x="314" y="414" type="curve"/>
      <point x="293" y="385"/>
      <point x="227" y="290"/>
      <point x="197" y="242" type="curve"/>
      <point x="228" y="199"/>
      <point x="336" y="28"/>
    </contour>
  </outline>
</glyph>
<glyph name="l" format="1">
  <advance width="159"/>
  <unicode hex="006C"/>
  <outline>
    <contour>
      <point x="118" y="423" type="curve" smooth="yes"/>
      <point x="118" y="382"/>
      <point x="117" y="199"/>
      <point x="113" y="180" type="curve"/>
      <point x="112" y="163"/>
      <point x="107" y="18"/>
      <point x="107" y="-24" type="curve"/>
      <point x="92" y="-18"/>
      <point x="53" y="-11"/>
      <point x="43" y="-8" type="curve"/>
      <point x="43" y="18"/>
      <point x="45" y="336"/>
      <point x="45" y="358" type="curve" smooth="yes"/>
      <point x="45" y="372"/>
      <point x="44" y="508"/>
      <point x="44" y="522" type="curve" smooth="yes"/>
      <point x="44" y="529"/>
      <point x="48" y="607"/>
      <point x="52" y="619" type="curve"/>
      <point x="54" y="636"/>
      <point x="57" y="673"/>
      <point x="57" y="693" type="curve"/>
      <point x="71" y="687"/>
      <point x="102" y="677"/>
      <point x="117" y="670" type="curve"/>
      <point x="117" y="636"/>
      <point x="118" y="457"/>
    </contour>
  </outline>
</glyph>
<glyph name="m" format="1">
  <advance width="534"/>
  <unicode hex="006D"/>
  <outline>
    <contour>
      <point x="489" y="328" type="curve" smooth="yes"/>
      <point x="488" y="12" type="line"/>
      <point x="471" y="10"/>
      <point x="435" y="3"/>
      <point x="407" y="3" type="curve"/>
      <point x="413" y="11"/>
      <point x="413" y="102"/>
      <point x="413" y="105" type="curve" smooth="yes"/>
      <point x="413" y="130"/>
      <point x="414" y="245"/>
      <point x="414" y="270" type="curve" smooth="yes"/>
      <point x="414" y="284"/>
      <point x="413" y="313"/>
      <point x="413" y="325" type="curve" smooth="yes"/>
      <point x="413" y="346"/>
      <point x="408" y="362"/>
      <point x="385" y="362" type="curve" smooth="yes"/>
      <point x="360" y="362"/>
      <point x="316" y="330"/>
      <point x="305" y="321" type="curve"/>
      <point x="306" y="302"/>
      <point x="306" y="31"/>
      <point x="308" y="9" type="curve"/>
      <point x="295" y="9"/>
      <point x="236" y="8"/>
      <point x="226" y="6" type="curve"/>
      <point x="230" y="24"/>
      <point x="231" y="78"/>
      <point x="231" y="83" type="curve" smooth="yes"/>
      <point x="231" y="111"/>
      <point x="228" y="288"/>
      <point x="228" y="313" type="curve" smooth="yes"/>
      <point x="228" y="362"/>
      <point x="229" y="376"/>
      <point x="190" y="376" type="curve" smooth="yes"/>
      <point x="164" y="376"/>
      <point x="133" y="363"/>
      <point x="118" y="352" type="curve"/>
      <point x="117" y="-12" type="line"/>
      <point x="102" y="-5"/>
      <point x="59" y="2"/>
      <point x="42" y="2" type="curve"/>
      <point x="43" y="37"/>
      <point x="45" y="152"/>
      <point x="45" y="160" type="curve" smooth="yes"/>
      <point x="45" y="462" type="line"/>
      <point x="55" y="458"/>
      <point x="89" y="453"/>
      <point x="109" y="453" type="curve"/>
      <point x="109" y="453"/>
      <point x="113" y="430"/>
      <point x="116" y="421" type="curve"/>
      <point x="149" y="439"/>
      <point x="195" y="450"/>
      <point x="232" y="450" type="curve" smooth="yes"/>
      <point x="256" y="450"/>
      <point x="276" y="438"/>
      <point x="288" y="407" type="curve" smooth="yes"/>
      <point x="290" y="401"/>
      <point x="294" y="392"/>
      <point x="295" y="385" type="curve"/>
      <point x="330" y="411"/>
      <point x="384" y="441"/>
      <point x="427" y="441" type="curve" smooth="yes"/>
      <point x="484" y="441"/>
      <point x="489" y="402"/>
    </contour>
  </outline>
</glyph>
<glyph name="n" format="1">
  <advance width="367"/>
  <unicode hex="006E"/>
  <outline>
    <contour>
      <point x="323" y="3" type="curve"/>
      <point x="297" y="7"/>
      <point x="274" y="11"/>
      <point x="241" y="11" type="curve"/>
      <point x="247" y="53"/>
      <point x="249" y="108"/>
      <point x="249" y="133" type="curve" smooth="yes"/>
      <point x="249" y="149"/>
      <point x="249" y="255"/>
      <point x="249" y="286" type="curve" smooth="yes"/>
      <point x="249" y="300"/>
      <point x="249" y="315"/>
      <point x="249" y="328" type="curve" smooth="yes"/>
      <point x="249" y="357"/>
      <point x="245" y="379"/>
      <point x="219" y="379" type="curve" smooth="yes"/>
      <point x="196" y="379"/>
      <point x="142" y="361"/>
      <point x="119" y="342" type="curve"/>
      <point x="119" y="315"/>
      <point x="127" y="34"/>
      <point x="131" y="-3" type="curve"/>
      <point x="111" y="-6"/>
      <point x="75" y="-6"/>
      <point x="55" y="-7" type="curve"/>
      <point x="59" y="42"/>
      <point x="44" y="349"/>
      <point x="44" y="328" type="curve" smooth="yes"/>
      <point x="44" y="323"/>
      <point x="38" y="444"/>
      <point x="33" y="458" type="curve"/>
      <point x="46" y="458"/>
      <point x="101" y="460"/>
      <point x="121" y="464" type="curve"/>
      <point x="119" y="408" type="line"/>
      <point x="146" y="427"/>
      <point x="213" y="451"/>
      <point x="249" y="451" type="curve" smooth="yes"/>
      <point x="301" y="451"/>
      <point x="323" y="396"/>
      <point x="323" y="305" type="curve" smooth="yes"/>
      <point x="323" y="257"/>
      <point x="323" y="79"/>
    </contour>
  </outline>
</glyph>
<glyph name="o" format="1">
  <advance width="372"/>
  <unicode hex="006F"/>
  <outline>
    <contour>
      <point x="343" y="265" type="curve" smooth="yes"/>
      <point x="343" y="106"/>
      <point x="267" y="6"/>
      <point x="182" y="6" type="curve" smooth="yes"/>
      <point x="130" y="6"/>
      <point x="91" y="29"/>
      <point x="60" y="86" type="curve" smooth="yes"/>
      <point x="40" y="123"/>
      <point x="27" y="163"/>
      <point x="27" y="225" type="curve" smooth="yes"/>
      <point x="27" y="390"/>
      <point x="95" y="459"/>
      <point x="183" y="459" type="curve" smooth="yes"/>
      <point x="264" y="459"/>
      <point x="343" y="412"/>
    </contour>
    <contour>
      <point x="270" y="235" type="curve" smooth="yes"/>
      <point x="270" y="353"/>
      <point x="223" y="388"/>
      <point x="172" y="388" type="curve" smooth="yes"/>
      <point x="129" y="388"/>
      <point x="101" y="356"/>
      <point x="101" y="245" type="curve" smooth="yes"/>
      <point x="101" y="143"/>
      <point x="131" y="79"/>
      <point x="189" y="79" type="curve" smooth="yes"/>
      <point x="232" y="79"/>
      <point x="270" y="126"/>
    </contour>
  </outline>
</glyph>
<glyph name="q" format="1">
  <advance width="352"/>
  <unicode hex="0071"/>
  <outline>
    <contour>
      <point x="309" y="64" type="curve" smooth="yes"/>
      <point x="309" y="39"/>
      <point x="306" y="-163"/>
      <point x="308" y="-195" type="curve"/>
      <point x="294" y="-190"/>
      <point x="253" y="-187"/>
      <point x="231" y="-187" type="curve"/>
      <point x="238" y="-104"/>
      <point x="241" y="14"/>
      <point x="241" y="14" type="curve"/>
      <point x="229" y="2"/>
      <point x="195" y="-12"/>
      <point x="170" y="-12" type="curve" smooth="yes"/>
      <point x="140" y="-12"/>
      <point x="95" y="15"/>
      <point x="78" y="34" type="curve" smooth="yes"/>
      <point x="47" y="69"/>
      <point x="28" y="130"/>
      <point x="28" y="210" type="curve" smooth="yes"/>
      <point x="28" y="361"/>
      <point x="55" y="447"/>
      <point x="134" y="447" type="curve" smooth="yes"/>
      <point x="157" y="447"/>
      <point x="221" y="424"/>
      <point x="235" y="412" type="curve"/>
      <point x="233" y="435"/>
      <point x="229" y="460"/>
      <point x="229" y="460" type="curve"/>
      <point x="229" y="460"/>
      <point x="293" y="466"/>
      <point x="307" y="472" type="curve"/>
      <point x="307" y="460"/>
      <point x="309" y="88"/>
    </contour>
    <contour>
      <point x="237" y="87" type="curve"/>
      <point x="237" y="335" type="line"/>
      <point x="210" y="361"/>
      <point x="168" y="378"/>
      <point x="148" y="378" type="curve" smooth="yes"/>
      <point x="110" y="378"/>
      <point x="104" y="350"/>
      <point x="104" y="246" type="curve" smooth="yes"/>
      <point x="104" y="119"/>
      <point x="131" y="61"/>
      <point x="179" y="61" type="curve" smooth="yes"/>
      <point x="200" y="61"/>
      <point x="222" y="71"/>
    </contour>
  </outline>
</glyph>
<glyph name="r" format="1">
  <advance width="258"/>
  <unicode hex="0072"/>
  <outline>
    <contour>
      <point x="250" y="397" type="curve"/>
      <point x="185" y="395"/>
      <point x="143" y="360"/>
      <point x="121" y="318" type="curve"/>
      <point x="119" y="239"/>
      <point x="117" y="65"/>
      <point x="121" y="-4" type="curve"/>
      <point x="101" y="1"/>
      <point x="67" y="5"/>
      <point x="40" y="5" type="curve"/>
      <point x="44" y="45"/>
      <point x="52" y="172"/>
      <point x="52" y="199" type="curve" smooth="yes"/>
      <point x="52" y="221"/>
      <point x="51" y="321"/>
      <point x="51" y="330" type="curve" smooth="yes"/>
      <point x="51" y="352"/>
      <point x="52" y="465"/>
      <point x="51" y="485" type="curve"/>
      <point x="65" y="480"/>
      <point x="124" y="477"/>
      <point x="124" y="477" type="curve"/>
      <point x="124" y="407" type="line"/>
      <point x="143" y="431"/>
      <point x="178" y="457"/>
      <point x="230" y="467" type="curve"/>
      <point x="234" y="442"/>
      <point x="242" y="418"/>
    </contour>
  </outline>
</glyph>
<glyph name="s" format="1">
  <advance width="261"/>
  <unicode hex="0073"/>
  <outline>
    <contour>
      <point x="239" y="127" type="curve" smooth="yes"/>
      <point x="239" y="43"/>
      <point x="163" y="-20"/>
      <point x="71" y="-26" type="curve"/>
      <point x="71" y="-6"/>
      <point x="68" y="18"/>
      <point x="60" y="42" type="curve"/>
      <point x="121" y="42"/>
      <point x="166" y="80"/>
      <point x="166" y="123" type="curve" smooth="yes"/>
      <point x="166" y="163"/>
      <point x="144" y="179"/>
      <point x="99" y="213" type="curve" smooth="yes"/>
      <point x="60" y="242"/>
      <point x="18" y="271"/>
      <point x="18" y="331" type="curve" smooth="yes"/>
      <point x="18" y="414"/>
      <point x="107" y="448"/>
      <point x="211" y="453" type="curve"/>
      <point x="209" y="439"/>
      <point x="211" y="413"/>
      <point x="217" y="392" type="curve"/>
      <point x="114" y="381"/>
      <point x="90" y="356"/>
      <point x="90" y="329" type="curve" smooth="yes"/>
      <point x="90" y="318"/>
      <point x="97" y="309"/>
      <point x="109" y="300" type="curve" smooth="yes"/>
      <point x="194" y="233"/>
      <point x="239" y="204"/>
    </contour>
  </outline>
</glyph>
<glyph name="t" format="1">
  <advance width="238"/>
  <unicode hex="0074"/>
  <outline>
    <contour>
      <point x="219" y="379" type="curve"/>
      <point x="195" y="382"/>
      <point x="139" y="376"/>
      <point x="139" y="376" type="curve"/>
      <point x="139" y="376"/>
      <point x="137" y="311"/>
      <point x="137" y="306" type="curve" smooth="yes"/>
      <point x="135" y="280"/>
      <point x="133" y="175"/>
      <point x="136" y="108" type="curve" smooth="yes"/>
      <point x="138" y="74"/>
      <point x="168" y="46"/>
      <point x="199" y="29" type="curve"/>
      <point x="191" y="21"/>
      <point x="159" y="-11"/>
      <point x="149" y="-27" type="curve"/>
      <point x="79" y="9"/>
      <point x="66" y="57"/>
      <point x="66" y="112" type="curve" smooth="yes"/>
      <point x="66" y="169"/>
      <point x="66" y="205"/>
      <point x="66" y="264" type="curve" smooth="yes"/>
      <point x="66" y="305"/>
      <point x="66" y="345"/>
      <point x="65" y="374" type="curve"/>
      <point x="53" y="376"/>
      <point x="32" y="377"/>
      <point x="16" y="377" type="curve"/>
      <point x="17" y="391"/>
      <point x="16" y="420"/>
      <point x="16" y="430" type="curve"/>
      <point x="28" y="432"/>
      <point x="61" y="437"/>
      <point x="69" y="439" type="curve"/>
      <point x="70" y="448"/>
      <point x="71" y="458"/>
      <point x="71" y="462" type="curve"/>
      <point x="74" y="492"/>
      <point x="74" y="501"/>
      <point x="77" y="529" type="curve"/>
      <point x="83" y="531"/>
      <point x="127" y="545"/>
      <point x="151" y="555" type="curve"/>
      <point x="150" y="538"/>
      <point x="147" y="478"/>
      <point x="145" y="438" type="curve"/>
      <point x="168" y="437"/>
      <point x="205" y="436"/>
      <point x="218" y="438" type="curve"/>
      <point x="217" y="430"/>
      <point x="217" y="405"/>
    </contour>
  </outline>
</glyph>
<glyph name="u" format="1">
  <advance width="347"/>
  <unicode hex="0075"/>
  <outline>
    <contour>
      <point x="301" y="-15" type="line"/>
      <point x="290" y="-13"/>
      <point x="246" y="-6"/>
      <point x="227" y="-7" type="curve"/>
      <point x="225" y="36" type="line"/>
      <point x="208" y="21"/>
      <point x="156" y="-1"/>
      <point x="113" y="-1" type="curve" smooth="yes"/>
      <point x="89" y="-1"/>
      <point x="65" y="9"/>
      <point x="51" y="34" type="curve" smooth="yes"/>
      <point x="44" y="47"/>
      <point x="44" y="123"/>
      <point x="44" y="157" type="curve" smooth="yes"/>
      <point x="44" y="208"/>
      <point x="44" y="340"/>
      <point x="41" y="362" type="curve" smooth="yes"/>
      <point x="40" y="367"/>
      <point x="39" y="440"/>
      <point x="36" y="448" type="curve"/>
      <point x="51" y="448"/>
      <point x="103" y="450"/>
      <point x="116" y="453" type="curve"/>
      <point x="116" y="427"/>
      <point x="118" y="140"/>
      <point x="118" y="134" type="curve" smooth="yes"/>
      <point x="118" y="88"/>
      <point x="127" y="67"/>
      <point x="155" y="67" type="curve" smooth="yes"/>
      <point x="179" y="67"/>
      <point x="210" y="83"/>
      <point x="228" y="105" type="curve"/>
      <point x="228" y="155"/>
      <point x="229" y="301"/>
      <point x="226" y="371" type="curve" smooth="yes"/>
      <point x="225" y="403"/>
      <point x="225" y="436"/>
      <point x="222" y="453" type="curve"/>
      <point x="237" y="456"/>
      <point x="284" y="468"/>
      <point x="301" y="477" type="curve"/>
    </contour>
  </outline>
</glyph>
<glyph name="v" format="1">
  <advance width="319"/>
  <unicode hex="0076"/>
  <outline>
    <contour>
      <point x="314" y="444" type="curve"/>
      <point x="306" y="427"/>
      <point x="235" y="167"/>
      <point x="224" y="136" type="curve" smooth="yes"/>
      <point x="218" y="120"/>
      <point x="190" y="6"/>
      <point x="189" y="-7" type="curve"/>
      <point x="179" y="-8"/>
      <point x="142" y="-13"/>
      <point x="129" y="-16" type="curve"/>
      <point x="121" y="23"/>
      <point x="14" y="414"/>
      <point x="6" y="447" type="curve"/>
      <point x="22" y="450"/>
      <point x="63" y="462"/>
      <point x="81" y="472" type="curve"/>
      <point x="86" y="446"/>
      <point x="120" y="296"/>
      <point x="130" y="253" type="curve" smooth="yes"/>
      <point x="135" y="231"/>
      <point x="153" y="163"/>
      <point x="162" y="131" type="curve"/>
      <point x="172" y="168"/>
      <point x="192" y="259"/>
      <point x="194" y="271" type="curve" smooth="yes"/>
      <point x="201" y="309"/>
      <point x="235" y="448"/>
      <point x="239" y="465" type="curve"/>
      <point x="251" y="461"/>
      <point x="298" y="444"/>
    </contour>
  </outline>
</glyph>
<glyph name="w" format="1">
  <advance width="463"/>
  <unicode hex="0077"/>
  <outline>
    <contour>
      <point x="457" y="452" type="curve"/>
      <point x="451" y="436"/>
      <point x="384" y="156"/>
      <point x="379" y="139" type="curve" smooth="yes"/>
      <point x="374" y="120"/>
      <point x="356" y="25"/>
      <point x="350" y="-17" type="curve"/>
      <point x="341" y="-16"/>
      <point x="297" y="-11"/>
      <point x="286" y="-14" type="curve"/>
      <point x="280" y="35"/>
      <point x="238" y="259"/>
      <point x="232" y="295" type="curve"/>
      <point x="226" y="261"/>
      <point x="178" y="40"/>
      <point x="172" y="-3" type="curve"/>
      <point x="156" y="-3"/>
      <point x="119" y="-2"/>
      <point x="104" y="-6" type="curve"/>
      <point x="103" y="17"/>
      <point x="11" y="448"/>
      <point x="6" y="461" type="curve"/>
      <point x="14" y="461"/>
      <point x="59" y="474"/>
      <point x="76" y="483" type="curve"/>
      <point x="76" y="465"/>
      <point x="102" y="353"/>
      <point x="105" y="340" type="curve" smooth="yes"/>
      <point x="109" y="324"/>
      <point x="142" y="145"/>
      <point x="144" y="117" type="curve"/>
      <point x="152" y="164"/>
      <point x="205" y="429"/>
      <point x="201" y="452" type="curve"/>
      <point x="212" y="452"/>
      <point x="253" y="453"/>
      <point x="263" y="456" type="curve"/>
      <point x="266" y="443"/>
      <point x="316" y="173"/>
      <point x="322" y="127" type="curve"/>
      <point x="337" y="221"/>
      <point x="379" y="429"/>
      <point x="381" y="474" type="curve"/>
      <point x="394" y="469"/>
      <point x="448" y="452"/>
    </contour>
  </outline>
</glyph>
<glyph name="x" format="1">
  <advance width="317"/>
  <unicode hex="0078"/>
  <outline>
    <contour>
      <point x="310" y="446" type="curve"/>
      <point x="303" y="439"/>
      <point x="270" y="367"/>
      <point x="263" y="356" type="curve" smooth="yes"/>
      <point x="258" y="347"/>
      <point x="212" y="239"/>
      <point x="201" y="219" type="curve"/>
      <point x="208" y="206"/>
      <point x="282" y="59"/>
      <point x="296" y="35" type="curve"/>
      <point x="283" y="33"/>
      <point x="231" y="11"/>
      <point x="217" y="2" type="curve"/>
      <point x="215" y="21"/>
      <point x="165" y="143"/>
      <point x="158" y="159" type="curve"/>
      <point x="151" y="137" type="line"/>
      <point x="151" y="137"/>
      <point x="84" y="-4"/>
      <point x="79" y="-25" type="curve"/>
      <point x="66" y="-19"/>
      <point x="26" y="-6"/>
      <point x="11" y="-5" type="curve"/>
      <point x="25" y="22"/>
      <point x="106" y="201"/>
      <point x="118" y="226" type="curve"/>
      <point x="105" y="252"/>
      <point x="29" y="413"/>
      <point x="18" y="433" type="curve"/>
      <point x="29" y="437"/>
      <point x="84" y="462"/>
      <point x="95" y="468" type="curve"/>
      <point x="99" y="454"/>
      <point x="158" y="321"/>
      <point x="169" y="289" type="curve"/>
      <point x="185" y="329"/>
      <point x="237" y="458"/>
      <point x="241" y="473" type="curve"/>
      <point x="251" y="467"/>
      <point x="281" y="454"/>
    </contour>
  </outline>
</glyph>
<glyph name="y" format="1">
  <advance width="335"/>
  <unicode hex="0079"/>
  <outline>
    <contour>
      <point x="331" y="442" type="curve"/>
      <point x="318" y="404"/>
      <point x="151" y="-143"/>
      <point x="139" y="-190" type="curve"/>
      <point x="114" y="-183"/>
      <point x="93" y="-178"/>
      <point x="67" y="-176" type="curve"/>
      <point x="84" y="-137"/>
      <point x="132" y="24"/>
      <point x="138" y="43" type="curve"/>
      <point x="135" y="54"/>
      <point x="118" y="109"/>
      <point x="111" y="133" type="curve" smooth="yes"/>
      <point x="99" y="175"/>
      <point x="13" y="424"/>
      <point x="3" y="451" type="curve"/>
      <point x="31" y="458"/>
      <point x="62" y="461"/>
      <point x="77" y="471" type="curve"/>
      <point x="101" y="403"/>
      <point x="178" y="155"/>
      <point x="178" y="155" type="curve"/>
      <point x="190" y="191"/>
      <point x="259" y="440"/>
      <point x="262" y="462" type="curve"/>
      <point x="277" y="452"/>
      <point x="317" y="442"/>
    </contour>
  </outline>
</glyph>
<glyph name="z" format="1">
  <advance width="299"/>
  <unicode hex="007A"/>
  <outline>
    <contour>
      <point x="285" y="443" type="curve"/>
      <point x="278" y="435"/>
      <point x="221" y="319"/>
      <point x="215" y="309" type="curve" smooth="yes"/>
      <point x="206" y="294"/>
      <point x="120" y="94"/>
      <point x="106" y="66" type="curve"/>
      <point x="126" y="64"/>
      <point x="256" y="43"/>
      <point x="279" y="43" type="curve"/>
      <point x="272" y="24"/>
      <point x="268" y="-1"/>
      <point x="267" y="-20" type="curve"/>
      <point x="248" y="-18"/>
      <point x="157" y="-2"/>
      <point x="111" y="3" type="curve" smooth="yes"/>
      <point x="71" y="8"/>
      <point x="34" y="13"/>
      <point x="9" y="13" type="curve"/>
      <point x="26" y="62"/>
      <point x="122" y="278"/>
      <point x="131" y="297" type="curve" smooth="yes"/>
      <point x="148" y="333"/>
      <point x="167" y="379"/>
      <point x="173" y="388" type="curve"/>
      <point x="160" y="388"/>
      <point x="89" y="393"/>
      <point x="89" y="393" type="curve"/>
      <point x="37" y="398" type="line"/>
      <point x="41" y="415"/>
      <point x="44" y="444"/>
      <point x="44" y="461" type="curve"/>
      <point x="80" y="457"/>
      <point x="258" y="444"/>
    </contour>
  </outline>
</glyph>
<glyph name="braceleft" format="1">
  <advance width="278"/>
  <unicode hex="007B"/>
  <outline>
    <contour>
      <point x="271" y="706" type="curve"/>
      <point x="214" y="676"/>
      <point x="180" y="616"/>
      <point x="180" y="539" type="curve" smooth="yes"/>
      <point x="180" y="508"/>
      <point x="186" y="466"/>
      <point x="199" y="427" type="curve" smooth="yes"/>
      <point x="202" y="418"/>
      <point x="203" y="409"/>
      <point x="203" y="401" type="curve" smooth="yes"/>
      <point x="203" y="363"/>
      <point x="173" y="325"/>
      <point x="127" y="314" type="curve"/>
      <point x="155" y="299"/>
      <point x="176" y="274"/>
      <point x="176" y="247" type="curve" smooth="yes"/>
      <point x="176" y="241"/>
      <point x="175" y="234"/>
      <point x="173" y="227" type="curve" smooth="yes"/>
      <point x="152" y="159"/>
      <point x="143" y="106"/>
      <point x="143" y="64" type="curve" smooth="yes"/>
      <point x="143" y="-27"/>
      <point x="191" y="-68"/>
      <point x="267" y="-109" type="curve"/>
      <point x="259" y="-125"/>
      <point x="246" y="-156"/>
      <point x="242" y="-170" type="curve"/>
      <point x="148" y="-141"/>
      <point x="71" y="-77"/>
      <point x="71" y="61" type="curve" smooth="yes"/>
      <point x="71" y="104"/>
      <point x="80" y="154"/>
      <point x="98" y="214" type="curve"/>
      <point x="99" y="219"/>
      <point x="100" y="223"/>
      <point x="100" y="228" type="curve" smooth="yes"/>
      <point x="100" y="257"/>
      <point x="72" y="289"/>
      <point x="19" y="300" type="curve"/>
      <point x="23" y="314"/>
      <point x="28" y="338"/>
      <point x="28" y="352" type="curve"/>
      <point x="74" y="346"/>
      <point x="127" y="366"/>
      <point x="127" y="398" type="curve" smooth="yes"/>
      <point x="127" y="401"/>
      <point x="127" y="403"/>
      <point x="126" y="405" type="curve"/>
      <point x="110" y="452"/>
      <point x="103" y="494"/>
      <point x="103" y="532" type="curve" smooth="yes"/>
      <point x="103" y="658"/>
      <point x="175" y="744"/>
      <point x="257" y="768" type="curve"/>
      <point x="260" y="752"/>
      <point x="265" y="715"/>
    </contour>
  </outline>
</glyph>
<glyph name="bar" format="1">
  <advance width="229"/>
  <unicode hex="007C"/>
  <outline>
    <contour>
      <point x="163" y="702" type="curve"/>
      <point x="151" y="536"/>
      <point x="142" y="22"/>
      <point x="140" y="-169" type="curve"/>
      <point x="115" y="-167"/>
      <point x="82" y="-168"/>
      <point x="63" y="-170" type="curve"/>
      <point x="72" y="12"/>
      <point x="85" y="544"/>
      <point x="80" y="700" type="curve"/>
      <point x="105" y="697"/>
      <point x="137" y="700"/>
    </contour>
  </outline>
</glyph>
<glyph name="braceright" format="1">
  <advance width="278"/>
  <unicode hex="007D"/>
  <outline>
    <contour>
      <point x="262" y="279" type="curve"/>
      <point x="224" y="272"/>
      <point x="202" y="236"/>
      <point x="202" y="210" type="curve" smooth="yes"/>
      <point x="202" y="202"/>
      <point x="204" y="196"/>
      <point x="207" y="190" type="curve" smooth="yes"/>
      <point x="220" y="163"/>
      <point x="227" y="130"/>
      <point x="227" y="106" type="curve" smooth="yes"/>
      <point x="227" y="-13"/>
      <point x="130" y="-128"/>
      <point x="31" y="-168" type="curve"/>
      <point x="23" y="-151"/>
      <point x="9" y="-129"/>
      <point x="-4" y="-114" type="curve"/>
      <point x="80" y="-73"/>
      <point x="155" y="17"/>
      <point x="155" y="98" type="curve" smooth="yes"/>
      <point x="155" y="117"/>
      <point x="150" y="135"/>
      <point x="141" y="153" type="curve" smooth="yes"/>
      <point x="134" y="167"/>
      <point x="128" y="188"/>
      <point x="128" y="208" type="curve" smooth="yes"/>
      <point x="128" y="240"/>
      <point x="139" y="275"/>
      <point x="177" y="295" type="curve"/>
      <point x="124" y="307"/>
      <point x="102" y="352"/>
      <point x="102" y="381" type="curve" smooth="yes"/>
      <point x="102" y="388"/>
      <point x="102" y="395"/>
      <point x="104" y="400" type="curve" smooth="yes"/>
      <point x="116" y="435"/>
      <point x="122" y="470"/>
      <point x="122" y="504" type="curve" smooth="yes"/>
      <point x="122" y="591"/>
      <point x="75" y="665"/>
      <point x="-15" y="695" type="curve"/>
      <point x="-5" y="709"/>
      <point x="3" y="735"/>
      <point x="9" y="753" type="curve"/>
      <point x="136" y="727"/>
      <point x="192" y="616"/>
      <point x="192" y="508" type="curve" smooth="yes"/>
      <point x="192" y="471"/>
      <point x="186" y="436"/>
      <point x="174" y="402" type="curve" smooth="yes"/>
      <point x="172" y="397"/>
      <point x="172" y="392"/>
      <point x="172" y="387" type="curve" smooth="yes"/>
      <point x="172" y="362"/>
      <point x="215" y="334"/>
      <point x="262" y="340" type="curve"/>
      <point x="261" y="319"/>
      <point x="261" y="294"/>
    </contour>
  </outline>
</glyph>
<glyph name="asciitilde" format="1">
  <advance width="573"/>
  <unicode hex="007E"/>
  <outline>
    <contour>
      <point x="553" y="370" type="line"/>
      <point x="505" y="292"/>
      <point x="427" y="239"/>
      <point x="350" y="239" type="curve" smooth="yes"/>
      <point x="315" y="239"/>
      <point x="285" y="254"/>
      <point x="259" y="271" type="curve" smooth="yes"/>
      <point x="228" y="291"/>
      <point x="202" y="313"/>
      <point x="178" y="313" type="curve" smooth="yes"/>
      <point x="148" y="313"/>
      <point x="111" y="281"/>
      <point x="89" y="250" type="curve"/>
      <point x="30" y="291" type="line"/>
      <point x="80" y="358"/>
      <point x="137" y="396"/>
      <point x="184" y="396" type="curve" smooth="yes"/>
      <point x="219" y="396"/>
      <point x="249" y="374"/>
      <point x="278" y="353" type="curve" smooth="yes"/>
      <point x="304" y="334"/>
      <point x="330" y="317"/>
      <point x="359" y="317" type="curve" smooth="yes"/>
      <point x="408" y="317"/>
      <point x="464" y="361"/>
      <point x="492" y="410" type="curve"/>
    </contour>
  </outline>
</glyph>
<glyph name="exclamdown" format="1">
  <advance width="173"/>
  <unicode hex="00A1"/>
  <outline>
    <contour>
      <point x="136" y="444" type="curve" smooth="yes"/>
      <point x="136" y="414"/>
      <point x="113" y="395"/>
      <point x="83" y="395" type="curve" smooth="yes"/>
      <point x="55" y="395"/>
      <point x="34" y="416"/>
      <point x="34" y="445" type="curve" smooth="yes"/>
      <point x="34" y="471"/>
      <point x="51" y="495"/>
      <point x="82" y="495" type="curve" smooth="yes"/>
      <point x="110" y="495"/>
      <point x="136" y="474"/>
    </contour>
    <contour>
      <point x="136" y="-180" type="curve"/>
      <point x="116" y="-187"/>
      <point x="80" y="-196"/>
      <point x="49" y="-210" type="curve"/>
      <point x="55" y="-106"/>
      <point x="52" y="231"/>
      <point x="57" y="306" type="curve"/>
      <point x="73" y="299"/>
      <point x="96" y="294"/>
      <point x="118" y="292" type="curve"/>
      <point x="119" y="196"/>
      <point x="126" y="-47"/>
    </contour>
  </outline>
</glyph>
<glyph name="cent" format="1">
  <advance width="269"/>
  <unicode hex="00A2"/>
  <outline>
    <contour>
      <point x="257" y="48" type="curve"/>
      <point x="252" y="31"/>
      <point x="243" y="-10"/>
      <point x="242" y="-25" type="curve"/>
      <point x="223" y="-22"/>
      <point x="205" y="-18"/>
      <point x="188" y="-13" type="curve"/>
      <point x="186" y="-108" type="line"/>
      <point x="121" y="-102" type="line"/>
      <point x="124" y="14" type="line"/>
      <point x="50" y="56"/>
      <point x="17" y="126"/>
      <point x="17" y="232" type="curve" smooth="yes"/>
      <point x="17" y="293"/>
      <point x="30" y="352"/>
      <point x="55" y="386" type="curve" smooth="yes"/>
      <point x="75" y="413"/>
      <point x="95" y="431"/>
      <point x="122" y="444" type="curve"/>
      <point x="120" y="556" type="line"/>
      <point x="188" y="554" type="line"/>
      <point x="191" y="465" type="line"/>
      <point x="206" y="468"/>
      <point x="223" y="471"/>
      <point x="241" y="473" type="curve"/>
      <point x="249" y="406" type="line"/>
      <point x="228" y="405"/>
      <point x="194" y="398"/>
      <point x="187" y="396" type="curve" smooth="yes"/>
      <point x="130" y="378"/>
      <point x="93" y="336"/>
      <point x="93" y="242" type="curve" smooth="yes"/>
      <point x="93" y="163"/>
      <point x="113" y="84"/>
      <point x="203" y="60" type="curve" smooth="yes"/>
      <point x="218" y="56"/>
      <point x="240" y="48"/>
    </contour>
  </outline>
</glyph>
<glyph name="sterling" format="1">
  <advance width="341"/>
  <unicode hex="00A3"/>
  <outline>
    <contour>
      <point x="340" y="58" type="line"/>
      <point x="299" y="3"/>
      <point x="228" y="-13"/>
      <point x="152" y="-13" type="curve" smooth="yes"/>
      <point x="110" y="-13"/>
      <point x="68" y="-7"/>
      <point x="34" y="1" type="curve"/>
      <point x="25" y="50" type="line"/>
      <point x="70" y="59"/>
      <point x="113" y="111"/>
      <point x="113" y="165" type="curve" smooth="yes"/>
      <point x="113" y="213"/>
      <point x="103" y="253"/>
      <point x="92" y="292" type="curve"/>
      <point x="59" y="293"/>
      <point x="32" y="294"/>
      <point x="23" y="293" type="curve"/>
      <point x="29" y="312"/>
      <point x="34" y="340"/>
      <point x="35" y="351" type="curve"/>
      <point x="42" y="350"/>
      <point x="57" y="350"/>
      <point x="77" y="349" type="curve"/>
      <point x="68" y="383"/>
      <point x="62" y="420"/>
      <point x="62" y="464" type="curve" smooth="yes"/>
      <point x="62" y="551"/>
      <point x="112" y="670"/>
      <point x="203" y="670" type="curve" smooth="yes"/>
      <point x="239" y="670"/>
      <point x="268" y="657"/>
      <point x="301" y="643" type="curve"/>
      <point x="279" y="576" type="line"/>
      <point x="254" y="587"/>
      <point x="240" y="597"/>
      <point x="214" y="597" type="curve" smooth="yes"/>
      <point x="162" y="597"/>
      <point x="133" y="523"/>
      <point x="133" y="450" type="curve" smooth="yes"/>
      <point x="133" y="413"/>
      <point x="140" y="371"/>
      <point x="147" y="347" type="curve"/>
      <point x="204" y="346"/>
      <point x="263" y="345"/>
      <point x="273" y="346" type="curve"/>
      <point x="269" y="334"/>
      <point x="263" y="302"/>
      <point x="262" y="284" type="curve"/>
      <point x="253" y="285"/>
      <point x="213" y="287"/>
      <point x="168" y="289" type="curve"/>
      <point x="178" y="262"/>
      <point x="184" y="224"/>
      <point x="184" y="184" type="curve" smooth="yes"/>
      <point x="184" y="134"/>
      <point x="172" y="84"/>
      <point x="142" y="58" type="curve"/>
      <point x="155" y="56"/>
      <point x="167" y="55"/>
      <point x="180" y="55" type="curve" smooth="yes"/>
      <point x="221" y="55"/>
      <point x="261" y="68"/>
      <point x="292" y="106" type="curve"/>
    </contour>
  </outline>
</glyph>
<glyph name="yen" format="1">
  <advance width="369"/>
  <unicode hex="00A5"/>
  <outline>
    <contour>
      <point x="349" y="645" type="curve"/>
      <point x="313" y="553"/>
      <point x="252" y="384"/>
      <point x="230" y="321" type="curve"/>
      <point x="230" y="311"/>
      <point x="231" y="295"/>
      <point x="232" y="266" type="curve"/>
      <point x="280" y="266"/>
      <point x="327" y="265"/>
      <point x="335" y="266" type="curve"/>
      <point x="331" y="254"/>
      <point x="325" y="222"/>
      <point x="324" y="204" type="curve"/>
      <point x="316" y="205"/>
      <point x="275" y="207"/>
      <point x="232" y="208" type="curve"/>
      <point x="232" y="192"/>
      <point x="233" y="176"/>
      <point x="233" y="159" type="curve"/>
      <point x="273" y="160"/>
      <point x="312" y="161"/>
      <point x="323" y="162" type="curve"/>
      <point x="324" y="151"/>
      <point x="329" y="123"/>
      <point x="335" y="104" type="curve"/>
      <point x="325" y="104"/>
      <point x="279" y="104"/>
      <point x="234" y="102" type="curve"/>
      <point x="234" y="59"/>
      <point x="234" y="22"/>
      <point x="233" y="3" type="curve"/>
      <point x="213" y="4"/>
      <point x="172" y="5"/>
      <point x="148" y="5" type="curve"/>
      <point x="150" y="24"/>
      <point x="152" y="59"/>
      <point x="154" y="99" type="curve"/>
      <point x="112" y="98"/>
      <point x="74" y="96"/>
      <point x="66" y="95" type="curve"/>
      <point x="65" y="113"/>
      <point x="59" y="145"/>
      <point x="55" y="157" type="curve"/>
      <point x="63" y="157"/>
      <point x="108" y="157"/>
      <point x="156" y="157" type="curve"/>
      <point x="157" y="175"/>
      <point x="157" y="193"/>
      <point x="158" y="211" type="curve"/>
      <point x="111" y="213"/>
      <point x="65" y="214"/>
      <point x="55" y="213" type="curve"/>
      <point x="61" y="232"/>
      <point x="66" y="260"/>
      <point x="67" y="271" type="curve"/>
      <point x="78" y="270"/>
      <point x="117" y="269"/>
      <point x="158" y="268" type="curve"/>
      <point x="158" y="285"/>
      <point x="159" y="293"/>
      <point x="159" y="307" type="curve"/>
      <point x="129" y="389"/>
      <point x="44" y="581"/>
      <point x="16" y="642" type="curve"/>
      <point x="44" y="647"/>
      <point x="82" y="661"/>
      <point x="105" y="673" type="curve"/>
      <point x="113" y="637"/>
      <point x="166" y="476"/>
      <point x="195" y="404" type="curve"/>
      <point x="220" y="494"/>
      <point x="248" y="595"/>
      <point x="262" y="677" type="curve"/>
      <point x="291" y="663"/>
      <point x="321" y="653"/>
    </contour>
  </outline>
</glyph>
<glyph name="section" format="1">
  <advance width="368"/>
  <unicode hex="00A7"/>
  <outline>
    <contour>
      <point x="353" y="285" type="curve" smooth="yes"/>
      <point x="353" y="196"/>
      <point x="316" y="139"/>
      <point x="250" y="93" type="curve"/>
      <point x="281" y="69"/>
      <point x="302" y="38"/>
      <point x="302" y="-5" type="curve" smooth="yes"/>
      <point x="302" y="-118"/>
      <point x="232" y="-176"/>
      <point x="79" y="-194" type="curve"/>
      <point x="80" y="-167"/>
      <point x="79" y="-143"/>
      <point x="78" y="-115" type="curve"/>
      <point x="170" y="-115"/>
      <point x="228" y="-73"/>
      <point x="228" y="-20" type="curve" smooth="yes"/>
      <point x="228" y="19"/>
      <point x="173" y="47"/>
      <point x="120" y="83" type="curve" smooth="yes"/>
      <point x="67" y="119"/>
      <point x="15" y="163"/>
      <point x="15" y="231" type="curve" smooth="yes"/>
      <point x="15" y="313"/>
      <point x="56" y="358"/>
      <point x="127" y="401" type="curve"/>
      <point x="91" y="429"/>
      <point x="64" y="462"/>
      <point x="64" y="511" type="curve" smooth="yes"/>
      <point x="64" y="611"/>
      <point x="170" y="680"/>
      <point x="295" y="675" type="curve"/>
      <point x="295" y="657"/>
      <point x="291" y="623"/>
      <point x="293" y="603" type="curve"/>
      <point x="204" y="601"/>
      <point x="144" y="575"/>
      <point x="144" y="522" type="curve" smooth="yes"/>
      <point x="144" y="473"/>
      <point x="192" y="448"/>
      <point x="243" y="419" type="curve" smooth="yes"/>
      <point x="296" y="389"/>
      <point x="353" y="354"/>
    </contour>
    <contour>
      <point x="279" y="270" type="curve" smooth="yes"/>
      <point x="279" y="308"/>
      <point x="237" y="332"/>
      <point x="192" y="359" type="curve"/>
      <point x="133" y="335"/>
      <point x="94" y="283"/>
      <point x="94" y="242" type="curve" smooth="yes"/>
      <point x="94" y="192"/>
      <point x="140" y="165"/>
      <point x="189" y="135" type="curve"/>
      <point x="236" y="162"/>
      <point x="279" y="209"/>
    </contour>
  </outline>
</glyph>
<glyph name="dieresis" format="1">
  <advance width="280"/>
  <unicode hex="00A8"/>
  <outline>
    <contour>
      <point x="244" y="578" type="curve" smooth="yes"/>
      <point x="244" y="550"/>
      <point x="222" y="528"/>
      <point x="199" y="528" type="curve" smooth="yes"/>
      <point x="168" y="528"/>
      <point x="151" y="555"/>
      <point x="151" y="574" type="curve" smooth="yes"/>
      <point x="151" y="594"/>
      <point x="171" y="620"/>
      <point x="198" y="620" type="curve" smooth="yes"/>
      <point x="228" y="620"/>
      <point x="244" y="604"/>
    </contour>
    <contour>
      <point x="116" y="561" type="curve" smooth="yes"/>
      <point x="116" y="531"/>
      <point x="95" y="505"/>
      <point x="68" y="505" type="curve" smooth="yes"/>
      <point x="42" y="505"/>
      <point x="24" y="529"/>
      <point x="24" y="558" type="curve" smooth="yes"/>
      <point x="24" y="590"/>
      <point x="46" y="606"/>
      <point x="67" y="606" type="curve" smooth="yes"/>
      <point x="93" y="606"/>
      <point x="116" y="582"/>
    </contour>
  </outline>
</glyph>
<glyph name="copyright" format="1">
  <advance width="583"/>
  <unicode hex="00A9"/>
  <outline>
    <contour>
      <point x="553" y="317" type="curve" smooth="yes"/>
      <point x="553" y="171"/>
      <point x="460" y="-4"/>
      <point x="305" y="-4" type="curve" smooth="yes"/>
      <point x="158" y="-4"/>
      <point x="30" y="154"/>
      <point x="30" y="344" type="curve" smooth="yes"/>
      <point x="30" y="534"/>
      <point x="137" y="681"/>
      <point x="321" y="681" type="curve" smooth="yes"/>
      <point x="456" y="681"/>
      <point x="553" y="471"/>
    </contour>
    <contour>
      <point x="498" y="310" type="curve" smooth="yes"/>
      <point x="498" y="449"/>
      <point x="422" y="633"/>
      <point x="308" y="633" type="curve" smooth="yes"/>
      <point x="155" y="633"/>
      <point x="82" y="492"/>
      <point x="82" y="342" type="curve" smooth="yes"/>
      <point x="82" y="189"/>
      <point x="184" y="44"/>
      <point x="294" y="44" type="curve" smooth="yes"/>
      <point x="414" y="44"/>
      <point x="498" y="171"/>
    </contour>
    <contour>
      <point x="361" y="162" type="curve"/>
      <point x="358" y="150"/>
      <point x="356" y="132"/>
      <point x="354" y="111" type="curve"/>
      <point x="201" y="137"/>
      <point x="165" y="219"/>
      <point x="165" y="349" type="curve" smooth="yes"/>
      <point x="165" y="468"/>
      <point x="212" y="567"/>
      <point x="320" y="567" type="curve" smooth="yes"/>
      <point x="331" y="567"/>
      <point x="343" y="565"/>
      <point x="355" y="563" type="curve"/>
      <point x="353" y="551"/>
      <point x="354" y="539"/>
      <point x="356" y="523" type="curve"/>
      <point x="281" y="526"/>
      <point x="223" y="490"/>
      <point x="223" y="347" type="curve" smooth="yes"/>
      <point x="223" y="232"/>
      <point x="259" y="175"/>
    </contour>
  </outline>
</glyph>
<glyph name="ordfeminine" format="1">
  <advance width="253"/>
  <unicode hex="00AA"/>
  <outline>
    <contour>
      <point x="214" y="348" type="curve"/>
      <point x="199" y="346"/>
      <point x="179" y="341"/>
      <point x="164" y="334" type="curve"/>
      <point x="162" y="339"/>
      <point x="158" y="375"/>
      <point x="156" y="391" type="curve"/>
      <point x="140" y="373"/>
      <point x="106" y="351"/>
      <point x="76" y="351" type="curve" smooth="yes"/>
      <point x="51" y="351"/>
      <point x="15" y="388"/>
      <point x="15" y="448" type="curve" smooth="yes"/>
      <point x="15" y="476"/>
      <point x="26" y="515"/>
      <point x="57" y="531" type="curve" smooth="yes"/>
      <point x="101" y="554"/>
      <point x="137" y="563"/>
      <point x="156" y="569" type="curve"/>
      <point x="154" y="600"/>
      <point x="153" y="613"/>
      <point x="139" y="619" type="curve" smooth="yes"/>
      <point x="123" y="625"/>
      <point x="99" y="632"/>
      <point x="72" y="632" type="curve"/>
      <point x="72" y="632"/>
      <point x="76" y="670"/>
      <point x="75" y="684" type="curve"/>
      <point x="111" y="680"/>
      <point x="162" y="671"/>
      <point x="180" y="660" type="curve" smooth="yes"/>
      <point x="201" y="647"/>
      <point x="208" y="615"/>
      <point x="208" y="597" type="curve" smooth="yes"/>
      <point x="208" y="592"/>
      <point x="209" y="490"/>
      <point x="209" y="423" type="curve" smooth="yes"/>
      <point x="209" y="394"/>
      <point x="210" y="359"/>
    </contour>
    <contour>
      <point x="156" y="521" type="curve"/>
      <point x="145" y="516"/>
      <point x="114" y="505"/>
      <point x="102" y="499" type="curve" smooth="yes"/>
      <point x="91" y="493"/>
      <point x="70" y="475"/>
      <point x="70" y="457" type="curve" smooth="yes"/>
      <point x="70" y="423"/>
      <point x="80" y="407"/>
      <point x="97" y="407" type="curve" smooth="yes"/>
      <point x="120" y="407"/>
      <point x="150" y="439"/>
      <point x="153" y="443" type="curve"/>
      <point x="155" y="449"/>
      <point x="157" y="504"/>
    </contour>
  </outline>
</glyph>
<glyph name="guillemotleft" format="1">
  <advance width="352"/>
  <unicode hex="00AB"/>
  <outline>
    <contour>
      <point x="338" y="94" type="curve"/>
      <point x="327" y="90"/>
      <point x="290" y="66"/>
      <point x="278" y="56" type="curve"/>
      <point x="264" y="82"/>
      <point x="197" y="182"/>
      <point x="176" y="203" type="curve"/>
      <point x="176" y="265" type="line"/>
      <point x="184" y="272"/>
      <point x="269" y="388"/>
      <point x="281" y="409" type="curve"/>
      <point x="288" y="401"/>
      <point x="325" y="372"/>
      <point x="337" y="365" type="curve"/>
      <point x="326" y="353"/>
      <point x="258" y="250"/>
      <point x="252" y="235" type="curve"/>
      <point x="260" y="215"/>
      <point x="312" y="127"/>
    </contour>
    <contour>
      <point x="185" y="368" type="curve"/>
      <point x="159" y="335"/>
      <point x="107" y="247"/>
      <point x="99" y="227" type="curve"/>
      <point x="105" y="212"/>
      <point x="173" y="109"/>
      <point x="184" y="97" type="curve"/>
      <point x="172" y="90"/>
      <point x="135" y="61"/>
      <point x="128" y="53" type="curve"/>
      <point x="116" y="74"/>
      <point x="31" y="190"/>
      <point x="23" y="197" type="curve"/>
      <point x="23" y="259" type="line"/>
      <point x="44" y="280"/>
      <point x="111" y="380"/>
      <point x="125" y="406" type="curve"/>
      <point x="137" y="396"/>
      <point x="174" y="372"/>
    </contour>
  </outline>
</glyph>
<glyph name="macron" format="1">
  <advance width="280"/>
  <unicode hex="00AF"/>
  <unicode hex="02C9"/>
  <outline>
    <contour>
      <point x="227" y="567" type="line"/>
      <point x="220" y="510" type="line"/>
      <point x="44" y="499" type="line"/>
      <point x="30" y="562" type="line"/>
    </contour>
  </outline>
</glyph>
<glyph name="degree" format="1">
  <advance width="318"/>
  <unicode hex="00B0"/>
  <outline>
    <contour>
      <point x="299" y="559" type="curve" smooth="yes"/>
      <point x="299" y="480"/>
      <point x="228" y="417"/>
      <point x="155" y="419" type="curve" smooth="yes"/>
      <point x="87" y="420"/>
      <point x="16" y="474"/>
      <point x="16" y="550" type="curve" smooth="yes"/>
      <point x="16" y="594"/>
      <point x="37" y="635"/>
      <point x="75" y="658" type="curve" smooth="yes"/>
      <point x="96" y="671"/>
      <point x="124" y="676"/>
      <point x="155" y="676" type="curve" smooth="yes"/>
      <point x="235" y="676"/>
      <point x="299" y="640"/>
    </contour>
    <contour>
      <point x="234" y="546" type="curve" smooth="yes"/>
      <point x="234" y="585"/>
      <point x="209" y="616"/>
      <point x="165" y="616" type="curve" smooth="yes"/>
      <point x="156" y="616"/>
      <point x="147" y="615"/>
      <point x="138" y="612" type="curve"/>
      <point x="107" y="606"/>
      <point x="84" y="592"/>
      <point x="84" y="554" type="curve" smooth="yes"/>
      <point x="84" y="511"/>
      <point x="124" y="480"/>
      <point x="161" y="480" type="curve" smooth="yes"/>
      <point x="206" y="480"/>
      <point x="234" y="523"/>
    </contour>
  </outline>
</glyph>
<glyph name="acute" format="1">
  <advance width="280"/>
  <unicode hex="00B4"/>
  <outline>
    <contour>
      <point x="215" y="585" type="line"/>
      <point x="83" y="498" type="line"/>
      <point x="54" y="534" type="line"/>
      <point x="171" y="646" type="line"/>
    </contour>
  </outline>
</glyph>
<glyph name="paragraph" format="1">
  <advance width="407"/>
  <unicode hex="00B6"/>
  <outline>
    <contour>
      <point x="367" y="19" type="curve"/>
      <point x="350" y="23"/>
      <point x="321" y="26"/>
      <point x="298" y="27" type="curve"/>
      <point x="301" y="170"/>
      <point x="298" y="490"/>
      <point x="291" y="616" type="curve"/>
      <point x="198" y="611"/>
      <point x="92" y="569"/>
      <point x="92" y="486" type="curve" smooth="yes"/>
      <point x="92" y="430"/>
      <point x="139" y="383"/>
      <point x="182" y="378" type="curve"/>
      <point x="181" y="433"/>
      <point x="179" y="479"/>
      <point x="178" y="506" type="curve"/>
      <point x="203" y="503"/>
      <point x="232" y="504"/>
      <point x="253" y="504" type="curve"/>
      <point x="247" y="412"/>
      <point x="241" y="61"/>
      <point x="244" y="-38" type="curve"/>
      <point x="225" y="-35"/>
      <point x="201" y="-35"/>
      <point x="185" y="-37" type="curve"/>
      <point x="187" y="19"/>
      <point x="186" y="169"/>
      <point x="183" y="303" type="curve"/>
      <point x="84" y="324"/>
      <point x="14" y="403"/>
      <point x="14" y="504" type="curve" smooth="yes"/>
      <point x="14" y="620"/>
      <point x="194" y="680"/>
      <point x="316" y="680" type="curve" smooth="yes"/>
      <point x="333" y="680"/>
      <point x="348" y="678"/>
      <point x="361" y="675" type="curve"/>
      <point x="359" y="539"/>
      <point x="359" y="145"/>
    </contour>
  </outline>
</glyph>
<glyph name="periodcentered" format="1">
  <advance width="157"/>
  <unicode hex="00B7"/>
  <unicode hex="2219"/>
  <outline>
    <contour>
      <point x="129" y="330" type="curve" smooth="yes"/>
      <point x="129" y="304"/>
      <point x="112" y="280"/>
      <point x="81" y="280" type="curve" smooth="yes"/>
      <point x="52" y="280"/>
      <point x="27" y="301"/>
      <point x="27" y="331" type="curve" smooth="yes"/>
      <point x="27" y="361"/>
      <point x="50" y="380"/>
      <point x="80" y="380" type="curve" smooth="yes"/>
      <point x="108" y="380"/>
      <point x="129" y="359"/>
    </contour>
  </outline>
</glyph>
<glyph name="cedilla" format="1">
  <advance width="280"/>
  <unicode hex="00B8"/>
  <outline>
    <contour>
      <point x="179" y="-93" type="curve" smooth="yes"/>
      <point x="179" y="-129"/>
      <point x="159" y="-174"/>
      <point x="94" y="-185" type="curve"/>
      <point x="79" y="-140" type="line"/>
      <point x="103" y="-134"/>
      <point x="116" y="-123"/>
      <point x="116" y="-102" type="curve" smooth="yes"/>
      <point x="116" y="-79"/>
      <point x="101" y="-63"/>
      <point x="68" y="-55" type="curve"/>
      <point x="113" y="39" type="line"/>
      <point x="156" y="23" type="line"/>
      <point x="129" y="-29" type="line"/>
      <point x="161" y="-38"/>
      <point x="179" y="-66"/>
    </contour>
  </outline>
</glyph>
<glyph name="ordmasculine" format="1">
  <advance width="266"/>
  <unicode hex="00BA"/>
  <outline>
    <contour>
      <point x="236" y="542" type="curve" smooth="yes"/>
      <point x="236" y="432"/>
      <point x="183" y="362"/>
      <point x="123" y="362" type="curve" smooth="yes"/>
      <point x="86" y="362"/>
      <point x="54" y="375"/>
      <point x="37" y="418" type="curve" smooth="yes"/>
      <point x="26" y="445"/>
      <point x="15" y="472"/>
      <point x="15" y="515" type="curve" smooth="yes"/>
      <point x="15" y="631"/>
      <point x="62" y="679"/>
      <point x="124" y="679" type="curve" smooth="yes"/>
      <point x="181" y="679"/>
      <point x="236" y="646"/>
    </contour>
    <contour>
      <point x="181" y="522" type="curve" smooth="yes"/>
      <point x="181" y="601"/>
      <point x="145" y="626"/>
      <point x="116" y="626" type="curve" smooth="yes"/>
      <point x="88" y="626"/>
      <point x="71" y="603"/>
      <point x="71" y="528" type="curve" smooth="yes"/>
      <point x="71" y="459"/>
      <point x="98" y="416"/>
      <point x="128" y="416" type="curve" smooth="yes"/>
      <point x="156" y="416"/>
      <point x="181" y="448"/>
    </contour>
  </outline>
</glyph>
<glyph name="guillemotright" format="1">
  <advance width="352"/>
  <unicode hex="00BB"/>
  <outline>
    <contour>
      <point x="329" y="203" type="line"/>
      <point x="308" y="182"/>
      <point x="241" y="82"/>
      <point x="227" y="56" type="curve"/>
      <point x="215" y="66"/>
      <point x="178" y="90"/>
      <point x="167" y="94" type="curve"/>
      <point x="193" y="127"/>
      <point x="245" y="215"/>
      <point x="253" y="235" type="curve"/>
      <point x="247" y="250"/>
      <point x="179" y="353"/>
      <point x="168" y="365" type="curve"/>
      <point x="180" y="372"/>
      <point x="217" y="401"/>
      <point x="224" y="409" type="curve"/>
      <point x="236" y="388"/>
      <point x="321" y="272"/>
      <point x="329" y="265" type="curve"/>
    </contour>
    <contour>
      <point x="176" y="197" type="line"/>
      <point x="168" y="190"/>
      <point x="83" y="74"/>
      <point x="71" y="53" type="curve"/>
      <point x="64" y="61"/>
      <point x="27" y="90"/>
      <point x="15" y="97" type="curve"/>
      <point x="26" y="109"/>
      <point x="94" y="212"/>
      <point x="100" y="227" type="curve"/>
      <point x="92" y="247"/>
      <point x="40" y="335"/>
      <point x="14" y="368" type="curve"/>
      <point x="25" y="372"/>
      <point x="62" y="396"/>
      <point x="74" y="406" type="curve"/>
      <point x="88" y="380"/>
      <point x="155" y="280"/>
      <point x="176" y="259" type="curve"/>
    </contour>
  </outline>
</glyph>
<glyph name="questiondown" format="1">
  <advance width="228"/>
  <unicode hex="00BF"/>
  <outline>
    <contour>
      <point x="178" y="418" type="curve" smooth="yes"/>
      <point x="178" y="389"/>
      <point x="156" y="371"/>
      <point x="127" y="371" type="curve" smooth="yes"/>
      <point x="99" y="371"/>
      <point x="79" y="391"/>
      <point x="79" y="419" type="curve" smooth="yes"/>
      <point x="79" y="445"/>
      <point x="94" y="468"/>
      <point x="125" y="468" type="curve" smooth="yes"/>
      <point x="153" y="468"/>
      <point x="178" y="448"/>
    </contour>
    <contour>
      <point x="224" y="-133" type="curve"/>
      <point x="216" y="-150"/>
      <point x="203" y="-189"/>
      <point x="195" y="-207" type="curve"/>
      <point x="71" y="-180"/>
      <point x="14" y="-136"/>
      <point x="14" y="-55" type="curve" smooth="yes"/>
      <point x="14" y="10"/>
      <point x="51" y="100"/>
      <point x="118" y="222" type="curve"/>
      <point x="87" y="308" type="line"/>
      <point x="148" y="334" type="line"/>
      <point x="190" y="213" type="line"/>
      <point x="130" y="115"/>
      <point x="94" y="29"/>
      <point x="94" y="-26" type="curve" smooth="yes"/>
      <point x="94" y="-89"/>
      <point x="139" y="-117"/>
    </contour>
  </outline>
</glyph>
<glyph name="Aring" format="1">
  <advance width="369"/>
  <unicode hex="00C5"/>
  <outline>
    <contour>
      <point x="354" y="-2" type="curve"/>
      <point x="343" y="-4"/>
      <point x="289" y="-18"/>
      <point x="278" y="-22" type="curve"/>
      <point x="276" y="-2"/>
      <point x="258" y="64"/>
      <point x="253" y="104" type="curve" smooth="yes"/>
      <point x="251" y="117"/>
      <point x="250" y="130"/>
      <point x="249" y="139" type="curve"/>
      <point x="230" y="139"/>
      <point x="130" y="132"/>
      <point x="115" y="132" type="curve"/>
      <point x="112" y="113"/>
      <point x="90" y="1"/>
      <point x="88" y="-19" type="curve"/>
      <point x="73" y="-11"/>
      <point x="31" y="4"/>
      <point x="15" y="9" type="curve"/>
      <point x="22" y="39"/>
      <point x="82" y="350"/>
      <point x="114" y="571" type="curve" smooth="yes"/>
      <point x="119" y="607"/>
      <point x="127" y="658"/>
      <point x="127" y="664" type="curve"/>
      <point x="138" y="665"/>
      <point x="201" y="669"/>
      <point x="207" y="671" type="curve"/>
      <point x="212" y="647"/>
      <point x="347" y="29"/>
    </contour>
    <contour>
      <point x="228" y="214" type="curve"/>
      <point x="217" y="266"/>
      <point x="181" y="459"/>
      <point x="169" y="504" type="curve"/>
      <point x="164" y="457"/>
      <point x="127" y="236"/>
      <point x="122" y="204" type="curve"/>
      <point x="145" y="210"/>
      <point x="199" y="208"/>
    </contour>
    <contour>
      <point x="257" y="796" type="curve" smooth="yes"/>
      <point x="257" y="743"/>
      <point x="208" y="708"/>
      <point x="163" y="708" type="curve" smooth="yes"/>
      <point x="113" y="708"/>
      <point x="68" y="754"/>
      <point x="68" y="804" type="curve" smooth="yes"/>
      <point x="68" y="858"/>
      <point x="119" y="880"/>
      <point x="164" y="880" type="curve" smooth="yes"/>
      <point x="194" y="880"/>
      <point x="214" y="874"/>
      <point x="228" y="861" type="curve" smooth="yes"/>
      <point x="248" y="844"/>
      <point x="257" y="817"/>
    </contour>
    <contour>
      <point x="207" y="801" type="curve" smooth="yes"/>
      <point x="207" y="823"/>
      <point x="187" y="836"/>
      <point x="159" y="836" type="curve" smooth="yes"/>
      <point x="129" y="836"/>
      <point x="117" y="813"/>
      <point x="117" y="798" type="curve" smooth="yes"/>
      <point x="117" y="787"/>
      <point x="119" y="778"/>
      <point x="127" y="770" type="curve" smooth="yes"/>
      <point x="136" y="761"/>
      <point x="146" y="754"/>
      <point x="157" y="754" type="curve" smooth="yes"/>
      <point x="188" y="754"/>
      <point x="207" y="775"/>
    </contour>
  </outline>
</glyph>
<glyph name="AE" format="1">
  <advance width="555"/>
  <unicode hex="00C6"/>
  <outline>
    <contour>
      <point x="527" y="72" type="curve"/>
      <point x="526" y="61"/>
      <point x="519" y="19"/>
      <point x="515" y="-6" type="curve"/>
      <point x="505" y="-4"/>
      <point x="452" y="-3"/>
      <point x="412" y="-2" type="curve" smooth="yes"/>
      <point x="345" y="1"/>
      <point x="272" y="3"/>
      <point x="239" y="4" type="curve"/>
      <point x="240" y="26"/>
      <point x="242" y="77"/>
      <point x="245" y="138" type="curve"/>
      <point x="198" y="136"/>
      <point x="129" y="134"/>
      <point x="122" y="134" type="curve"/>
      <point x="120" y="119"/>
      <point x="76" y="1"/>
      <point x="74" y="-19" type="curve"/>
      <point x="59" y="-11"/>
      <point x="18" y="4"/>
      <point x="2" y="9" type="curve"/>
      <point x="9" y="39"/>
      <point x="122" y="360"/>
      <point x="176" y="572" type="curve" smooth="yes"/>
      <point x="185" y="607"/>
      <point x="195" y="658"/>
      <point x="195" y="664" type="curve"/>
      <point x="206" y="665"/>
      <point x="273" y="666"/>
      <point x="356" y="666" type="curve" smooth="yes"/>
      <point x="389" y="666"/>
      <point x="500" y="662"/>
      <point x="521" y="662" type="curve"/>
      <point x="517" y="646"/>
      <point x="512" y="604"/>
      <point x="510" y="582" type="curve"/>
      <point x="492" y="585"/>
      <point x="424" y="590"/>
      <point x="388" y="593" type="curve" smooth="yes"/>
      <point x="366" y="595"/>
      <point x="337" y="592"/>
      <point x="326" y="593" type="curve"/>
      <point x="324" y="520"/>
      <point x="326" y="465"/>
      <point x="326" y="393" type="curve"/>
      <point x="343" y="392"/>
      <point x="405" y="392"/>
      <point x="390" y="392" type="curve" smooth="yes"/>
      <point x="383" y="392"/>
      <point x="475" y="395"/>
      <point x="493" y="399" type="curve"/>
      <point x="493" y="384"/>
      <point x="491" y="341"/>
      <point x="491" y="318" type="curve"/>
      <point x="467" y="317"/>
      <point x="387" y="322"/>
      <point x="397" y="320" type="curve"/>
      <point x="406" y="320"/>
      <point x="338" y="320"/>
      <point x="327" y="323" type="curve"/>
      <point x="323" y="259"/>
      <point x="327" y="150"/>
      <point x="327" y="80" type="curve"/>
      <point x="345" y="76"/>
      <point x="382" y="77"/>
      <point x="389" y="76" type="curve" smooth="yes"/>
      <point x="400" y="75"/>
      <point x="499" y="71"/>
    </contour>
    <contour>
      <point x="250" y="298" type="curve" smooth="yes"/>
      <point x="252" y="413"/>
      <point x="251" y="520"/>
      <point x="250" y="593" type="curve"/>
      <point x="246" y="579"/>
      <point x="230" y="510"/>
      <point x="226" y="497" type="curve" smooth="yes"/>
      <point x="218" y="468"/>
      <point x="147" y="232"/>
      <point x="143" y="205" type="curve"/>
      <point x="160" y="210"/>
      <point x="213" y="208"/>
      <point x="248" y="211" type="curve"/>
      <point x="249" y="240"/>
      <point x="249" y="264"/>
    </contour>
  </outline>
</glyph>
<glyph name="Ccedilla" format="1">
  <advance width="353"/>
  <unicode hex="00C7"/>
  <outline>
    <contour>
      <point x="328" y="66" type="curve"/>
      <point x="323" y="48"/>
      <point x="320" y="23"/>
      <point x="318" y="-7" type="curve"/>
      <point x="284" y="-1"/>
      <point x="254" y="6"/>
      <point x="227" y="14" type="curve"/>
      <point x="215" y="-9" type="line"/>
      <point x="247" y="-18"/>
      <point x="265" y="-46"/>
      <point x="265" y="-73" type="curve" smooth="yes"/>
      <point x="265" y="-109"/>
      <point x="245" y="-154"/>
      <point x="180" y="-165" type="curve"/>
      <point x="165" y="-120" type="line"/>
      <point x="189" y="-114"/>
      <point x="202" y="-103"/>
      <point x="202" y="-82" type="curve" smooth="yes"/>
      <point x="202" y="-59"/>
      <point x="187" y="-43"/>
      <point x="154" y="-35" type="curve"/>
      <point x="185" y="30" type="line"/>
      <point x="61" y="85"/>
      <point x="32" y="185"/>
      <point x="32" y="345" type="curve" smooth="yes"/>
      <point x="32" y="515"/>
      <point x="113" y="670"/>
      <point x="268" y="671" type="curve" smooth="yes"/>
      <point x="284" y="671"/>
      <point x="302" y="670"/>
      <point x="320" y="666" type="curve"/>
      <point x="317" y="649"/>
      <point x="319" y="631"/>
      <point x="322" y="609" type="curve"/>
      <point x="317" y="609"/>
      <point x="313" y="609"/>
      <point x="308" y="609" type="curve" smooth="yes"/>
      <point x="208" y="609"/>
      <point x="115" y="550"/>
      <point x="115" y="343" type="curve" smooth="yes"/>
      <point x="115" y="162"/>
      <point x="161" y="87"/>
    </contour>
  </outline>
</glyph>
<glyph name="Eth" format="1">
  <advance width="440"/>
  <unicode hex="00D0"/>
  <outline>
    <contour>
      <point x="408" y="383" type="curve" smooth="yes"/>
      <point x="408" y="143"/>
      <point x="287" y="-2"/>
      <point x="160" y="-2" type="curve" smooth="yes"/>
      <point x="122" y="-2"/>
      <point x="88" y="11"/>
      <point x="64" y="15" type="curve"/>
      <point x="68" y="38"/>
      <point x="70" y="183"/>
      <point x="71" y="290" type="curve"/>
      <point x="49" y="290"/>
      <point x="30" y="291"/>
      <point x="18" y="291" type="curve"/>
      <point x="18" y="310"/>
      <point x="15" y="341"/>
      <point x="13" y="369" type="curve"/>
      <point x="25" y="368"/>
      <point x="46" y="368"/>
      <point x="71" y="368" type="curve"/>
      <point x="71" y="380"/>
      <point x="71" y="390"/>
      <point x="71" y="397" type="curve" smooth="yes"/>
      <point x="71" y="503"/>
      <point x="68" y="633"/>
      <point x="65" y="667" type="curve"/>
      <point x="91" y="675"/>
      <point x="126" y="675"/>
      <point x="153" y="675" type="curve" smooth="yes"/>
      <point x="308" y="675"/>
      <point x="408" y="596"/>
    </contour>
    <contour>
      <point x="325" y="379" type="curve" smooth="yes"/>
      <point x="325" y="579"/>
      <point x="249" y="602"/>
      <point x="149" y="604" type="curve"/>
      <point x="149" y="534"/>
      <point x="149" y="449"/>
      <point x="149" y="369" type="curve"/>
      <point x="176" y="370"/>
      <point x="199" y="372"/>
      <point x="210" y="373" type="curve"/>
      <point x="205" y="348"/>
      <point x="207" y="315"/>
      <point x="207" y="286" type="curve"/>
      <point x="198" y="287"/>
      <point x="176" y="288"/>
      <point x="149" y="288" type="curve"/>
      <point x="149" y="207"/>
      <point x="149" y="129"/>
      <point x="151" y="74" type="curve"/>
      <point x="157" y="73"/>
      <point x="163" y="71"/>
      <point x="169" y="71" type="curve" smooth="yes"/>
      <point x="272" y="71"/>
      <point x="325" y="220"/>
    </contour>
  </outline>
</glyph>
<glyph name="Oslash" format="1">
  <advance width="426"/>
  <unicode hex="00D8"/>
  <outline>
    <contour>
      <point x="430" y="673" type="curve"/>
      <point x="412" y="641"/>
      <point x="388" y="598"/>
      <point x="363" y="551" type="curve"/>
      <point x="382" y="501"/>
      <point x="395" y="435"/>
      <point x="395" y="347" type="curve" smooth="yes"/>
      <point x="395" y="86"/>
      <point x="280" y="-7"/>
      <point x="198" y="-7" type="curve" smooth="yes"/>
      <point x="165" y="-7"/>
      <point x="133" y="11"/>
      <point x="103" y="50" type="curve"/>
      <point x="87" y="17"/>
      <point x="75" y="-8"/>
      <point x="64" y="-30" type="curve"/>
      <point x="43" y="-18"/>
      <point x="14" y="-7"/>
      <point x="-3" y="-1" type="curve"/>
      <point x="15" y="33"/>
      <point x="39" y="76"/>
      <point x="64" y="124" type="curve"/>
      <point x="44" y="180"/>
      <point x="31" y="253"/>
      <point x="31" y="345" type="curve" smooth="yes"/>
      <point x="31" y="556"/>
      <point x="68" y="671"/>
      <point x="201" y="671" type="curve" smooth="yes"/>
      <point x="242" y="671"/>
      <point x="285" y="657"/>
      <point x="318" y="623" type="curve"/>
      <point x="333" y="655"/>
      <point x="348" y="682"/>
      <point x="358" y="703" type="curve"/>
      <point x="378" y="691"/>
      <point x="406" y="681"/>
    </contour>
    <contour>
      <point x="281" y="545" type="curve"/>
      <point x="256" y="589"/>
      <point x="222" y="598"/>
      <point x="189" y="598" type="curve" smooth="yes"/>
      <point x="129" y="598"/>
      <point x="113" y="485"/>
      <point x="113" y="351" type="curve" smooth="yes"/>
      <point x="113" y="308"/>
      <point x="115" y="269"/>
      <point x="119" y="229" type="curve"/>
      <point x="176" y="337"/>
      <point x="233" y="451"/>
    </contour>
    <contour>
      <point x="314" y="344" type="curve" smooth="yes"/>
      <point x="314" y="381"/>
      <point x="312" y="414"/>
      <point x="309" y="449" type="curve"/>
      <point x="252" y="340"/>
      <point x="193" y="225"/>
      <point x="143" y="127" type="curve"/>
      <point x="160" y="88"/>
      <point x="183" y="68"/>
      <point x="211" y="68" type="curve" smooth="yes"/>
      <point x="260" y="68"/>
      <point x="314" y="196"/>
    </contour>
  </outline>
</glyph>
<glyph name="Thorn" format="1">
  <advance width="371"/>
  <unicode hex="00DE"/>
  <outline>
    <contour>
      <point x="356" y="358" type="curve" smooth="yes"/>
      <point x="356" y="270"/>
      <point x="257" y="155"/>
      <point x="134" y="153" type="curve"/>
      <point x="134" y="124"/>
      <point x="135" y="66"/>
      <point x="139" y="21" type="curve"/>
      <point x="107" y="9"/>
      <point x="52" y="-2"/>
      <point x="52" y="-2" type="curve"/>
      <point x="52" y="65"/>
      <point x="55" y="196"/>
      <point x="54" y="307" type="curve" smooth="yes"/>
      <point x="53" y="386"/>
      <point x="48" y="582"/>
      <point x="42" y="650" type="curve"/>
      <point x="64" y="656"/>
      <point x="129" y="673"/>
      <point x="129" y="673" type="curve"/>
      <point x="129" y="633"/>
      <point x="129" y="579"/>
      <point x="129" y="550" type="curve"/>
      <point x="290" y="550"/>
      <point x="356" y="515"/>
    </contour>
    <contour>
      <point x="276" y="365" type="curve" smooth="yes"/>
      <point x="276" y="454"/>
      <point x="245" y="475"/>
      <point x="128" y="475" type="curve"/>
      <point x="128" y="445"/>
      <point x="130" y="394"/>
      <point x="132" y="348" type="curve" smooth="yes"/>
      <point x="133" y="312"/>
      <point x="135" y="256"/>
      <point x="135" y="226" type="curve"/>
      <point x="208" y="226"/>
      <point x="276" y="304"/>
    </contour>
  </outline>
</glyph>
<glyph name="germandbls" format="1">
  <advance width="410"/>
  <unicode hex="00DF"/>
  <outline>
    <contour>
      <point x="394" y="103" type="curve" smooth="yes"/>
      <point x="394" y="35"/>
      <point x="318" y="-20"/>
      <point x="226" y="-26" type="curve"/>
      <point x="226" y="-6"/>
      <point x="223" y="18"/>
      <point x="215" y="42" type="curve"/>
      <point x="258" y="43"/>
      <point x="321" y="63"/>
      <point x="321" y="102" type="curve" smooth="yes"/>
      <point x="321" y="165"/>
      <point x="285" y="197"/>
      <point x="250" y="230" type="curve" smooth="yes"/>
      <point x="216" y="262"/>
      <point x="183" y="294"/>
      <point x="183" y="356" type="curve" smooth="yes"/>
      <point x="183" y="402"/>
      <point x="204" y="429"/>
      <point x="223" y="457" type="curve" smooth="yes"/>
      <point x="238" y="479"/>
      <point x="251" y="501"/>
      <point x="251" y="535" type="curve" smooth="yes"/>
      <point x="251" y="578"/>
      <point x="239" y="607"/>
      <point x="191" y="607" type="curve" smooth="yes"/>
      <point x="166" y="607"/>
      <point x="150" y="597"/>
      <point x="141" y="571" type="curve" smooth="yes"/>
      <point x="137" y="559"/>
      <point x="140" y="522"/>
      <point x="141" y="508" type="curve" smooth="yes"/>
      <point x="142" y="493"/>
      <point x="145" y="238"/>
      <point x="145" y="238" type="curve" smooth="yes"/>
      <point x="146" y="188"/>
      <point x="147" y="-7"/>
      <point x="147" y="-7" type="curve"/>
      <point x="134" y="2"/>
      <point x="77" y="4"/>
      <point x="58" y="5" type="curve"/>
      <point x="61" y="19"/>
      <point x="68" y="79"/>
      <point x="71" y="127" type="curve" smooth="yes"/>
      <point x="73" y="162"/>
      <point x="73" y="206"/>
      <point x="73" y="217" type="curve" smooth="yes"/>
      <point x="73" y="375" type="line" smooth="yes"/>
      <point x="73" y="382"/>
      <point x="23" y="383"/>
      <point x="23" y="383" type="curve"/>
      <point x="15" y="451" type="line"/>
      <point x="73" y="450" type="line"/>
      <point x="74" y="488"/>
      <point x="73" y="536"/>
      <point x="71" y="551" type="curve" smooth="yes"/>
      <point x="70" y="557"/>
      <point x="70" y="563"/>
      <point x="70" y="569" type="curve" smooth="yes"/>
      <point x="70" y="636"/>
      <point x="131" y="672"/>
      <point x="199" y="672" type="curve" smooth="yes"/>
      <point x="270" y="672"/>
      <point x="320" y="635"/>
      <point x="320" y="539" type="curve" smooth="yes"/>
      <point x="320" y="496"/>
      <point x="305" y="466"/>
      <point x="290" y="441" type="curve" smooth="yes"/>
      <point x="272" y="411"/>
      <point x="253" y="389"/>
      <point x="253" y="361" type="curve" smooth="yes"/>
      <point x="253" y="324"/>
      <point x="284" y="301"/>
      <point x="316" y="269" type="curve" smooth="yes"/>
      <point x="354" y="233"/>
      <point x="394" y="187"/>
    </contour>
  </outline>
</glyph>
<glyph name="ae" format="1">
  <advance width="535"/>
  <unicode hex="00E6"/>
  <outline>
    <contour>
      <point x="513" y="44" type="curve"/>
      <point x="499" y="21"/>
      <point x="417" y="-1"/>
      <point x="384" y="-1" type="curve" smooth="yes"/>
      <point x="339" y="-1"/>
      <point x="281" y="31"/>
      <point x="259" y="71" type="curve"/>
      <point x="233" y="42"/>
      <point x="162" y="-12"/>
      <point x="103" y="-12" type="curve" smooth="yes"/>
      <point x="69" y="-12"/>
      <point x="17" y="40"/>
      <point x="17" y="126" type="curve" smooth="yes"/>
      <point x="17" y="165"/>
      <point x="33" y="219"/>
      <point x="77" y="241" type="curve" smooth="yes"/>
      <point x="141" y="273"/>
      <point x="195" y="287"/>
      <point x="221" y="296" type="curve"/>
      <point x="219" y="345"/>
      <point x="214" y="366"/>
      <point x="196" y="375" type="curve" smooth="yes"/>
      <point x="173" y="387"/>
      <point x="137" y="392"/>
      <point x="99" y="392" type="curve"/>
      <point x="99" y="392"/>
      <point x="104" y="443"/>
      <point x="103" y="463" type="curve"/>
      <point x="154" y="457"/>
      <point x="211" y="447"/>
      <point x="237" y="434" type="curve" smooth="yes"/>
      <point x="254" y="425"/>
      <point x="265" y="413"/>
      <point x="271" y="398" type="curve"/>
      <point x="294" y="428"/>
      <point x="332" y="453"/>
      <point x="380" y="453" type="curve" smooth="yes"/>
      <point x="463" y="453"/>
      <point x="499" y="350"/>
      <point x="504" y="223" type="curve"/>
      <point x="418" y="216"/>
      <point x="294" y="212"/>
      <point x="294" y="212" type="curve"/>
      <point x="298" y="110"/>
      <point x="337" y="68"/>
      <point x="395" y="68" type="curve" smooth="yes"/>
      <point x="418" y="68"/>
      <point x="464" y="76"/>
      <point x="492" y="91" type="curve"/>
      <point x="496" y="76"/>
      <point x="503" y="58"/>
    </contour>
    <contour>
      <point x="429" y="281" type="curve"/>
      <point x="421" y="349"/>
      <point x="405" y="388"/>
      <point x="365" y="388" type="curve" smooth="yes"/>
      <point x="333" y="388"/>
      <point x="288" y="355"/>
      <point x="294" y="274" type="curve"/>
      <point x="294" y="274"/>
      <point x="343" y="271"/>
      <point x="358" y="273" type="curve" smooth="yes"/>
      <point x="384" y="276"/>
      <point x="429" y="281"/>
    </contour>
    <contour>
      <point x="232" y="136" type="curve"/>
      <point x="226" y="167"/>
      <point x="222" y="206"/>
      <point x="222" y="235" type="curve"/>
      <point x="216" y="229"/>
      <point x="159" y="212"/>
      <point x="140" y="202" type="curve" smooth="yes"/>
      <point x="123" y="193"/>
      <point x="95" y="169"/>
      <point x="95" y="142" type="curve" smooth="yes"/>
      <point x="95" y="89"/>
      <point x="105" y="67"/>
      <point x="132" y="65" type="curve" smooth="yes"/>
      <point x="164" y="63"/>
      <point x="214" y="106"/>
    </contour>
  </outline>
</glyph>
<glyph name="ccedilla" format="1">
  <advance width="290"/>
  <unicode hex="00E7"/>
  <outline>
    <contour>
      <point x="269" y="48" type="curve"/>
      <point x="264" y="31"/>
      <point x="255" y="-10"/>
      <point x="254" y="-25" type="curve"/>
      <point x="230" y="-21"/>
      <point x="196" y="-13"/>
      <point x="175" y="-4" type="curve"/>
      <point x="162" y="-29" type="line"/>
      <point x="192" y="-37"/>
      <point x="212" y="-65"/>
      <point x="212" y="-92" type="curve" smooth="yes"/>
      <point x="212" y="-129"/>
      <point x="192" y="-174"/>
      <point x="127" y="-185" type="curve"/>
      <point x="112" y="-140" type="line"/>
      <point x="136" y="-134"/>
      <point x="149" y="-124"/>
      <point x="149" y="-103" type="curve" smooth="yes"/>
      <point x="149" y="-78"/>
      <point x="134" y="-63"/>
      <point x="101" y="-55" type="curve"/>
      <point x="134" y="14" type="line"/>
      <point x="62" y="57"/>
      <point x="29" y="127"/>
      <point x="29" y="232" type="curve" smooth="yes"/>
      <point x="29" y="293"/>
      <point x="42" y="352"/>
      <point x="67" y="386" type="curve" smooth="yes"/>
      <point x="107" y="440"/>
      <point x="148" y="459"/>
      <point x="253" y="473" type="curve"/>
      <point x="261" y="406" type="line"/>
      <point x="240" y="405"/>
      <point x="206" y="398"/>
      <point x="199" y="396" type="curve" smooth="yes"/>
      <point x="142" y="378"/>
      <point x="105" y="336"/>
      <point x="105" y="242" type="curve" smooth="yes"/>
      <point x="105" y="163"/>
      <point x="125" y="84"/>
      <point x="215" y="60" type="curve" smooth="yes"/>
      <point x="230" y="56"/>
      <point x="252" y="48"/>
    </contour>
  </outline>
</glyph>
<glyph name="eth" format="1">
  <advance width="372"/>
  <unicode hex="00F0"/>
  <outline>
    <contour>
      <point x="343" y="265" type="curve" smooth="yes"/>
      <point x="343" y="106"/>
      <point x="267" y="6"/>
      <point x="182" y="6" type="curve" smooth="yes"/>
      <point x="96" y="6"/>
      <point x="27" y="65"/>
      <point x="27" y="200" type="curve" smooth="yes"/>
      <point x="27" y="365"/>
      <point x="77" y="441"/>
      <point x="165" y="441" type="curve" smooth="yes"/>
      <point x="195" y="441"/>
      <point x="228" y="431"/>
      <point x="247" y="412" type="curve"/>
      <point x="232" y="459"/>
      <point x="201" y="509"/>
      <point x="165" y="549" type="curve"/>
      <point x="140" y="526"/>
      <point x="118" y="505"/>
      <point x="109" y="495" type="curve"/>
      <point x="101" y="505"/>
      <point x="83" y="522"/>
      <point x="71" y="529" type="curve"/>
      <point x="84" y="542"/>
      <point x="105" y="564"/>
      <point x="126" y="587" type="curve"/>
      <point x="103" y="607"/>
      <point x="79" y="622"/>
      <point x="55" y="630" type="curve"/>
      <point x="69" y="644"/>
      <point x="85" y="664"/>
      <point x="95" y="680" type="curve"/>
      <point x="121" y="669"/>
      <point x="146" y="654"/>
      <point x="170" y="634" type="curve"/>
      <point x="189" y="656"/>
      <point x="205" y="673"/>
      <point x="210" y="681" type="curve"/>
      <point x="219" y="671"/>
      <point x="247" y="645"/>
      <point x="260" y="635" type="curve"/>
      <point x="251" y="628"/>
      <point x="234" y="612"/>
      <point x="214" y="594" type="curve"/>
      <point x="288" y="514"/>
      <point x="343" y="396"/>
    </contour>
    <contour>
      <point x="268" y="235" type="curve" smooth="yes"/>
      <point x="268" y="353"/>
      <point x="216" y="370"/>
      <point x="172" y="370" type="curve" smooth="yes"/>
      <point x="130" y="370"/>
      <point x="103" y="331"/>
      <point x="103" y="220" type="curve" smooth="yes"/>
      <point x="103" y="104"/>
      <point x="145" y="79"/>
      <point x="189" y="79" type="curve" smooth="yes"/>
      <point x="231" y="79"/>
      <point x="268" y="126"/>
    </contour>
  </outline>
</glyph>
<glyph name="oslash" format="1">
  <advance width="372"/>
  <unicode hex="00F8"/>
  <outline>
    <contour>
      <point x="346" y="490" type="curve"/>
      <point x="332" y="464"/>
      <point x="317" y="437"/>
      <point x="302" y="410" type="curve"/>
      <point x="328" y="379"/>
      <point x="344" y="332"/>
      <point x="344" y="265" type="curve" smooth="yes"/>
      <point x="344" y="106"/>
      <point x="268" y="5"/>
      <point x="182" y="5" type="curve" smooth="yes"/>
      <point x="154" y="5"/>
      <point x="125" y="11"/>
      <point x="103" y="27" type="curve"/>
      <point x="92" y="7"/>
      <point x="82" y="-14"/>
      <point x="73" y="-33" type="curve"/>
      <point x="53" y="-21"/>
      <point x="32" y="-13"/>
      <point x="15" y="-7" type="curve"/>
      <point x="30" y="21"/>
      <point x="45" y="51"/>
      <point x="61" y="80" type="curve"/>
      <point x="60" y="81"/>
      <point x="60" y="84"/>
      <point x="59" y="85" type="curve"/>
      <point x="44" y="126"/>
      <point x="26" y="162"/>
      <point x="26" y="225" type="curve" smooth="yes"/>
      <point x="26" y="390"/>
      <point x="94" y="459"/>
      <point x="183" y="459" type="curve" smooth="yes"/>
      <point x="205" y="459"/>
      <point x="228" y="456"/>
      <point x="248" y="448" type="curve"/>
      <point x="260" y="473"/>
      <point x="273" y="496"/>
      <point x="283" y="517" type="curve"/>
      <point x="302" y="505"/>
      <point x="323" y="498"/>
    </contour>
    <contour>
      <point x="215" y="379" type="curve"/>
      <point x="201" y="388"/>
      <point x="186" y="392"/>
      <point x="172" y="392" type="curve" smooth="yes"/>
      <point x="128" y="392"/>
      <point x="100" y="359"/>
      <point x="100" y="245" type="curve" smooth="yes"/>
      <point x="100" y="219"/>
      <point x="103" y="195"/>
      <point x="109" y="168" type="curve"/>
      <point x="147" y="242"/>
      <point x="183" y="315"/>
    </contour>
    <contour>
      <point x="272" y="235" type="curve" smooth="yes"/>
      <point x="272" y="271"/>
      <point x="267" y="301"/>
      <point x="257" y="328" type="curve"/>
      <point x="217" y="252"/>
      <point x="178" y="175"/>
      <point x="140" y="101" type="curve"/>
      <point x="155" y="85"/>
      <point x="173" y="75"/>
      <point x="189" y="75" type="curve" smooth="yes"/>
      <point x="233" y="75"/>
      <point x="272" y="123"/>
    </contour>
  </outline>
</glyph>
<glyph name="thorn" format="1">
  <advance width="347"/>
  <unicode hex="00FE"/>
  <outline>
    <contour>
      <point x="318" y="199" type="curve" smooth="yes"/>
      <point x="318" y="124"/>
      <point x="306" y="71"/>
      <point x="279" y="32" type="curve" smooth="yes"/>
      <point x="254" y="-6"/>
      <point x="228" y="-13"/>
      <point x="202" y="-13" type="curve" smooth="yes"/>
      <point x="185" y="-13"/>
      <point x="124" y="11"/>
      <point x="113" y="21" type="curve"/>
      <point x="114" y="-9"/>
      <point x="114" y="-49"/>
      <point x="114" y="-108" type="curve" smooth="yes"/>
      <point x="114" y="-139"/>
      <point x="116" y="-169"/>
      <point x="118" y="-187" type="curve"/>
      <point x="95" y="-188"/>
      <point x="58" y="-193"/>
      <point x="45" y="-196" type="curve"/>
      <point x="44" y="-164"/>
      <point x="46" y="43"/>
      <point x="46" y="196" type="curve" smooth="yes"/>
      <point x="45" y="377"/>
      <point x="44" y="660"/>
      <point x="44" y="660" type="curve"/>
      <point x="61" y="660"/>
      <point x="103" y="664"/>
      <point x="120" y="667" type="curve"/>
      <point x="116" y="649"/>
      <point x="115" y="422"/>
      <point x="115" y="416" type="curve"/>
      <point x="132" y="426"/>
      <point x="176" y="440"/>
      <point x="214" y="440" type="curve" smooth="yes"/>
      <point x="229" y="440"/>
      <point x="242" y="436"/>
      <point x="253" y="429" type="curve"/>
      <point x="263" y="424"/>
      <point x="278" y="416"/>
      <point x="285" y="406" type="curve" smooth="yes"/>
      <point x="306" y="376"/>
      <point x="318" y="278"/>
    </contour>
    <contour>
      <point x="242" y="197" type="curve" smooth="yes"/>
      <point x="242" y="342"/>
      <point x="216" y="373"/>
      <point x="165" y="373" type="curve" smooth="yes"/>
      <point x="147" y="373"/>
      <point x="121" y="362"/>
      <point x="113" y="356" type="curve"/>
      <point x="112" y="346"/>
      <point x="111" y="290"/>
      <point x="111" y="260" type="curve" smooth="yes"/>
      <point x="111" y="198"/>
      <point x="113" y="96"/>
      <point x="113" y="96" type="curve"/>
      <point x="134" y="70"/>
      <point x="171" y="57"/>
      <point x="186" y="57" type="curve" smooth="yes"/>
      <point x="210" y="57"/>
      <point x="242" y="60"/>
    </contour>
  </outline>
</glyph>
<glyph name="dotlessi" format="1">
  <advance width="161"/>
  <unicode hex="0131"/>
  <outline>
    <contour>
      <point x="125" y="5" type="curve"/>
      <point x="112" y="2"/>
      <point x="61" y="-10"/>
      <point x="42" y="-20" type="curve"/>
      <point x="44" y="25"/>
      <point x="41" y="237"/>
      <point x="41" y="226" type="curve" smooth="yes"/>
      <point x="41" y="216"/>
      <point x="42" y="429"/>
      <point x="42" y="448" type="curve"/>
      <point x="51" y="447"/>
      <point x="109" y="442"/>
      <point x="122" y="443" type="curve"/>
      <point x="119" y="432"/>
      <point x="117" y="395"/>
      <point x="116" y="383" type="curve" smooth="yes"/>
      <point x="114" y="364"/>
      <point x="114" y="286"/>
      <point x="114" y="264" type="curve" smooth="yes"/>
      <point x="114" y="240"/>
      <point x="116" y="116"/>
      <point x="117" y="98" type="curve" smooth="yes"/>
      <point x="118" y="77"/>
      <point x="121" y="29"/>
    </contour>
  </outline>
</glyph>
<glyph name="Lslash" format="1">
  <advance width="363"/>
  <unicode hex="0141"/>
  <outline>
    <contour>
      <point x="354" y="72" type="curve"/>
      <point x="350" y="50"/>
      <point x="346" y="22"/>
      <point x="340" y="-8" type="curve"/>
      <point x="328" y="-6"/>
      <point x="285" y="-4"/>
      <point x="250" y="-2" type="curve" smooth="yes"/>
      <point x="186" y="2"/>
      <point x="89" y="3"/>
      <point x="66" y="5" type="curve"/>
      <point x="70" y="49"/>
      <point x="74" y="167"/>
      <point x="75" y="298" type="curve"/>
      <point x="37" y="284" type="line"/>
      <point x="6" y="333" type="line"/>
      <point x="75" y="366" type="line"/>
      <point x="74" y="414"/>
      <point x="73" y="462"/>
      <point x="72" y="508" type="curve" smooth="yes"/>
      <point x="70" y="568"/>
      <point x="72" y="634"/>
      <point x="69" y="662" type="curve"/>
      <point x="93" y="662"/>
      <point x="135" y="670"/>
      <point x="156" y="673" type="curve"/>
      <point x="157" y="646"/>
      <point x="157" y="529"/>
      <point x="156" y="405" type="curve"/>
      <point x="238" y="445" type="line"/>
      <point x="266" y="369" type="line"/>
      <point x="156" y="328" type="line"/>
      <point x="156" y="210"/>
      <point x="155" y="99"/>
      <point x="155" y="69" type="curve"/>
      <point x="181" y="71"/>
      <point x="310" y="68"/>
    </contour>
  </outline>
</glyph>
<glyph name="lslash" format="1">
  <advance width="210"/>
  <unicode hex="0142"/>
  <outline>
    <contour>
      <point x="208" y="345" type="line"/>
      <point x="137" y="319" type="line"/>
      <point x="137" y="256"/>
      <point x="136" y="199"/>
      <point x="134" y="188" type="curve"/>
      <point x="133" y="176"/>
      <point x="127" y="18"/>
      <point x="127" y="-24" type="curve"/>
      <point x="112" y="-18"/>
      <point x="74" y="-11"/>
      <point x="64" y="-8" type="curve"/>
      <point x="64" y="11"/>
      <point x="64" y="194"/>
      <point x="65" y="294" type="curve"/>
      <point x="37" y="284" type="line"/>
      <point x="6" y="333" type="line"/>
      <point x="65" y="363" type="line"/>
      <point x="65" y="390"/>
      <point x="64" y="510"/>
      <point x="64" y="523" type="curve" smooth="yes"/>
      <point x="64" y="530"/>
      <point x="67" y="608"/>
      <point x="73" y="620" type="curve"/>
      <point x="75" y="637"/>
      <point x="76" y="673"/>
      <point x="76" y="693" type="curve"/>
      <point x="87" y="688"/>
      <point x="121" y="678"/>
      <point x="137" y="670" type="curve"/>
      <point x="137" y="636"/>
      <point x="138" y="458"/>
      <point x="138" y="424" type="curve" smooth="yes"/>
      <point x="138" y="423"/>
      <point x="138" y="413"/>
      <point x="138" y="398" type="curve"/>
      <point x="180" y="421" type="line"/>
    </contour>
  </outline>
</glyph>
<glyph name="OE" format="1">
  <advance width="610"/>
  <unicode hex="0152"/>
  <outline>
    <contour>
      <point x="582" y="72" type="curve"/>
      <point x="581" y="61"/>
      <point x="574" y="19"/>
      <point x="570" y="-6" type="curve"/>
      <point x="560" y="-4"/>
      <point x="507" y="-3"/>
      <point x="467" y="-2" type="curve" smooth="yes"/>
      <point x="400" y="1"/>
      <point x="347" y="3"/>
      <point x="314" y="4" type="curve"/>
      <point x="314" y="12"/>
      <point x="315" y="77"/>
      <point x="315" y="91" type="curve"/>
      <point x="298" y="40"/>
      <point x="251" y="-6"/>
      <point x="198" y="-6" type="curve" smooth="yes"/>
      <point x="114" y="-6"/>
      <point x="32" y="109"/>
      <point x="32" y="345" type="curve" smooth="yes"/>
      <point x="32" y="556"/>
      <point x="69" y="670"/>
      <point x="201" y="670" type="curve" smooth="yes"/>
      <point x="253" y="670"/>
      <point x="303" y="634"/>
      <point x="320" y="601" type="curve"/>
      <point x="320" y="612"/>
      <point x="320" y="655"/>
      <point x="320" y="662" type="curve"/>
      <point x="341" y="664"/>
      <point x="388" y="666"/>
      <point x="411" y="666" type="curve" smooth="yes"/>
      <point x="444" y="666"/>
      <point x="555" y="662"/>
      <point x="576" y="662" type="curve"/>
      <point x="572" y="646"/>
      <point x="567" y="604"/>
      <point x="565" y="582" type="curve"/>
      <point x="547" y="585"/>
      <point x="479" y="590"/>
      <point x="443" y="593" type="curve" smooth="yes"/>
      <point x="421" y="595"/>
      <point x="397" y="592"/>
      <point x="386" y="593" type="curve"/>
      <point x="384" y="520"/>
      <point x="386" y="465"/>
      <point x="386" y="393" type="curve"/>
      <point x="403" y="392"/>
      <point x="460" y="392"/>
      <point x="445" y="392" type="curve" smooth="yes"/>
      <point x="438" y="392"/>
      <point x="531" y="399"/>
      <point x="548" y="399" type="curve"/>
      <point x="548" y="384"/>
      <point x="546" y="341"/>
      <point x="546" y="318" type="curve"/>
      <point x="522" y="317"/>
      <point x="442" y="322"/>
      <point x="452" y="320" type="curve"/>
      <point x="461" y="320"/>
      <point x="398" y="320"/>
      <point x="387" y="323" type="curve"/>
      <point x="383" y="259"/>
      <point x="387" y="150"/>
      <point x="387" y="80" type="curve"/>
      <point x="404" y="75"/>
      <point x="437" y="77"/>
      <point x="444" y="76" type="curve" smooth="yes"/>
      <point x="453" y="75"/>
      <point x="554" y="71"/>
    </contour>
    <contour>
      <point x="315" y="344" type="curve" smooth="yes"/>
      <point x="315" y="566"/>
      <point x="248" y="594"/>
      <point x="189" y="594" type="curve" smooth="yes"/>
      <point x="131" y="594"/>
      <point x="116" y="483"/>
      <point x="116" y="351" type="curve" smooth="yes"/>
      <point x="116" y="167"/>
      <point x="150" y="72"/>
      <point x="211" y="72" type="curve" smooth="yes"/>
      <point x="259" y="72"/>
      <point x="315" y="198"/>
    </contour>
  </outline>
</glyph>
<glyph name="oe" format="1">
  <advance width="583"/>
  <unicode hex="0153"/>
  <outline>
    <contour>
      <point x="561" y="44" type="curve"/>
      <point x="547" y="21"/>
      <point x="466" y="-1"/>
      <point x="433" y="-1" type="curve" smooth="yes"/>
      <point x="379" y="-1"/>
      <point x="321" y="43"/>
      <point x="299" y="94" type="curve"/>
      <point x="271" y="39"/>
      <point x="227" y="6"/>
      <point x="182" y="6" type="curve" smooth="yes"/>
      <point x="130" y="6"/>
      <point x="92" y="29"/>
      <point x="60" y="86" type="curve" smooth="yes"/>
      <point x="39" y="123"/>
      <point x="27" y="163"/>
      <point x="27" y="225" type="curve" smooth="yes"/>
      <point x="27" y="390"/>
      <point x="95" y="459"/>
      <point x="183" y="459" type="curve" smooth="yes"/>
      <point x="231" y="459"/>
      <point x="280" y="436"/>
      <point x="307" y="386" type="curve"/>
      <point x="326" y="423"/>
      <point x="370" y="453"/>
      <point x="428" y="453" type="curve" smooth="yes"/>
      <point x="511" y="453"/>
      <point x="547" y="350"/>
      <point x="552" y="223" type="curve"/>
      <point x="466" y="216"/>
      <point x="342" y="212"/>
      <point x="342" y="212" type="curve"/>
      <point x="344" y="106"/>
      <point x="392" y="67"/>
      <point x="441" y="67" type="curve" smooth="yes"/>
      <point x="464" y="67"/>
      <point x="512" y="76"/>
      <point x="540" y="91" type="curve"/>
      <point x="544" y="76"/>
      <point x="551" y="58"/>
    </contour>
    <contour>
      <point x="477" y="281" type="curve"/>
      <point x="469" y="349"/>
      <point x="453" y="388"/>
      <point x="413" y="388" type="curve" smooth="yes"/>
      <point x="381" y="388"/>
      <point x="336" y="355"/>
      <point x="342" y="274" type="curve"/>
      <point x="342" y="274"/>
      <point x="391" y="271"/>
      <point x="406" y="273" type="curve" smooth="yes"/>
      <point x="432" y="276"/>
      <point x="477" y="281"/>
    </contour>
    <contour>
      <point x="268" y="235" type="curve" smooth="yes"/>
      <point x="268" y="353"/>
      <point x="216" y="388"/>
      <point x="172" y="388" type="curve" smooth="yes"/>
      <point x="130" y="388"/>
      <point x="103" y="356"/>
      <point x="103" y="245" type="curve" smooth="yes"/>
      <point x="103" y="143"/>
      <point x="130" y="79"/>
      <point x="189" y="79" type="curve" smooth="yes"/>
      <point x="231" y="79"/>
      <point x="268" y="126"/>
    </contour>
  </outline>
</glyph>
<glyph name="florin" format="1">
  <advance width="254"/>
  <unicode hex="0192"/>
  <outline>
    <contour>
      <point x="226" y="619" type="curve"/>
      <point x="174" y="612"/>
      <point x="157" y="594"/>
      <point x="149" y="584" type="curve" smooth="yes"/>
      <point x="144" y="578"/>
      <point x="139" y="567"/>
      <point x="139" y="555" type="curve" smooth="yes"/>
      <point x="139" y="546"/>
      <point x="142" y="524"/>
      <point x="142" y="518" type="curve" smooth="yes"/>
      <point x="143" y="508"/>
      <point x="143" y="450"/>
      <point x="143" y="443" type="curve"/>
      <point x="150" y="441"/>
      <point x="194" y="433"/>
      <point x="208" y="438" type="curve"/>
      <point x="209" y="372" type="line"/>
      <point x="209" y="372"/>
      <point x="170" y="373"/>
      <point x="148" y="371" type="curve"/>
      <point x="146" y="238" type="line" smooth="yes"/>
      <point x="145" y="172"/>
      <point x="143" y="89"/>
      <point x="143" y="68" type="curve" smooth="yes"/>
      <point x="143" y="-84"/>
      <point x="92" y="-142"/>
      <point x="46" y="-178" type="curve"/>
      <point x="32" y="-161"/>
      <point x="16" y="-145"/>
      <point x="-2" y="-132" type="curve"/>
      <point x="29" y="-108"/>
      <point x="73" y="-30"/>
      <point x="70" y="36" type="curve" smooth="yes"/>
      <point x="69" y="56"/>
      <point x="71" y="92"/>
      <point x="71" y="128" type="curve" smooth="yes"/>
      <point x="71" y="163"/>
      <point x="73" y="207"/>
      <point x="73" y="217" type="curve" smooth="yes"/>
      <point x="73" y="375" type="line" smooth="yes"/>
      <point x="73" y="382"/>
      <point x="23" y="383"/>
      <point x="23" y="383" type="curve"/>
      <point x="15" y="452" type="line"/>
      <point x="73" y="451" type="line"/>
      <point x="74" y="489"/>
      <point x="73" y="546"/>
      <point x="71" y="561" type="curve" smooth="yes"/>
      <point x="70" y="567"/>
      <point x="70" y="572"/>
      <point x="70" y="578" type="curve" smooth="yes"/>
      <point x="70" y="619"/>
      <point x="99" y="668"/>
      <point x="211" y="684" type="curve"/>
      <point x="214" y="666"/>
      <point x="218" y="644"/>
    </contour>
  </outline>
</glyph>
<glyph name="circumflex" format="1">
  <advance width="280"/>
  <unicode hex="02C6"/>
  <outline>
    <contour>
      <point x="258" y="549" type="line"/>
      <point x="227" y="509" type="line"/>
      <point x="137" y="572" type="line"/>
      <point x="52" y="485" type="line"/>
      <point x="19" y="522" type="line"/>
      <point x="109" y="636" type="line"/>
      <point x="169" y="634" type="line"/>
    </contour>
  </outline>
</glyph>
<glyph name="caron" format="1">
  <advance width="280"/>
  <unicode hex="02C7"/>
  <outline>
    <contour>
      <point x="251" y="611" type="line"/>
      <point x="161" y="497" type="line"/>
      <point x="101" y="499" type="line"/>
      <point x="12" y="584" type="line"/>
      <point x="43" y="624" type="line"/>
      <point x="133" y="561" type="line"/>
      <point x="218" y="648" type="line"/>
    </contour>
  </outline>
</glyph>
<glyph name="breve" format="1">
  <advance width="280"/>
  <unicode hex="02D8"/>
  <outline>
    <contour>
      <point x="259" y="619" type="line"/>
      <point x="251" y="558"/>
      <point x="193" y="504"/>
      <point x="131" y="504" type="curve" smooth="yes"/>
      <point x="75" y="504"/>
      <point x="24" y="536"/>
      <point x="10" y="591" type="curve"/>
      <point x="61" y="615" type="line"/>
      <point x="71" y="585"/>
      <point x="97" y="564"/>
      <point x="124" y="564" type="curve" smooth="yes"/>
      <point x="174" y="564"/>
      <point x="194" y="601"/>
      <point x="200" y="631" type="curve"/>
    </contour>
  </outline>
</glyph>
<glyph name="dotaccent" format="1">
  <advance width="280"/>
  <unicode hex="02D9"/>
  <outline>
    <contour>
      <point x="176" y="578" type="curve" smooth="yes"/>
      <point x="176" y="549"/>
      <point x="153" y="528"/>
      <point x="131" y="528" type="curve" smooth="yes"/>
      <point x="107" y="528"/>
      <point x="84" y="549"/>
      <point x="84" y="573" type="curve" smooth="yes"/>
      <point x="84" y="604"/>
      <point x="110" y="620"/>
      <point x="131" y="620" type="curve" smooth="yes"/>
      <point x="160" y="620"/>
      <point x="176" y="604"/>
    </contour>
  </outline>
</glyph>
<glyph name="ring" format="1">
  <advance width="280"/>
  <unicode hex="02DA"/>
  <outline>
    <contour>
      <point x="220" y="590" type="curve" smooth="yes"/>
      <point x="220" y="537"/>
      <point x="171" y="502"/>
      <point x="126" y="502" type="curve" smooth="yes"/>
      <point x="76" y="502"/>
      <point x="31" y="548"/>
      <point x="31" y="598" type="curve" smooth="yes"/>
      <point x="31" y="652"/>
      <point x="82" y="674"/>
      <point x="127" y="674" type="curve" smooth="yes"/>
      <point x="157" y="674"/>
      <point x="177" y="668"/>
      <point x="191" y="655" type="curve" smooth="yes"/>
      <point x="211" y="638"/>
      <point x="220" y="611"/>
    </contour>
    <contour>
      <point x="170" y="595" type="curve" smooth="yes"/>
      <point x="170" y="617"/>
      <point x="150" y="630"/>
      <point x="122" y="630" type="curve" smooth="yes"/>
      <point x="92" y="630"/>
      <point x="80" y="607"/>
      <point x="80" y="592" type="curve" smooth="yes"/>
      <point x="80" y="581"/>
      <point x="82" y="572"/>
      <point x="90" y="564" type="curve" smooth="yes"/>
      <point x="99" y="555"/>
      <point x="109" y="548"/>
      <point x="120" y="548" type="curve" smooth="yes"/>
      <point x="151" y="548"/>
      <point x="170" y="569"/>
    </contour>
  </outline>
</glyph>
